M48
; DRILL file KiCad 10.0.5-10.0.5~ubuntu24.04.1 date 2026-08-23T00:23:42
; FORMAT={-:-/ absolute / metric / decimal}
; #@! TF.CreationDate,2026-08-23T00:23:42-04:00
; #@! TF.GenerationSoftware,Kicad,Pcbnew,10.0.5-10.0.5~ubuntu24.04.1
; #@! TF.FileFunction,Plated,1,2,PTH
FMAT,2
METRIC
; #@! TA.AperFunction,Plated,PTH,ViaDrill
T1C0.300
; #@! TA.AperFunction,Plated,PTH,ComponentDrill
T2C0.950
; #@! TA.AperFunction,Plated,PTH,ComponentDrill
T3C1.000
%
G90
G05
T1
X153.924Y-59.436
X153.924Y-63.246
X153.924Y-81.661
X153.924Y-88.011
X153.924Y-91.186
X153.924Y-100.076
X157.099Y-81.026
X157.734Y-88.138
X158.75Y-88.138
X159.004Y-97.536
X159.639Y-59.436
X159.639Y-65.786
X161.544Y-91.186
X161.544Y-96.266
X165.1Y-76.581
X165.1Y-78.613
X165.481Y-71.501
X168.529Y-59.436
X168.529Y-67.691
X169.164Y-88.646
X169.164Y-99.441
X170.307Y-70.485
X170.434Y-63.246
X172.466Y-78.486
X172.974Y-59.436
X172.974Y-80.391
X172.974Y-89.916
X172.974Y-94.361
X172.974Y-98.806
X172.974Y-103.251
X173.444Y-84.836
T2
X161.584Y-67.58
X164.084Y-67.58
X166.584Y-67.58
T3
X155.29Y-74.022
X155.29Y-76.561
X155.29Y-79.102
M30
