%TF.GenerationSoftware,KiCad,Pcbnew,10.0.5-10.0.5~ubuntu24.04.1*%
%TF.CreationDate,2026-08-23T00:23:11-04:00*%
%TF.ProjectId,LG_HVAC_Controller,4c475f48-5641-4435-9f43-6f6e74726f6c,rev?*%
%TF.SameCoordinates,Original*%
%TF.FileFunction,Copper,L2,Bot*%
%TF.FilePolarity,Positive*%
%FSLAX46Y46*%
G04 Gerber Fmt 4.6, Leading zero omitted, Abs format (unit mm)*
G04 Created by KiCad (PCBNEW 10.0.5-10.0.5~ubuntu24.04.1) date 2026-08-23 00:23:11*
%MOMM*%
%LPD*%
G01*
G04 APERTURE LIST*
G04 Aperture macros list*
%AMRoundRect*
0 Rectangle with rounded corners*
0 $1 Rounding radius*
0 $2 $3 $4 $5 $6 $7 $8 $9 X,Y pos of 4 corners*
0 Add a 4 corners polygon primitive as box body*
4,1,4,$2,$3,$4,$5,$6,$7,$8,$9,$2,$3,0*
0 Add four circle primitives for the rounded corners*
1,1,$1+$1,$2,$3*
1,1,$1+$1,$4,$5*
1,1,$1+$1,$6,$7*
1,1,$1+$1,$8,$9*
0 Add four rect primitives between the rounded corners*
20,1,$1+$1,$2,$3,$4,$5,0*
20,1,$1+$1,$4,$5,$6,$7,0*
20,1,$1+$1,$6,$7,$8,$9,0*
20,1,$1+$1,$8,$9,$2,$3,0*%
G04 Aperture macros list end*
%TA.AperFunction,ComponentPad*%
%ADD10RoundRect,0.250000X0.600000X0.725000X-0.600000X0.725000X-0.600000X-0.725000X0.600000X-0.725000X0*%
%TD*%
%TA.AperFunction,ComponentPad*%
%ADD11O,1.700000X1.950000*%
%TD*%
%TA.AperFunction,ComponentPad*%
%ADD12R,2.500000X1.500000*%
%TD*%
%TA.AperFunction,ComponentPad*%
%ADD13O,2.500000X1.500000*%
%TD*%
%TA.AperFunction,ViaPad*%
%ADD14C,0.600000*%
%TD*%
G04 APERTURE END LIST*
D10*
%TO.P,J1,1,Pin_1_1*%
%TO.N,GND*%
X166584000Y-67580000D03*
D11*
%TO.P,J1,2,Pin_2_2*%
%TO.N,/LINBUS*%
X164084000Y-67580000D03*
%TO.P,J1,3,Pin_3_3*%
%TO.N,/+12V_IN*%
X161584000Y-67580000D03*
%TD*%
D12*
%TO.P,U2,1,Vin_1*%
%TO.N,+12V*%
X155289500Y-74021500D03*
D13*
%TO.P,U2,2,GND_2*%
%TO.N,GND*%
X155289500Y-76561500D03*
%TO.P,U2,3,Vout_3*%
%TO.N,+5V*%
X155289500Y-79101500D03*
%TD*%
D14*
%TO.N,GND*%
X157099000Y-81026000D03*
X168529000Y-67691000D03*
X170434000Y-63246000D03*
X172974000Y-59436000D03*
X168529000Y-59436000D03*
X159639000Y-65786000D03*
X153924000Y-63246000D03*
X159639000Y-59436000D03*
X153924000Y-59436000D03*
X169164000Y-99441000D03*
X169164000Y-88646000D03*
X153924000Y-100076000D03*
X159004000Y-97536000D03*
X161544000Y-96266000D03*
X161544000Y-91186000D03*
X153924000Y-91186000D03*
X153924000Y-88011000D03*
X153924000Y-81661000D03*
X172974000Y-80391000D03*
X173444000Y-84836000D03*
X172974000Y-89916000D03*
X172974000Y-94361000D03*
X172974000Y-98806000D03*
X172974000Y-103251000D03*
X172466000Y-78486000D03*
X170307000Y-70485000D03*
X165100000Y-78613000D03*
X165100000Y-76581000D03*
X165481000Y-71501000D03*
X158750000Y-88138000D03*
X157734000Y-88138000D03*
%TD*%
%TA.AperFunction,Conductor*%
%TO.N,GND*%
G36*
X173620967Y-58668880D02*
G01*
X173636279Y-58671925D01*
X173680957Y-58690426D01*
X173683585Y-58692182D01*
X173717817Y-58726414D01*
X173719572Y-58729040D01*
X173738073Y-58773717D01*
X173741117Y-58789021D01*
X173743500Y-58813209D01*
X173743500Y-61224500D01*
X173723815Y-61291539D01*
X173671011Y-61337294D01*
X173619500Y-61348500D01*
X173582809Y-61348500D01*
X173400326Y-61370657D01*
X173278670Y-61385429D01*
X173127775Y-61422621D01*
X172981190Y-61458751D01*
X172755746Y-61544251D01*
X172694730Y-61567392D01*
X172694727Y-61567393D01*
X172694723Y-61567395D01*
X172694722Y-61567395D01*
X172423459Y-61709766D01*
X172423448Y-61709772D01*
X172171307Y-61883811D01*
X172171301Y-61883816D01*
X171941979Y-62086977D01*
X171941977Y-62086979D01*
X171738816Y-62316301D01*
X171738811Y-62316307D01*
X171564772Y-62568448D01*
X171564766Y-62568459D01*
X171422395Y-62839722D01*
X171422395Y-62839723D01*
X171313751Y-63126190D01*
X171313750Y-63126196D01*
X171244356Y-63407740D01*
X171240429Y-63423672D01*
X171213990Y-63641421D01*
X171203500Y-63727812D01*
X171203500Y-64034188D01*
X171240429Y-64338330D01*
X171296217Y-64564672D01*
X171313751Y-64635809D01*
X171368889Y-64781193D01*
X171422392Y-64922270D01*
X171422394Y-64922274D01*
X171422395Y-64922276D01*
X171422395Y-64922277D01*
X171564766Y-65193540D01*
X171564772Y-65193551D01*
X171738811Y-65445692D01*
X171738816Y-65445698D01*
X171941977Y-65675020D01*
X171941979Y-65675022D01*
X172171301Y-65878183D01*
X172171307Y-65878188D01*
X172290567Y-65960506D01*
X172423447Y-66052227D01*
X172694730Y-66194608D01*
X172917621Y-66279139D01*
X172981190Y-66303248D01*
X172981192Y-66303248D01*
X172981196Y-66303250D01*
X173278670Y-66376571D01*
X173513874Y-66405129D01*
X173582809Y-66413500D01*
X173582812Y-66413500D01*
X173619500Y-66413500D01*
X173686539Y-66433185D01*
X173732294Y-66485989D01*
X173743500Y-66537500D01*
X173743500Y-103746790D01*
X173741118Y-103770975D01*
X173738074Y-103786280D01*
X173719570Y-103830961D01*
X173717819Y-103833582D01*
X173683582Y-103867819D01*
X173680993Y-103869549D01*
X173680961Y-103869571D01*
X173636280Y-103888073D01*
X173620979Y-103891117D01*
X173596790Y-103893500D01*
X153301210Y-103893500D01*
X153277019Y-103891117D01*
X153261721Y-103888074D01*
X153217040Y-103869572D01*
X153214414Y-103867817D01*
X153180182Y-103833585D01*
X153178426Y-103830957D01*
X153159925Y-103786279D01*
X153156880Y-103770967D01*
X153154500Y-103746790D01*
X153154500Y-73223635D01*
X153539000Y-73223635D01*
X153539000Y-74819370D01*
X153539001Y-74819376D01*
X153545408Y-74878983D01*
X153595702Y-75013828D01*
X153595706Y-75013835D01*
X153681952Y-75129044D01*
X153681955Y-75129047D01*
X153797164Y-75215293D01*
X153797171Y-75215297D01*
X153932017Y-75265591D01*
X153932016Y-75265591D01*
X153938944Y-75266335D01*
X153991627Y-75272000D01*
X154056085Y-75271999D01*
X154123122Y-75291683D01*
X154168878Y-75344486D01*
X154178822Y-75413644D01*
X154149798Y-75477200D01*
X154128971Y-75496316D01*
X153975180Y-75608053D01*
X153836055Y-75747178D01*
X153720404Y-75906356D01*
X153631081Y-76081662D01*
X153570281Y-76268783D01*
X153563516Y-76311500D01*
X154856488Y-76311500D01*
X154823575Y-76368507D01*
X154789500Y-76495674D01*
X154789500Y-76627326D01*
X154823575Y-76754493D01*
X154856488Y-76811500D01*
X153563516Y-76811500D01*
X153570281Y-76854216D01*
X153631081Y-77041337D01*
X153720404Y-77216643D01*
X153836055Y-77375821D01*
X153975178Y-77514944D01*
X154134356Y-77630595D01*
X154311264Y-77720734D01*
X154362060Y-77768708D01*
X154378855Y-77836529D01*
X154356318Y-77902664D01*
X154311264Y-77941704D01*
X154134094Y-78031976D01*
X154043241Y-78097985D01*
X153974854Y-78147672D01*
X153974852Y-78147674D01*
X153974851Y-78147674D01*
X153835674Y-78286851D01*
X153835674Y-78286852D01*
X153835672Y-78286854D01*
X153785985Y-78355241D01*
X153719976Y-78446094D01*
X153630617Y-78621470D01*
X153569790Y-78808673D01*
X153539000Y-79003077D01*
X153539000Y-79199922D01*
X153569790Y-79394326D01*
X153630617Y-79581529D01*
X153719976Y-79756905D01*
X153835672Y-79916146D01*
X153974854Y-80055328D01*
X154134095Y-80171024D01*
X154216955Y-80213243D01*
X154309470Y-80260382D01*
X154309472Y-80260382D01*
X154309475Y-80260384D01*
X154409817Y-80292987D01*
X154496673Y-80321209D01*
X154691078Y-80352000D01*
X154691083Y-80352000D01*
X155887922Y-80352000D01*
X156082326Y-80321209D01*
X156269525Y-80260384D01*
X156444905Y-80171024D01*
X156604146Y-80055328D01*
X156743328Y-79916146D01*
X156859024Y-79756905D01*
X156948384Y-79581525D01*
X157009209Y-79394326D01*
X157040000Y-79199922D01*
X157040000Y-79003077D01*
X157009209Y-78808673D01*
X156948382Y-78621470D01*
X156859023Y-78446094D01*
X156743328Y-78286854D01*
X156604146Y-78147672D01*
X156444905Y-78031976D01*
X156269525Y-77942616D01*
X156269524Y-77942615D01*
X156267735Y-77941704D01*
X156216939Y-77893730D01*
X156200144Y-77825909D01*
X156222681Y-77759774D01*
X156267736Y-77720734D01*
X156444641Y-77630597D01*
X156603821Y-77514944D01*
X156742944Y-77375821D01*
X156858595Y-77216643D01*
X156947918Y-77041337D01*
X157008718Y-76854216D01*
X157015484Y-76811500D01*
X155722512Y-76811500D01*
X155755425Y-76754493D01*
X155789500Y-76627326D01*
X155789500Y-76495674D01*
X155755425Y-76368507D01*
X155722512Y-76311500D01*
X157015484Y-76311500D01*
X157008718Y-76268783D01*
X156947918Y-76081662D01*
X156858595Y-75906356D01*
X156742944Y-75747178D01*
X156603822Y-75608056D01*
X156450028Y-75496317D01*
X156407363Y-75440987D01*
X156401384Y-75371373D01*
X156433990Y-75309578D01*
X156494829Y-75275221D01*
X156522913Y-75271999D01*
X156587372Y-75271999D01*
X156646983Y-75265591D01*
X156781831Y-75215296D01*
X156897046Y-75129046D01*
X156983296Y-75013831D01*
X157033591Y-74878983D01*
X157040000Y-74819373D01*
X157039999Y-73223628D01*
X157033591Y-73164017D01*
X156983296Y-73029169D01*
X156983295Y-73029168D01*
X156983293Y-73029164D01*
X156897047Y-72913955D01*
X156897044Y-72913952D01*
X156781835Y-72827706D01*
X156781828Y-72827702D01*
X156646982Y-72777408D01*
X156646983Y-72777408D01*
X156587383Y-72771001D01*
X156587381Y-72771000D01*
X156587373Y-72771000D01*
X156587364Y-72771000D01*
X153991629Y-72771000D01*
X153991623Y-72771001D01*
X153932016Y-72777408D01*
X153797171Y-72827702D01*
X153797164Y-72827706D01*
X153681955Y-72913952D01*
X153681952Y-72913955D01*
X153595706Y-73029164D01*
X153595702Y-73029171D01*
X153545408Y-73164017D01*
X153539001Y-73223616D01*
X153539001Y-73223623D01*
X153539000Y-73223635D01*
X153154500Y-73223635D01*
X153154500Y-67348713D01*
X160233500Y-67348713D01*
X160233500Y-67811287D01*
X160266754Y-68021243D01*
X160277722Y-68055000D01*
X160332444Y-68223414D01*
X160428951Y-68412820D01*
X160553890Y-68584786D01*
X160704213Y-68735109D01*
X160876179Y-68860048D01*
X160876181Y-68860049D01*
X160876184Y-68860051D01*
X161065588Y-68956557D01*
X161267757Y-69022246D01*
X161477713Y-69055500D01*
X161477714Y-69055500D01*
X161690286Y-69055500D01*
X161690287Y-69055500D01*
X161900243Y-69022246D01*
X162102412Y-68956557D01*
X162291816Y-68860051D01*
X162313789Y-68844086D01*
X162463786Y-68735109D01*
X162463788Y-68735106D01*
X162463792Y-68735104D01*
X162614104Y-68584792D01*
X162733683Y-68420204D01*
X162789011Y-68377540D01*
X162858624Y-68371561D01*
X162920420Y-68404166D01*
X162934313Y-68420199D01*
X162961552Y-68457690D01*
X163053896Y-68584792D01*
X163204213Y-68735109D01*
X163376179Y-68860048D01*
X163376181Y-68860049D01*
X163376184Y-68860051D01*
X163565588Y-68956557D01*
X163767757Y-69022246D01*
X163977713Y-69055500D01*
X163977714Y-69055500D01*
X164190286Y-69055500D01*
X164190287Y-69055500D01*
X164400243Y-69022246D01*
X164602412Y-68956557D01*
X164791816Y-68860051D01*
X164849141Y-68818402D01*
X164963784Y-68735110D01*
X164963784Y-68735109D01*
X164963792Y-68735104D01*
X165102967Y-68595928D01*
X165164286Y-68562446D01*
X165233978Y-68567430D01*
X165289912Y-68609301D01*
X165296184Y-68618515D01*
X165391684Y-68773345D01*
X165515654Y-68897315D01*
X165664875Y-68989356D01*
X165664880Y-68989358D01*
X165831302Y-69044505D01*
X165831309Y-69044506D01*
X165934019Y-69054999D01*
X166333999Y-69054999D01*
X166334000Y-69054998D01*
X166334000Y-67984145D01*
X166400657Y-68022630D01*
X166521465Y-68055000D01*
X166646535Y-68055000D01*
X166767343Y-68022630D01*
X166834000Y-67984145D01*
X166834000Y-69054999D01*
X167233972Y-69054999D01*
X167233986Y-69054998D01*
X167336697Y-69044505D01*
X167503119Y-68989358D01*
X167503124Y-68989356D01*
X167652345Y-68897315D01*
X167776315Y-68773345D01*
X167868356Y-68624124D01*
X167868358Y-68624119D01*
X167923505Y-68457697D01*
X167923506Y-68457690D01*
X167933999Y-68354986D01*
X167934000Y-68354973D01*
X167934000Y-67830000D01*
X166988146Y-67830000D01*
X167026630Y-67763343D01*
X167059000Y-67642535D01*
X167059000Y-67517465D01*
X167026630Y-67396657D01*
X166988146Y-67330000D01*
X167933999Y-67330000D01*
X167933999Y-66805028D01*
X167933998Y-66805013D01*
X167923505Y-66702302D01*
X167868358Y-66535880D01*
X167868356Y-66535875D01*
X167776315Y-66386654D01*
X167652345Y-66262684D01*
X167503124Y-66170643D01*
X167503119Y-66170641D01*
X167336697Y-66115494D01*
X167336690Y-66115493D01*
X167233986Y-66105000D01*
X166834000Y-66105000D01*
X166834000Y-67175854D01*
X166767343Y-67137370D01*
X166646535Y-67105000D01*
X166521465Y-67105000D01*
X166400657Y-67137370D01*
X166334000Y-67175854D01*
X166334000Y-66105000D01*
X165934028Y-66105000D01*
X165934012Y-66105001D01*
X165831302Y-66115494D01*
X165664880Y-66170641D01*
X165664875Y-66170643D01*
X165515654Y-66262684D01*
X165391683Y-66386655D01*
X165391680Y-66386659D01*
X165296183Y-66541484D01*
X165244235Y-66588209D01*
X165175273Y-66599430D01*
X165111191Y-66571587D01*
X165102964Y-66564068D01*
X164963786Y-66424890D01*
X164791820Y-66299951D01*
X164602414Y-66203444D01*
X164602413Y-66203443D01*
X164602412Y-66203443D01*
X164400243Y-66137754D01*
X164400241Y-66137753D01*
X164400240Y-66137753D01*
X164238957Y-66112208D01*
X164190287Y-66104500D01*
X163977713Y-66104500D01*
X163929042Y-66112208D01*
X163767760Y-66137753D01*
X163565585Y-66203444D01*
X163376179Y-66299951D01*
X163204213Y-66424890D01*
X163053894Y-66575209D01*
X163053890Y-66575214D01*
X162934318Y-66739793D01*
X162878989Y-66782459D01*
X162809375Y-66788438D01*
X162747580Y-66755833D01*
X162733682Y-66739793D01*
X162614109Y-66575214D01*
X162614105Y-66575209D01*
X162463786Y-66424890D01*
X162291820Y-66299951D01*
X162102414Y-66203444D01*
X162102413Y-66203443D01*
X162102412Y-66203443D01*
X161900243Y-66137754D01*
X161900241Y-66137753D01*
X161900240Y-66137753D01*
X161738957Y-66112208D01*
X161690287Y-66104500D01*
X161477713Y-66104500D01*
X161429042Y-66112208D01*
X161267760Y-66137753D01*
X161065585Y-66203444D01*
X160876179Y-66299951D01*
X160704213Y-66424890D01*
X160553890Y-66575213D01*
X160428951Y-66747179D01*
X160332444Y-66936585D01*
X160266753Y-67138760D01*
X160257069Y-67199905D01*
X160233500Y-67348713D01*
X153154500Y-67348713D01*
X153154500Y-58813209D01*
X153156880Y-58789033D01*
X153159926Y-58773718D01*
X153178425Y-58729044D01*
X153180184Y-58726411D01*
X153214411Y-58692184D01*
X153217044Y-58690425D01*
X153261720Y-58671925D01*
X153277031Y-58668880D01*
X153301210Y-58666500D01*
X153354892Y-58666500D01*
X173543108Y-58666500D01*
X173596790Y-58666500D01*
X173620967Y-58668880D01*
G37*
%TD.AperFunction*%
%TD*%
M02*
