%TF.GenerationSoftware,KiCad,Pcbnew,10.0.5-10.0.5~ubuntu24.04.1*%
%TF.CreationDate,2026-08-23T00:23:05-04:00*%
%TF.ProjectId,LG_HVAC_Controller,4c475f48-5641-4435-9f43-6f6e74726f6c,rev?*%
%TF.SameCoordinates,Original*%
%TF.FileFunction,Copper,L1,Top*%
%TF.FilePolarity,Positive*%
%FSLAX46Y46*%
G04 Gerber Fmt 4.6, Leading zero omitted, Abs format (unit mm)*
G04 Created by KiCad (PCBNEW 10.0.5-10.0.5~ubuntu24.04.1) date 2026-08-23 00:23:05*
%MOMM*%
%LPD*%
G01*
G04 APERTURE LIST*
G04 Aperture macros list*
%AMRoundRect*
0 Rectangle with rounded corners*
0 $1 Rounding radius*
0 $2 $3 $4 $5 $6 $7 $8 $9 X,Y pos of 4 corners*
0 Add a 4 corners polygon primitive as box body*
4,1,4,$2,$3,$4,$5,$6,$7,$8,$9,$2,$3,0*
0 Add four circle primitives for the rounded corners*
1,1,$1+$1,$2,$3*
1,1,$1+$1,$4,$5*
1,1,$1+$1,$6,$7*
1,1,$1+$1,$8,$9*
0 Add four rect primitives between the rounded corners*
20,1,$1+$1,$2,$3,$4,$5,0*
20,1,$1+$1,$4,$5,$6,$7,0*
20,1,$1+$1,$6,$7,$8,$9,0*
20,1,$1+$1,$8,$9,$2,$3,0*%
G04 Aperture macros list end*
%TA.AperFunction,Conductor*%
%ADD10C,0.254000*%
%TD*%
%TA.AperFunction,SMDPad,CuDef*%
%ADD11O,0.549999X1.250000*%
%TD*%
%TA.AperFunction,SMDPad,CuDef*%
%ADD12RoundRect,0.250000X-0.350000X-0.450000X0.350000X-0.450000X0.350000X0.450000X-0.350000X0.450000X0*%
%TD*%
%TA.AperFunction,SMDPad,CuDef*%
%ADD13RoundRect,0.250000X0.650000X-1.500000X0.650000X1.500000X-0.650000X1.500000X-0.650000X-1.500000X0*%
%TD*%
%TA.AperFunction,SMDPad,CuDef*%
%ADD14RoundRect,0.250000X0.337500X0.475000X-0.337500X0.475000X-0.337500X-0.475000X0.337500X-0.475000X0*%
%TD*%
%TA.AperFunction,SMDPad,CuDef*%
%ADD15RoundRect,0.250000X-1.100000X0.412500X-1.100000X-0.412500X1.100000X-0.412500X1.100000X0.412500X0*%
%TD*%
%TA.AperFunction,SMDPad,CuDef*%
%ADD16RoundRect,0.250000X1.100000X-0.412500X1.100000X0.412500X-1.100000X0.412500X-1.100000X-0.412500X0*%
%TD*%
%TA.AperFunction,ComponentPad*%
%ADD17RoundRect,0.250000X0.600000X0.725000X-0.600000X0.725000X-0.600000X-0.725000X0.600000X-0.725000X0*%
%TD*%
%TA.AperFunction,ComponentPad*%
%ADD18O,1.700000X1.950000*%
%TD*%
%TA.AperFunction,SMDPad,CuDef*%
%ADD19RoundRect,0.225000X-0.375000X0.225000X-0.375000X-0.225000X0.375000X-0.225000X0.375000X0.225000X0*%
%TD*%
%TA.AperFunction,SMDPad,CuDef*%
%ADD20RoundRect,0.225000X0.375000X-0.225000X0.375000X0.225000X-0.375000X0.225000X-0.375000X-0.225000X0*%
%TD*%
%TA.AperFunction,SMDPad,CuDef*%
%ADD21RoundRect,0.250000X-0.337500X-0.475000X0.337500X-0.475000X0.337500X0.475000X-0.337500X0.475000X0*%
%TD*%
%TA.AperFunction,SMDPad,CuDef*%
%ADD22RoundRect,0.250000X0.350000X0.450000X-0.350000X0.450000X-0.350000X-0.450000X0.350000X-0.450000X0*%
%TD*%
%TA.AperFunction,ComponentPad*%
%ADD23R,2.500000X1.500000*%
%TD*%
%TA.AperFunction,ComponentPad*%
%ADD24O,2.500000X1.500000*%
%TD*%
%TA.AperFunction,SMDPad,CuDef*%
%ADD25RoundRect,0.500000X0.500000X-0.875000X0.500000X0.875000X-0.500000X0.875000X-0.500000X-0.875000X0*%
%TD*%
%TA.AperFunction,SMDPad,CuDef*%
%ADD26C,1.700000*%
%TD*%
%TA.AperFunction,SMDPad,CuDef*%
%ADD27RoundRect,0.275000X-0.275000X0.975000X-0.275000X-0.975000X0.275000X-0.975000X0.275000X0.975000X0*%
%TD*%
%TA.AperFunction,SMDPad,CuDef*%
%ADD28RoundRect,0.250000X-0.475000X0.337500X-0.475000X-0.337500X0.475000X-0.337500X0.475000X0.337500X0*%
%TD*%
%TA.AperFunction,SMDPad,CuDef*%
%ADD29RoundRect,0.250000X-0.450000X0.350000X-0.450000X-0.350000X0.450000X-0.350000X0.450000X0.350000X0*%
%TD*%
%TA.AperFunction,ViaPad*%
%ADD30C,0.600000*%
%TD*%
%TA.AperFunction,Conductor*%
%ADD31C,0.508000*%
%TD*%
%TA.AperFunction,Conductor*%
%ADD32C,1.270000*%
%TD*%
%TA.AperFunction,Conductor*%
%ADD33C,0.762000*%
%TD*%
%TA.AperFunction,Conductor*%
%ADD34C,0.635000*%
%TD*%
G04 APERTURE END LIST*
%TO.N,GND*%
D10*
X164655500Y-75819000D02*
X165227000Y-75819000D01*
X165227000Y-79629000D01*
X164655500Y-79629000D01*
X164655500Y-75819000D01*
%TA.AperFunction,Conductor*%
G36*
X164655500Y-75819000D02*
G01*
X165227000Y-75819000D01*
X165227000Y-79629000D01*
X164655500Y-79629000D01*
X164655500Y-75819000D01*
G37*
%TD.AperFunction*%
%TD*%
D11*
%TO.P,U3,1,RXD_1*%
%TO.N,/RXD*%
X166751000Y-81313000D03*
%TO.P,U3,2,EN_2*%
%TO.N,+3V3*%
X168021000Y-81313000D03*
%TO.P,U3,3,NC_3*%
%TO.N,unconnected-(U3-NC-Pad3)*%
X169291000Y-81313000D03*
%TO.P,U3,4,TXD_4*%
%TO.N,/TXD*%
X170561000Y-81313000D03*
%TO.P,U3,5,GND_5*%
%TO.N,GND*%
X170561000Y-75913000D03*
%TO.P,U3,6,LIN_6*%
%TO.N,/LINBUS*%
X169291000Y-75913000D03*
%TO.P,U3,7,VSUP_7*%
%TO.N,+12V*%
X168021000Y-75913000D03*
%TO.P,U3,8,NC_8*%
%TO.N,unconnected-(U3-NC-Pad8)*%
X166751000Y-75913000D03*
%TD*%
D12*
%TO.P,R3,1*%
%TO.N,+3V3*%
X170577000Y-83312000D03*
%TO.P,R3,2*%
%TO.N,/TXD*%
X172577000Y-83312000D03*
%TD*%
D13*
%TO.P,D3,1,A1_1*%
%TO.N,/+12V_IN*%
X156845000Y-67524000D03*
%TO.P,D3,2,A2_2*%
%TO.N,GND*%
X156845000Y-62524000D03*
%TD*%
D14*
%TO.P,C8,1*%
%TO.N,GND*%
X170328500Y-73914000D03*
%TO.P,C8,2*%
%TO.N,+12V*%
X168253500Y-73914000D03*
%TD*%
%TO.P,C7,1*%
%TO.N,GND*%
X164232500Y-71501000D03*
%TO.P,C7,2*%
%TO.N,+12V*%
X162157500Y-71501000D03*
%TD*%
%TO.P,C6,1*%
%TO.N,+3V3*%
X161184500Y-83693000D03*
%TO.P,C6,2*%
%TO.N,GND*%
X159109500Y-83693000D03*
%TD*%
%TO.P,C5,1*%
%TO.N,GND*%
X157374500Y-83693000D03*
%TO.P,C5,2*%
%TO.N,+5V*%
X155299500Y-83693000D03*
%TD*%
D15*
%TO.P,C4,1*%
%TO.N,GND*%
X162941000Y-78574500D03*
%TO.P,C4,2*%
%TO.N,+5V*%
X162941000Y-81699500D03*
%TD*%
D16*
%TO.P,C3,1*%
%TO.N,GND*%
X162941000Y-76619500D03*
%TO.P,C3,2*%
%TO.N,+12V*%
X162941000Y-73494500D03*
%TD*%
D17*
%TO.P,J1,1,Pin_1_1*%
%TO.N,GND*%
X166584000Y-67580000D03*
D18*
%TO.P,J1,2,Pin_2_2*%
%TO.N,/LINBUS*%
X164084000Y-67580000D03*
%TO.P,J1,3,Pin_3_3*%
%TO.N,/+12V_IN*%
X161584000Y-67580000D03*
%TD*%
D19*
%TO.P,D2,1,K_1*%
%TO.N,Net-(D2-K)*%
X170815000Y-66168000D03*
%TO.P,D2,2,A_2*%
%TO.N,+12V*%
X170815000Y-69468000D03*
%TD*%
D20*
%TO.P,D1,1,K_1*%
%TO.N,+12V*%
X153924000Y-68833000D03*
%TO.P,D1,2,A_2*%
%TO.N,/+12V_IN*%
X153924000Y-65533000D03*
%TD*%
D21*
%TO.P,C2,1*%
%TO.N,+12V*%
X168253500Y-71628000D03*
%TO.P,C2,2*%
%TO.N,GND*%
X170328500Y-71628000D03*
%TD*%
D22*
%TO.P,R1,1*%
%TO.N,+3V3*%
X168767000Y-83312000D03*
%TO.P,R1,2*%
%TO.N,/RXD*%
X166767000Y-83312000D03*
%TD*%
D23*
%TO.P,U2,1,Vin_1*%
%TO.N,+12V*%
X155289500Y-74021500D03*
D24*
%TO.P,U2,2,GND_2*%
%TO.N,GND*%
X155289500Y-76561500D03*
%TO.P,U2,3,Vout_3*%
%TO.N,+5V*%
X155289500Y-79101500D03*
%TD*%
D25*
%TO.P,U1,1,D0_1*%
%TO.N,unconnected-(U1-D0-Pad1)*%
X155702000Y-102271000D03*
%TO.P,U1,2,D1_2*%
%TO.N,unconnected-(U1-D1-Pad2)*%
X158242000Y-102271000D03*
%TO.P,U1,3,D2_3*%
%TO.N,unconnected-(U1-D2-Pad3)*%
X160782000Y-102271000D03*
%TO.P,U1,4,D3_4*%
%TO.N,unconnected-(U1-D3-Pad4)*%
X163322000Y-102271000D03*
%TO.P,U1,5,D4_5*%
%TO.N,unconnected-(U1-D4-Pad5)*%
X165862000Y-102271000D03*
%TO.P,U1,6,D5_6*%
%TO.N,unconnected-(U1-D5-Pad6)*%
X168402000Y-102271000D03*
%TO.P,U1,7,D6_7*%
%TO.N,/TXD*%
X170942000Y-102271000D03*
%TO.P,U1,8,D7_8*%
%TO.N,/RXD*%
X170942000Y-86106000D03*
%TO.P,U1,9,D8_9*%
%TO.N,unconnected-(U1-D8-Pad9)*%
X168402000Y-86106000D03*
%TO.P,U1,10,D9/BOOT_10*%
%TO.N,unconnected-(U1-D9{slash}BOOT-Pad10)*%
X165862000Y-86106000D03*
%TO.P,U1,11,D10_11*%
%TO.N,unconnected-(U1-D10-Pad11)*%
X163322000Y-86106000D03*
%TO.P,U1,12,3V3_OUT_12*%
%TO.N,+3V3*%
X160782000Y-86106000D03*
%TO.P,U1,13,GND_13*%
%TO.N,GND*%
X158242000Y-86106000D03*
%TO.P,U1,14,VBUS_14*%
%TO.N,+5V*%
X155702000Y-86106000D03*
D26*
%TO.P,U1,15,D3/MTDI_15*%
%TO.N,unconnected-(U1-D3{slash}MTDI-Pad15)*%
X154690000Y-95486000D03*
%TO.P,U1,16,D5/MTDO_16*%
%TO.N,unconnected-(U1-D5{slash}MTDO-Pad16)*%
X154690000Y-92946000D03*
%TO.P,U1,17,EN_17*%
%TO.N,unconnected-(U1-EN-Pad17)*%
X157230000Y-95486000D03*
%TO.P,U1,18,GND_18*%
%TO.N,unconnected-(U1-GND-Pad18)*%
X157230000Y-92946000D03*
%TO.P,U1,19,D2/MTMS_19*%
%TO.N,unconnected-(U1-D2{slash}MTMS-Pad19)*%
X159770000Y-95486000D03*
%TO.P,U1,20,D4/MTCK_20*%
%TO.N,unconnected-(U1-D4{slash}MTCK-Pad20)*%
X159770000Y-92946000D03*
D27*
%TO.P,U1,21,VBAT_21*%
%TO.N,unconnected-(U1-VBAT-Pad21)*%
X162940000Y-98661000D03*
%TO.P,U1,22,GND_22*%
%TO.N,unconnected-(U1-GND-Pad22)*%
X161035000Y-98661000D03*
%TD*%
D28*
%TO.P,C1,1*%
%TO.N,/LINBUS*%
X172466000Y-75289500D03*
%TO.P,C1,2*%
%TO.N,GND*%
X172466000Y-77364500D03*
%TD*%
D29*
%TO.P,R2,1*%
%TO.N,Net-(D2-K)*%
X172466000Y-71390000D03*
%TO.P,R2,2*%
%TO.N,/LINBUS*%
X172466000Y-73390000D03*
%TD*%
D30*
%TO.N,GND*%
X157099000Y-81026000D03*
X168529000Y-67691000D03*
X170434000Y-63246000D03*
X172974000Y-59436000D03*
X168529000Y-59436000D03*
X159639000Y-65786000D03*
X153924000Y-63246000D03*
X159639000Y-59436000D03*
X153924000Y-59436000D03*
X169164000Y-99441000D03*
X169164000Y-88646000D03*
X153924000Y-100076000D03*
X159004000Y-97536000D03*
X161544000Y-96266000D03*
X161544000Y-91186000D03*
X153924000Y-91186000D03*
X153924000Y-88011000D03*
X153924000Y-81661000D03*
X172974000Y-80391000D03*
X173444000Y-84836000D03*
X172974000Y-89916000D03*
X172974000Y-94361000D03*
X172974000Y-98806000D03*
X172974000Y-103251000D03*
X172466000Y-78486000D03*
X170307000Y-70485000D03*
X165100000Y-78613000D03*
X165100000Y-76581000D03*
X165481000Y-71501000D03*
X158750000Y-88138000D03*
X157734000Y-88138000D03*
%TD*%
%TO.N,GND*%
D31*
X157374500Y-83693000D02*
X157607000Y-83925500D01*
X157607000Y-83925500D02*
X157607000Y-85471000D01*
X157607000Y-85471000D02*
X158242000Y-86106000D01*
X159109500Y-83693000D02*
X158877000Y-83925500D01*
X158877000Y-83925500D02*
X158877000Y-85471000D01*
X158877000Y-85471000D02*
X158242000Y-86106000D01*
X157374500Y-83693000D02*
X159109500Y-83693000D01*
D32*
X158242000Y-86106000D02*
X158242000Y-88900000D01*
%TO.N,+12V*%
D33*
X153924000Y-68833000D02*
X153924000Y-70866000D01*
X153924000Y-70866000D02*
X155289500Y-72231500D01*
X155289500Y-72231500D02*
X155289500Y-74021500D01*
%TO.N,+5V*%
X162941000Y-81699500D02*
X160312500Y-81699500D01*
X160312500Y-81699500D02*
X157714500Y-79101500D01*
X157714500Y-79101500D02*
X155289500Y-79101500D01*
%TO.N,GND*%
D32*
X166584000Y-67580000D02*
X166584000Y-63968000D01*
X166584000Y-63968000D02*
X165140000Y-62524000D01*
X165140000Y-62524000D02*
X156845000Y-62524000D01*
%TO.N,Net-(D2-K)*%
D10*
X170815000Y-66168000D02*
X170943000Y-66168000D01*
X172720000Y-67945000D02*
X172720000Y-71136000D01*
X170943000Y-66168000D02*
X172720000Y-67945000D01*
X172720000Y-71136000D02*
X172466000Y-71390000D01*
%TO.N,/TXD*%
X172577000Y-83312000D02*
X172577000Y-87646000D01*
X172577000Y-87646000D02*
X170942000Y-89281000D01*
X170942000Y-89281000D02*
X170942000Y-102271000D01*
%TO.N,/RXD*%
X166767000Y-83312000D02*
X166767000Y-83455000D01*
X166767000Y-83455000D02*
X167651000Y-84339000D01*
X167651000Y-84339000D02*
X169556000Y-84339000D01*
X169556000Y-84339000D02*
X170942000Y-85725000D01*
X170942000Y-85725000D02*
X170942000Y-86106000D01*
%TO.N,+3V3*%
D31*
X168021000Y-81313000D02*
X168021000Y-80645000D01*
X168021000Y-80645000D02*
X167513000Y-80137000D01*
X167513000Y-80137000D02*
X165989000Y-80137000D01*
X164719000Y-83693000D02*
X161184500Y-83693000D01*
X165989000Y-80137000D02*
X165481000Y-80645000D01*
X165481000Y-80645000D02*
X165481000Y-82931000D01*
X165481000Y-82931000D02*
X164719000Y-83693000D01*
%TO.N,/TXD*%
D10*
X170561000Y-81313000D02*
X170561000Y-81661000D01*
X170561000Y-81661000D02*
X170942000Y-82042000D01*
X170942000Y-82042000D02*
X171450000Y-82042000D01*
X171450000Y-82042000D02*
X172577000Y-83169000D01*
X172577000Y-83169000D02*
X172577000Y-83312000D01*
%TO.N,+3V3*%
D31*
X170577000Y-83312000D02*
X168767000Y-83312000D01*
X168021000Y-81313000D02*
X168021000Y-82566000D01*
X168021000Y-82566000D02*
X168767000Y-83312000D01*
%TO.N,/RXD*%
D10*
X166751000Y-81313000D02*
X166751000Y-83296000D01*
X166751000Y-83296000D02*
X166767000Y-83312000D01*
%TO.N,GND*%
D31*
X172466000Y-78486000D02*
X172466000Y-77364500D01*
%TO.N,+12V*%
X168253500Y-71628000D02*
X168253500Y-73914000D01*
X168021000Y-75913000D02*
X168021000Y-75057000D01*
X168021000Y-75057000D02*
X168253500Y-74824500D01*
X168253500Y-74824500D02*
X168253500Y-73914000D01*
%TO.N,GND*%
X170561000Y-75438000D02*
X170328500Y-75205500D01*
X170328500Y-75205500D02*
X170328500Y-73914000D01*
X170561000Y-75913000D02*
X170561000Y-75438000D01*
X170328500Y-71628000D02*
X170328500Y-73914000D01*
X170307000Y-70485000D02*
X170307000Y-71606500D01*
X170307000Y-71606500D02*
X170328500Y-71628000D01*
X164232500Y-71501000D02*
X165481000Y-71501000D01*
%TO.N,+12V*%
X168253500Y-71628000D02*
X168253500Y-70506500D01*
X168253500Y-70506500D02*
X168529000Y-70231000D01*
X168529000Y-70231000D02*
X169291000Y-70231000D01*
X169291000Y-70231000D02*
X170054000Y-69468000D01*
X170054000Y-69468000D02*
X170815000Y-69468000D01*
%TO.N,/LINBUS*%
D10*
X164084000Y-67580000D02*
X164084000Y-68961000D01*
X164084000Y-68961000D02*
X164465000Y-69342000D01*
X164465000Y-69342000D02*
X168910000Y-69342000D01*
X169799000Y-68453000D02*
X171577000Y-68453000D01*
X168910000Y-69342000D02*
X169799000Y-68453000D01*
X172085000Y-69977000D02*
X171323000Y-70739000D01*
X171577000Y-68453000D02*
X172085000Y-68961000D01*
X172085000Y-68961000D02*
X172085000Y-69977000D01*
X171323000Y-70739000D02*
X171323000Y-72247000D01*
X171323000Y-72247000D02*
X172466000Y-73390000D01*
X172466000Y-75289500D02*
X172466000Y-75438000D01*
X172466000Y-75438000D02*
X170942000Y-76962000D01*
X170942000Y-76962000D02*
X169545000Y-76962000D01*
X169545000Y-76962000D02*
X169291000Y-76708000D01*
X169291000Y-76708000D02*
X169291000Y-75913000D01*
X172466000Y-73390000D02*
X172466000Y-75289500D01*
%TO.N,+3V3*%
D33*
X161184500Y-83693000D02*
X161184500Y-85703500D01*
D31*
X161184500Y-85703500D02*
X160782000Y-86106000D01*
%TO.N,+5V*%
D33*
X155299500Y-83693000D02*
X155299500Y-79111500D01*
X155299500Y-79111500D02*
X155289500Y-79101500D01*
X155299500Y-83693000D02*
X155299500Y-85703500D01*
D31*
X155299500Y-85703500D02*
X155702000Y-86106000D01*
%TO.N,+12V*%
D33*
X154787500Y-74021500D02*
X155289500Y-74021500D01*
%TO.N,/+12V_IN*%
D34*
X155703000Y-65533000D02*
X156901000Y-66731000D01*
X153924000Y-65533000D02*
X155703000Y-65533000D01*
D31*
X156901000Y-66731000D02*
X156901000Y-67580000D01*
D32*
X161584000Y-67580000D02*
X156901000Y-67580000D01*
D31*
X156901000Y-67580000D02*
X156845000Y-67524000D01*
%TD*%
%TA.AperFunction,Conductor*%
%TO.N,+12V*%
G36*
X155376791Y-66379002D02*
G01*
X155397765Y-66395905D01*
X155399595Y-66397735D01*
X155433621Y-66460047D01*
X155436500Y-66486830D01*
X155436500Y-69074544D01*
X155447112Y-69178425D01*
X155502885Y-69346738D01*
X155595970Y-69497652D01*
X155595975Y-69497658D01*
X155721341Y-69623024D01*
X155721347Y-69623029D01*
X155721348Y-69623030D01*
X155872262Y-69716115D01*
X156040574Y-69771887D01*
X156144455Y-69782500D01*
X157545544Y-69782499D01*
X157649426Y-69771887D01*
X157817738Y-69716115D01*
X157968652Y-69623030D01*
X158094030Y-69497652D01*
X158187115Y-69346738D01*
X158242887Y-69178426D01*
X158247435Y-69133905D01*
X158253500Y-69074553D01*
X158253500Y-68849500D01*
X158273502Y-68781379D01*
X158327158Y-68734886D01*
X158379500Y-68723500D01*
X160633686Y-68723500D01*
X160701807Y-68743502D01*
X160707747Y-68747564D01*
X160871991Y-68866894D01*
X161062517Y-68963972D01*
X161265878Y-69030047D01*
X161265879Y-69030047D01*
X161265884Y-69030049D01*
X161477084Y-69063500D01*
X161477087Y-69063500D01*
X161690913Y-69063500D01*
X161690916Y-69063500D01*
X161902116Y-69030049D01*
X162105483Y-68963972D01*
X162296009Y-68866894D01*
X162469004Y-68741206D01*
X162620206Y-68590004D01*
X162732064Y-68436043D01*
X162788286Y-68392690D01*
X162859022Y-68386615D01*
X162921814Y-68419746D01*
X162935934Y-68436041D01*
X163047794Y-68590004D01*
X163047796Y-68590006D01*
X163047798Y-68590009D01*
X163198990Y-68741201D01*
X163198993Y-68741203D01*
X163198996Y-68741206D01*
X163371991Y-68866894D01*
X163379697Y-68870820D01*
X163431314Y-68919563D01*
X163448500Y-68983089D01*
X163448500Y-69023593D01*
X163472922Y-69146369D01*
X163520827Y-69262022D01*
X163590375Y-69366108D01*
X163971375Y-69747108D01*
X164059892Y-69835625D01*
X164163978Y-69905173D01*
X164279631Y-69953078D01*
X164402409Y-69977500D01*
X164402410Y-69977500D01*
X168972590Y-69977500D01*
X168972591Y-69977500D01*
X169090315Y-69954083D01*
X169161028Y-69960411D01*
X169217096Y-70003965D01*
X169235470Y-70041086D01*
X169267875Y-70147911D01*
X169272694Y-70172137D01*
X169290393Y-70351836D01*
X169291000Y-70364186D01*
X169291000Y-70476835D01*
X169270998Y-70544956D01*
X169217342Y-70591449D01*
X169147068Y-70601553D01*
X169082488Y-70572059D01*
X169075905Y-70565930D01*
X169064345Y-70554370D01*
X169064339Y-70554365D01*
X168913525Y-70461342D01*
X168745321Y-70405606D01*
X168745318Y-70405605D01*
X168641516Y-70395000D01*
X168507500Y-70395000D01*
X168507500Y-75153000D01*
X168487498Y-75221121D01*
X168433842Y-75267614D01*
X168381500Y-75279000D01*
X168275000Y-75279000D01*
X168275000Y-75565000D01*
X167767000Y-75565000D01*
X167767000Y-74774000D01*
X167787002Y-74705879D01*
X167840658Y-74659386D01*
X167893000Y-74648000D01*
X167999500Y-74648000D01*
X167999500Y-74168000D01*
X167158000Y-74168000D01*
X167158000Y-74439516D01*
X167168605Y-74543318D01*
X167168606Y-74543322D01*
X167214329Y-74681306D01*
X167216769Y-74752261D01*
X167180461Y-74813271D01*
X167116932Y-74844966D01*
X167046506Y-74837348D01*
X166979543Y-74809611D01*
X166979538Y-74809609D01*
X166828170Y-74779500D01*
X166828168Y-74779500D01*
X166673832Y-74779500D01*
X166673829Y-74779500D01*
X166522461Y-74809609D01*
X166522456Y-74809611D01*
X166379874Y-74868670D01*
X166251545Y-74954418D01*
X166142419Y-75063544D01*
X166056671Y-75191873D01*
X165997612Y-75334455D01*
X165997611Y-75334458D01*
X165981238Y-75416768D01*
X165948330Y-75479677D01*
X165886634Y-75514808D01*
X165815740Y-75511007D01*
X165758154Y-75469481D01*
X165752906Y-75462204D01*
X165720625Y-75413892D01*
X165632108Y-75325375D01*
X165528022Y-75255827D01*
X165444234Y-75221121D01*
X165412374Y-75207924D01*
X165412369Y-75207922D01*
X165289593Y-75183500D01*
X165289591Y-75183500D01*
X164718091Y-75183500D01*
X164592909Y-75183500D01*
X164592906Y-75183500D01*
X164470130Y-75207922D01*
X164470125Y-75207924D01*
X164354477Y-75255827D01*
X164250396Y-75325372D01*
X164250394Y-75325373D01*
X164164171Y-75411596D01*
X164101859Y-75445621D01*
X164075076Y-75448500D01*
X161790455Y-75448500D01*
X161686574Y-75459112D01*
X161518259Y-75514886D01*
X161467425Y-75546241D01*
X161401279Y-75565000D01*
X156599964Y-75565000D01*
X156531843Y-75544998D01*
X156525903Y-75540936D01*
X156479794Y-75507436D01*
X156436440Y-75451214D01*
X156430365Y-75380478D01*
X156463496Y-75317686D01*
X156525316Y-75282775D01*
X156553855Y-75279500D01*
X156588085Y-75279500D01*
X156588097Y-75279499D01*
X156648593Y-75272994D01*
X156785464Y-75221944D01*
X156785465Y-75221944D01*
X156902404Y-75134404D01*
X156989944Y-75017465D01*
X156989944Y-75017464D01*
X157040994Y-74880593D01*
X157047499Y-74820097D01*
X157047500Y-74820085D01*
X157047500Y-74275500D01*
X155720203Y-74275500D01*
X155755425Y-74214493D01*
X155789500Y-74087326D01*
X155789500Y-73957516D01*
X161083000Y-73957516D01*
X161093605Y-74061318D01*
X161093606Y-74061321D01*
X161149342Y-74229525D01*
X161242365Y-74380339D01*
X161242370Y-74380345D01*
X161367654Y-74505629D01*
X161367660Y-74505634D01*
X161518474Y-74598657D01*
X161686678Y-74654393D01*
X161686681Y-74654394D01*
X161790483Y-74664999D01*
X161790483Y-74665000D01*
X162687000Y-74665000D01*
X163195000Y-74665000D01*
X164091517Y-74665000D01*
X164091516Y-74664999D01*
X164195318Y-74654394D01*
X164195321Y-74654393D01*
X164363525Y-74598657D01*
X164514339Y-74505634D01*
X164514345Y-74505629D01*
X164639629Y-74380345D01*
X164639634Y-74380339D01*
X164732657Y-74229525D01*
X164788393Y-74061321D01*
X164788394Y-74061318D01*
X164798999Y-73957516D01*
X164799000Y-73957516D01*
X164799000Y-73748500D01*
X163195000Y-73748500D01*
X163195000Y-74665000D01*
X162687000Y-74665000D01*
X162687000Y-73748500D01*
X161083000Y-73748500D01*
X161083000Y-73957516D01*
X155789500Y-73957516D01*
X155789500Y-73955674D01*
X155755425Y-73828507D01*
X155720203Y-73767500D01*
X157047500Y-73767500D01*
X157047500Y-73222914D01*
X157047499Y-73222902D01*
X157040994Y-73162406D01*
X156989944Y-73025535D01*
X156989944Y-73025534D01*
X156902404Y-72908595D01*
X156785465Y-72821055D01*
X156648593Y-72770005D01*
X156588097Y-72763500D01*
X155543500Y-72763500D01*
X155543500Y-73590797D01*
X155482493Y-73555575D01*
X155355326Y-73521500D01*
X155223674Y-73521500D01*
X155096507Y-73555575D01*
X155035500Y-73590797D01*
X155035500Y-72763500D01*
X153990902Y-72763500D01*
X153930406Y-72770005D01*
X153793535Y-72821055D01*
X153793534Y-72821055D01*
X153676595Y-72908595D01*
X153589055Y-73025534D01*
X153589055Y-73025535D01*
X153538005Y-73162406D01*
X153531500Y-73222902D01*
X153531500Y-73767500D01*
X154858797Y-73767500D01*
X154823575Y-73828507D01*
X154789500Y-73955674D01*
X154789500Y-74087326D01*
X154823575Y-74214493D01*
X154858797Y-74275500D01*
X153531500Y-74275500D01*
X153531500Y-74820097D01*
X153538005Y-74880593D01*
X153589055Y-75017464D01*
X153589055Y-75017465D01*
X153676595Y-75134404D01*
X153793534Y-75221944D01*
X153930406Y-75272994D01*
X153990902Y-75279499D01*
X153990915Y-75279500D01*
X154025145Y-75279500D01*
X154093266Y-75299502D01*
X154139759Y-75353158D01*
X154149863Y-75423432D01*
X154120369Y-75488012D01*
X154099206Y-75507436D01*
X154053097Y-75540936D01*
X153986229Y-75564795D01*
X153979036Y-75565000D01*
X153676187Y-75565000D01*
X153663837Y-75564393D01*
X153484137Y-75546694D01*
X153459911Y-75541875D01*
X153293071Y-75491264D01*
X153270250Y-75481812D01*
X153221103Y-75455542D01*
X153170455Y-75405789D01*
X153154500Y-75344420D01*
X153154500Y-71755000D01*
X161062000Y-71755000D01*
X161062000Y-72026516D01*
X161072605Y-72130318D01*
X161072606Y-72130321D01*
X161128342Y-72298525D01*
X161221365Y-72449339D01*
X161221370Y-72449345D01*
X161224686Y-72452661D01*
X161258712Y-72514973D01*
X161253647Y-72585788D01*
X161242832Y-72607902D01*
X161149343Y-72759472D01*
X161093606Y-72927678D01*
X161093605Y-72927681D01*
X161083000Y-73031483D01*
X161083000Y-73240500D01*
X164799000Y-73240500D01*
X164799000Y-73031483D01*
X164788394Y-72927681D01*
X164788392Y-72927672D01*
X164760850Y-72844556D01*
X164758409Y-72773601D01*
X164794717Y-72712591D01*
X164840820Y-72685318D01*
X164892738Y-72668115D01*
X165043652Y-72575030D01*
X165169030Y-72449652D01*
X165225462Y-72358160D01*
X165278245Y-72310684D01*
X165348320Y-72299281D01*
X165357261Y-72300726D01*
X165401370Y-72309500D01*
X165401371Y-72309500D01*
X165560629Y-72309500D01*
X165560630Y-72309500D01*
X165716831Y-72278430D01*
X165863968Y-72217483D01*
X165959702Y-72153516D01*
X167158000Y-72153516D01*
X167168605Y-72257318D01*
X167168606Y-72257321D01*
X167224342Y-72425525D01*
X167317365Y-72576339D01*
X167317370Y-72576345D01*
X167422930Y-72681905D01*
X167456956Y-72744217D01*
X167451891Y-72815032D01*
X167422930Y-72860095D01*
X167317370Y-72965654D01*
X167317365Y-72965660D01*
X167224342Y-73116474D01*
X167168606Y-73284678D01*
X167168605Y-73284681D01*
X167158000Y-73388483D01*
X167158000Y-73660000D01*
X167999500Y-73660000D01*
X167999500Y-71882000D01*
X167158000Y-71882000D01*
X167158000Y-72153516D01*
X165959702Y-72153516D01*
X165996389Y-72129003D01*
X166109003Y-72016389D01*
X166197483Y-71883968D01*
X166258430Y-71736831D01*
X166289500Y-71580630D01*
X166289500Y-71421370D01*
X166258430Y-71265169D01*
X166197483Y-71118032D01*
X166187094Y-71102483D01*
X167158000Y-71102483D01*
X167158000Y-71374000D01*
X167999500Y-71374000D01*
X167999500Y-70395000D01*
X167865483Y-70395000D01*
X167761681Y-70405605D01*
X167761678Y-70405606D01*
X167593474Y-70461342D01*
X167442660Y-70554365D01*
X167442654Y-70554370D01*
X167317370Y-70679654D01*
X167317365Y-70679660D01*
X167224342Y-70830474D01*
X167168606Y-70998678D01*
X167168605Y-70998681D01*
X167158000Y-71102483D01*
X166187094Y-71102483D01*
X166109003Y-70985611D01*
X166109001Y-70985609D01*
X166108996Y-70985603D01*
X165996396Y-70873003D01*
X165996390Y-70872998D01*
X165994419Y-70871681D01*
X165863968Y-70784517D01*
X165716831Y-70723570D01*
X165614735Y-70703262D01*
X165560632Y-70692500D01*
X165560630Y-70692500D01*
X165401370Y-70692500D01*
X165401362Y-70692500D01*
X165357281Y-70701269D01*
X165286567Y-70694941D01*
X165230500Y-70651386D01*
X165225467Y-70643846D01*
X165169030Y-70552348D01*
X165169027Y-70552345D01*
X165169024Y-70552341D01*
X165043658Y-70426975D01*
X165043652Y-70426970D01*
X164892738Y-70333885D01*
X164808582Y-70305999D01*
X164724427Y-70278113D01*
X164724420Y-70278112D01*
X164620553Y-70267500D01*
X163844455Y-70267500D01*
X163740574Y-70278112D01*
X163572261Y-70333885D01*
X163421347Y-70426970D01*
X163421341Y-70426975D01*
X163295971Y-70552345D01*
X163293511Y-70555457D01*
X163291281Y-70557035D01*
X163290780Y-70557537D01*
X163290694Y-70557451D01*
X163235568Y-70596483D01*
X163164643Y-70599671D01*
X163103254Y-70564008D01*
X163095837Y-70555446D01*
X163093632Y-70552657D01*
X162968345Y-70427370D01*
X162968339Y-70427365D01*
X162817525Y-70334342D01*
X162649321Y-70278606D01*
X162649318Y-70278605D01*
X162545516Y-70268000D01*
X162411500Y-70268000D01*
X162411500Y-71375000D01*
X162391498Y-71443121D01*
X162337842Y-71489614D01*
X162285500Y-71501000D01*
X162157500Y-71501000D01*
X162157500Y-71629000D01*
X162137498Y-71697121D01*
X162083842Y-71743614D01*
X162031500Y-71755000D01*
X161062000Y-71755000D01*
X153154500Y-71755000D01*
X153154500Y-70975483D01*
X161062000Y-70975483D01*
X161062000Y-71247000D01*
X161903500Y-71247000D01*
X161903500Y-70268000D01*
X161769483Y-70268000D01*
X161665681Y-70278605D01*
X161665678Y-70278606D01*
X161497474Y-70334342D01*
X161346660Y-70427365D01*
X161346654Y-70427370D01*
X161221370Y-70552654D01*
X161221365Y-70552660D01*
X161128342Y-70703474D01*
X161072606Y-70871678D01*
X161072605Y-70871681D01*
X161062000Y-70975483D01*
X153154500Y-70975483D01*
X153154500Y-69873960D01*
X153174502Y-69805839D01*
X153228158Y-69759346D01*
X153298432Y-69749242D01*
X153320134Y-69754356D01*
X153399761Y-69780742D01*
X153399770Y-69780744D01*
X153500147Y-69790999D01*
X153500147Y-69791000D01*
X153670000Y-69791000D01*
X154178000Y-69791000D01*
X154347853Y-69791000D01*
X154347852Y-69790999D01*
X154448229Y-69780744D01*
X154448241Y-69780742D01*
X154610884Y-69726847D01*
X154756728Y-69636890D01*
X154756734Y-69636885D01*
X154877885Y-69515734D01*
X154877890Y-69515728D01*
X154967847Y-69369884D01*
X155021742Y-69207241D01*
X155021744Y-69207229D01*
X155031999Y-69106852D01*
X155032000Y-69106852D01*
X155032000Y-69087000D01*
X154178000Y-69087000D01*
X154178000Y-69791000D01*
X153670000Y-69791000D01*
X153670000Y-68579000D01*
X154178000Y-68579000D01*
X155032000Y-68579000D01*
X155032000Y-68559147D01*
X155021744Y-68458770D01*
X155021742Y-68458758D01*
X154967847Y-68296115D01*
X154877890Y-68150271D01*
X154877885Y-68150265D01*
X154756734Y-68029114D01*
X154756728Y-68029109D01*
X154610884Y-67939152D01*
X154448241Y-67885257D01*
X154448229Y-67885255D01*
X154347852Y-67875000D01*
X154178000Y-67875000D01*
X154178000Y-68579000D01*
X153670000Y-68579000D01*
X153670000Y-67875000D01*
X153500147Y-67875000D01*
X153399770Y-67885255D01*
X153399767Y-67885256D01*
X153320133Y-67911644D01*
X153249178Y-67914084D01*
X153188168Y-67877776D01*
X153156473Y-67814247D01*
X153154500Y-67792039D01*
X153154500Y-66574486D01*
X153174502Y-66506365D01*
X153228158Y-66459872D01*
X153298432Y-66449768D01*
X153320127Y-66454880D01*
X153399664Y-66481236D01*
X153500120Y-66491500D01*
X153500128Y-66491500D01*
X154347880Y-66491500D01*
X154420936Y-66484035D01*
X154448336Y-66481236D01*
X154611101Y-66427302D01*
X154691422Y-66377758D01*
X154757569Y-66359000D01*
X155308670Y-66359000D01*
X155376791Y-66379002D01*
G37*
%TD.AperFunction*%
%TD*%
%TA.AperFunction,Conductor*%
%TO.N,GND*%
G36*
X153311109Y-76033328D02*
G01*
X153359729Y-76045508D01*
X153359743Y-76045510D01*
X153359748Y-76045512D01*
X153359753Y-76045513D01*
X153380889Y-76049717D01*
X153383955Y-76050327D01*
X153433805Y-76057721D01*
X153468461Y-76061134D01*
X153534291Y-76087715D01*
X153575302Y-76145668D01*
X153578471Y-76216594D01*
X153575945Y-76225461D01*
X153562476Y-76266916D01*
X153562473Y-76266928D01*
X153556046Y-76307498D01*
X153556047Y-76307499D01*
X153556047Y-76307500D01*
X154675715Y-76307500D01*
X154743836Y-76327502D01*
X154790329Y-76381158D01*
X154800433Y-76451432D01*
X154797421Y-76466113D01*
X154789500Y-76495672D01*
X154789500Y-76627327D01*
X154797421Y-76656887D01*
X154795733Y-76727864D01*
X154755939Y-76786660D01*
X154690675Y-76814609D01*
X154675715Y-76815500D01*
X153556048Y-76815500D01*
X153560929Y-76846318D01*
X153562475Y-76856081D01*
X153592624Y-76948867D01*
X153623665Y-77044402D01*
X153713564Y-77220839D01*
X153713566Y-77220842D01*
X153828464Y-77378985D01*
X153829540Y-77380531D01*
X153829960Y-77381043D01*
X153969955Y-77521038D01*
X153970467Y-77521457D01*
X153972014Y-77522534D01*
X154093617Y-77610885D01*
X154130162Y-77637436D01*
X154130166Y-77637439D01*
X154202971Y-77674534D01*
X154274004Y-77710727D01*
X154303313Y-77731387D01*
X154312883Y-77740426D01*
X154348672Y-77801741D01*
X154345630Y-77872672D01*
X154308887Y-77927244D01*
X154301770Y-77933412D01*
X154276452Y-77950462D01*
X154129896Y-78025136D01*
X153969636Y-78141572D01*
X153829575Y-78281633D01*
X153829573Y-78281636D01*
X153713132Y-78441901D01*
X153713121Y-78441920D01*
X153712920Y-78442320D01*
X153623205Y-78618395D01*
X153623202Y-78618403D01*
X153561988Y-78806800D01*
X153531000Y-79002454D01*
X153531000Y-79200546D01*
X153558551Y-79374500D01*
X153561989Y-79396205D01*
X153623200Y-79584593D01*
X153704932Y-79745000D01*
X153704931Y-79745000D01*
X153713133Y-79761098D01*
X153713134Y-79761099D01*
X153771353Y-79841230D01*
X153829571Y-79921360D01*
X153829573Y-79921362D01*
X153829575Y-79921365D01*
X153969632Y-80061422D01*
X153970144Y-80061841D01*
X153971691Y-80062918D01*
X154129902Y-80177866D01*
X154299856Y-80264462D01*
X154301485Y-80265415D01*
X154305247Y-80267238D01*
X154307526Y-80268370D01*
X154319692Y-80274569D01*
X154319277Y-80275382D01*
X154338917Y-80284098D01*
X154350997Y-80292358D01*
X154395939Y-80347314D01*
X154400058Y-80357059D01*
X154410000Y-80406114D01*
X154410000Y-82627011D01*
X154404895Y-82662512D01*
X154397365Y-82688155D01*
X154365575Y-82741740D01*
X154362979Y-82744335D01*
X154362970Y-82744345D01*
X154362968Y-82744349D01*
X154269886Y-82895259D01*
X154214112Y-83063575D01*
X154214109Y-83063598D01*
X154203500Y-83167437D01*
X154203500Y-84218544D01*
X154214106Y-84322373D01*
X154214112Y-84322425D01*
X154261838Y-84466454D01*
X154269885Y-84490738D01*
X154316012Y-84565521D01*
X154321063Y-84573710D01*
X154335355Y-84606606D01*
X154340433Y-84625166D01*
X154340837Y-84690155D01*
X154338223Y-84700198D01*
X154327408Y-84727855D01*
X154265759Y-84843192D01*
X154265758Y-84843195D01*
X154208088Y-85033311D01*
X154193500Y-85181437D01*
X154193500Y-87030524D01*
X154193501Y-87030561D01*
X154193503Y-87030577D01*
X154208087Y-87178675D01*
X154208092Y-87178714D01*
X154208867Y-87183362D01*
X154211405Y-87189628D01*
X154265756Y-87368798D01*
X154265758Y-87368803D01*
X154265759Y-87368804D01*
X154359405Y-87544004D01*
X154485432Y-87697568D01*
X154638996Y-87823595D01*
X154814196Y-87917241D01*
X154994099Y-87971814D01*
X154995467Y-87972359D01*
X155003435Y-87974658D01*
X155004713Y-87975035D01*
X155007365Y-87975363D01*
X155010456Y-87975515D01*
X155044501Y-87978867D01*
X155044502Y-87978867D01*
X155152453Y-87989500D01*
X156251546Y-87989499D01*
X156311668Y-87983577D01*
X156393546Y-87975515D01*
X156396620Y-87975363D01*
X156402196Y-87974676D01*
X156408570Y-87972217D01*
X156589804Y-87917241D01*
X156765004Y-87823595D01*
X156878461Y-87730481D01*
X156909134Y-87711910D01*
X156923755Y-87705700D01*
X156994265Y-87697481D01*
X157001622Y-87698740D01*
X157060296Y-87725533D01*
X157162369Y-87809301D01*
X157170113Y-87818278D01*
X157179272Y-87823173D01*
X157179272Y-87823174D01*
X157354385Y-87916774D01*
X157354389Y-87916776D01*
X157354394Y-87916778D01*
X157354405Y-87916782D01*
X157454094Y-87947022D01*
X157544387Y-87974412D01*
X157544389Y-87974413D01*
X157544390Y-87974413D01*
X157544393Y-87974414D01*
X157544405Y-87974416D01*
X157544406Y-87974416D01*
X157544417Y-87974418D01*
X157651728Y-87984986D01*
X157692473Y-87988999D01*
X157692491Y-87989000D01*
X157692508Y-87989000D01*
X158791509Y-87989000D01*
X158791516Y-87989000D01*
X158791529Y-87988999D01*
X158894401Y-87978867D01*
X158939594Y-87974416D01*
X158939606Y-87974414D01*
X159078052Y-87932416D01*
X159129593Y-87916782D01*
X159129604Y-87916778D01*
X159129609Y-87916776D01*
X159129614Y-87916774D01*
X159304724Y-87823175D01*
X159417671Y-87730481D01*
X159448342Y-87711911D01*
X159462969Y-87705699D01*
X159533470Y-87697480D01*
X159540832Y-87698740D01*
X159599508Y-87725534D01*
X159718996Y-87823595D01*
X159894196Y-87917241D01*
X160074099Y-87971814D01*
X160075467Y-87972359D01*
X160083435Y-87974658D01*
X160084713Y-87975035D01*
X160087365Y-87975363D01*
X160090456Y-87975515D01*
X160124501Y-87978867D01*
X160124502Y-87978867D01*
X160232453Y-87989500D01*
X161331546Y-87989499D01*
X161391668Y-87983577D01*
X161473546Y-87975515D01*
X161476620Y-87975363D01*
X161482196Y-87974676D01*
X161488570Y-87972217D01*
X161669804Y-87917241D01*
X161845004Y-87823595D01*
X161958065Y-87730806D01*
X161988737Y-87712236D01*
X161989507Y-87711909D01*
X162003357Y-87706026D01*
X162073874Y-87697806D01*
X162078829Y-87698654D01*
X162081254Y-87699070D01*
X162139907Y-87725861D01*
X162222499Y-87793643D01*
X162258996Y-87823595D01*
X162434196Y-87917241D01*
X162614099Y-87971814D01*
X162615467Y-87972359D01*
X162623435Y-87974658D01*
X162624713Y-87975035D01*
X162627365Y-87975363D01*
X162630456Y-87975515D01*
X162664501Y-87978867D01*
X162664502Y-87978867D01*
X162772453Y-87989500D01*
X163871546Y-87989499D01*
X163931668Y-87983577D01*
X164013546Y-87975515D01*
X164016620Y-87975363D01*
X164022196Y-87974676D01*
X164028570Y-87972217D01*
X164209804Y-87917241D01*
X164385004Y-87823595D01*
X164498065Y-87730806D01*
X164528737Y-87712236D01*
X164529507Y-87711909D01*
X164543357Y-87706026D01*
X164613874Y-87697806D01*
X164618829Y-87698654D01*
X164621254Y-87699070D01*
X164679907Y-87725861D01*
X164762499Y-87793643D01*
X164798996Y-87823595D01*
X164974196Y-87917241D01*
X165154099Y-87971814D01*
X165155467Y-87972359D01*
X165163435Y-87974658D01*
X165164713Y-87975035D01*
X165167365Y-87975363D01*
X165170456Y-87975515D01*
X165204501Y-87978867D01*
X165204502Y-87978867D01*
X165312453Y-87989500D01*
X166411546Y-87989499D01*
X166471668Y-87983577D01*
X166553546Y-87975515D01*
X166556620Y-87975363D01*
X166562196Y-87974676D01*
X166568570Y-87972217D01*
X166749804Y-87917241D01*
X166925004Y-87823595D01*
X167038065Y-87730806D01*
X167068737Y-87712236D01*
X167069507Y-87711909D01*
X167083357Y-87706026D01*
X167153874Y-87697806D01*
X167158829Y-87698654D01*
X167161254Y-87699070D01*
X167219907Y-87725861D01*
X167302499Y-87793643D01*
X167338996Y-87823595D01*
X167514196Y-87917241D01*
X167694099Y-87971814D01*
X167695467Y-87972359D01*
X167703435Y-87974658D01*
X167704713Y-87975035D01*
X167707365Y-87975363D01*
X167710456Y-87975515D01*
X167744501Y-87978867D01*
X167744502Y-87978867D01*
X167852453Y-87989500D01*
X168951546Y-87989499D01*
X169011668Y-87983577D01*
X169093546Y-87975515D01*
X169096620Y-87975363D01*
X169102196Y-87974676D01*
X169108570Y-87972217D01*
X169289804Y-87917241D01*
X169465004Y-87823595D01*
X169578065Y-87730806D01*
X169608737Y-87712236D01*
X169609507Y-87711909D01*
X169623357Y-87706026D01*
X169693874Y-87697806D01*
X169698829Y-87698654D01*
X169701254Y-87699070D01*
X169759907Y-87725861D01*
X169842499Y-87793643D01*
X169878996Y-87823595D01*
X170054196Y-87917241D01*
X170234099Y-87971814D01*
X170235467Y-87972359D01*
X170243435Y-87974658D01*
X170244713Y-87975035D01*
X170247365Y-87975363D01*
X170250456Y-87975515D01*
X170284501Y-87978867D01*
X170284502Y-87978867D01*
X170392453Y-87989500D01*
X171012459Y-87989499D01*
X171047951Y-87994600D01*
X171058979Y-87997839D01*
X171118706Y-88036219D01*
X171148202Y-88100799D01*
X171138101Y-88171073D01*
X171138098Y-88171080D01*
X171134860Y-88178170D01*
X171109343Y-88214921D01*
X170536892Y-88787375D01*
X170536891Y-88787375D01*
X170448377Y-88875888D01*
X170445414Y-88879998D01*
X170443978Y-88882471D01*
X170378826Y-88979978D01*
X170330923Y-89095626D01*
X170306500Y-89218404D01*
X170306500Y-100271659D01*
X170301395Y-100307160D01*
X170296920Y-100322399D01*
X170258540Y-100382120D01*
X170251024Y-100388633D01*
X170205085Y-100413985D01*
X170054206Y-100459753D01*
X170054199Y-100459756D01*
X169878991Y-100553406D01*
X169878991Y-100553407D01*
X169765937Y-100646188D01*
X169735264Y-100664761D01*
X169720644Y-100670971D01*
X169650125Y-100679193D01*
X169650117Y-100679191D01*
X169642759Y-100677931D01*
X169584092Y-100651138D01*
X169578060Y-100646188D01*
X169465004Y-100553405D01*
X169289804Y-100459759D01*
X169249869Y-100447645D01*
X169110625Y-100405405D01*
X169104356Y-100402866D01*
X169099714Y-100402092D01*
X169099678Y-100402087D01*
X168979230Y-100390226D01*
X168970903Y-100389406D01*
X168962838Y-100388611D01*
X168951554Y-100387500D01*
X168951547Y-100387500D01*
X168951545Y-100387500D01*
X167852465Y-100387500D01*
X167852453Y-100387500D01*
X167852437Y-100387501D01*
X167852425Y-100387502D01*
X167704314Y-100402088D01*
X167704308Y-100402089D01*
X167514194Y-100459759D01*
X167338991Y-100553406D01*
X167338991Y-100553407D01*
X167225937Y-100646188D01*
X167195264Y-100664761D01*
X167180644Y-100670971D01*
X167110125Y-100679193D01*
X167110117Y-100679191D01*
X167102759Y-100677931D01*
X167044092Y-100651138D01*
X167038060Y-100646188D01*
X166925004Y-100553405D01*
X166749804Y-100459759D01*
X166709869Y-100447645D01*
X166570625Y-100405405D01*
X166564356Y-100402866D01*
X166559714Y-100402092D01*
X166559678Y-100402087D01*
X166439230Y-100390226D01*
X166430903Y-100389406D01*
X166422838Y-100388611D01*
X166411554Y-100387500D01*
X166411547Y-100387500D01*
X166411545Y-100387500D01*
X165312465Y-100387500D01*
X165312453Y-100387500D01*
X165312437Y-100387501D01*
X165312425Y-100387502D01*
X165164314Y-100402088D01*
X165164308Y-100402089D01*
X164974194Y-100459759D01*
X164798991Y-100553406D01*
X164798991Y-100553407D01*
X164685937Y-100646188D01*
X164655264Y-100664761D01*
X164640644Y-100670971D01*
X164570125Y-100679193D01*
X164570117Y-100679191D01*
X164562759Y-100677931D01*
X164504092Y-100651138D01*
X164498060Y-100646188D01*
X164385004Y-100553405D01*
X164209804Y-100459759D01*
X164169869Y-100447645D01*
X164030625Y-100405405D01*
X164024356Y-100402866D01*
X164019714Y-100402092D01*
X164019680Y-100402087D01*
X163883974Y-100388722D01*
X163854931Y-100382336D01*
X163841519Y-100377671D01*
X163783753Y-100336401D01*
X163757467Y-100270449D01*
X163771010Y-100200759D01*
X163775686Y-100191722D01*
X163798487Y-100160548D01*
X163831441Y-100127596D01*
X163925376Y-99978099D01*
X163983690Y-99811448D01*
X163998500Y-99680004D01*
X163998500Y-97641996D01*
X163983690Y-97510552D01*
X163925376Y-97343901D01*
X163892500Y-97291579D01*
X163831441Y-97194403D01*
X163831440Y-97194402D01*
X163831439Y-97194400D01*
X163706598Y-97069559D01*
X163557106Y-96975628D01*
X163557104Y-96975627D01*
X163557101Y-96975625D01*
X163557099Y-96975624D01*
X163557097Y-96975623D01*
X163557093Y-96975621D01*
X163417597Y-96926810D01*
X163390448Y-96917310D01*
X163259004Y-96902500D01*
X162620995Y-96902500D01*
X162548630Y-96910653D01*
X162496580Y-96916518D01*
X162482474Y-96917310D01*
X162477521Y-96917310D01*
X162462401Y-96926810D01*
X162322905Y-96975621D01*
X162322898Y-96975625D01*
X162322892Y-96975628D01*
X162173400Y-97069559D01*
X162089404Y-97153556D01*
X162060695Y-97175048D01*
X162046753Y-97182661D01*
X161977380Y-97197753D01*
X161975548Y-97197622D01*
X161916417Y-97177942D01*
X161909802Y-97173691D01*
X161888829Y-97156791D01*
X161801596Y-97069558D01*
X161801595Y-97069557D01*
X161652106Y-96975628D01*
X161652104Y-96975627D01*
X161652101Y-96975625D01*
X161652099Y-96975624D01*
X161652097Y-96975623D01*
X161652093Y-96975621D01*
X161512597Y-96926810D01*
X161485448Y-96917310D01*
X161354004Y-96902500D01*
X160715995Y-96902500D01*
X160643630Y-96910653D01*
X160591580Y-96916518D01*
X160577474Y-96917310D01*
X160572521Y-96917310D01*
X160557401Y-96926810D01*
X160417905Y-96975621D01*
X160417898Y-96975625D01*
X160417892Y-96975628D01*
X160268400Y-97069559D01*
X160143559Y-97194400D01*
X160049628Y-97343892D01*
X160049619Y-97343907D01*
X160048755Y-97345635D01*
X160047439Y-97350143D01*
X159991311Y-97510549D01*
X159991310Y-97510552D01*
X159978654Y-97622876D01*
X159976500Y-97641995D01*
X159976500Y-99680004D01*
X159991310Y-99811448D01*
X159992601Y-99815806D01*
X159993959Y-99819018D01*
X160049621Y-99978093D01*
X160049623Y-99978097D01*
X160049624Y-99978099D01*
X160049625Y-99978101D01*
X160049627Y-99978104D01*
X160049628Y-99978106D01*
X160143556Y-100127594D01*
X160143558Y-100127596D01*
X160186943Y-100170981D01*
X160208432Y-100199685D01*
X160214203Y-100210253D01*
X160229296Y-100279627D01*
X160204488Y-100346148D01*
X160149226Y-100388097D01*
X160139095Y-100392031D01*
X160105836Y-100399969D01*
X160084306Y-100402089D01*
X160084298Y-100402090D01*
X159894199Y-100459756D01*
X159894195Y-100459758D01*
X159718991Y-100553406D01*
X159718991Y-100553407D01*
X159605937Y-100646188D01*
X159575264Y-100664761D01*
X159560644Y-100670971D01*
X159490125Y-100679193D01*
X159490117Y-100679191D01*
X159482759Y-100677931D01*
X159424092Y-100651138D01*
X159418060Y-100646188D01*
X159305004Y-100553405D01*
X159129804Y-100459759D01*
X159089869Y-100447645D01*
X158950625Y-100405405D01*
X158944356Y-100402866D01*
X158939714Y-100402092D01*
X158939678Y-100402087D01*
X158819230Y-100390226D01*
X158810903Y-100389406D01*
X158802838Y-100388611D01*
X158791554Y-100387500D01*
X158791547Y-100387500D01*
X158791545Y-100387500D01*
X157692465Y-100387500D01*
X157692453Y-100387500D01*
X157692437Y-100387501D01*
X157692425Y-100387502D01*
X157544314Y-100402088D01*
X157544308Y-100402089D01*
X157354194Y-100459759D01*
X157178991Y-100553406D01*
X157178991Y-100553407D01*
X157065937Y-100646188D01*
X157035264Y-100664761D01*
X157020644Y-100670971D01*
X156950125Y-100679193D01*
X156950117Y-100679191D01*
X156942759Y-100677931D01*
X156884092Y-100651138D01*
X156878060Y-100646188D01*
X156765004Y-100553405D01*
X156589804Y-100459759D01*
X156549869Y-100447645D01*
X156410625Y-100405405D01*
X156404356Y-100402866D01*
X156399714Y-100402092D01*
X156399678Y-100402087D01*
X156279230Y-100390226D01*
X156270903Y-100389406D01*
X156262838Y-100388611D01*
X156251554Y-100387500D01*
X156251547Y-100387500D01*
X156251545Y-100387500D01*
X155152465Y-100387500D01*
X155152453Y-100387500D01*
X155152437Y-100387501D01*
X155152425Y-100387502D01*
X155004314Y-100402088D01*
X155004308Y-100402089D01*
X154814194Y-100459759D01*
X154638994Y-100553405D01*
X154485432Y-100679432D01*
X154359405Y-100832994D01*
X154265759Y-101008194D01*
X154208088Y-101198312D01*
X154193500Y-101346437D01*
X154193500Y-103195524D01*
X154193501Y-103195561D01*
X154193502Y-103195573D01*
X154208088Y-103343684D01*
X154208089Y-103343690D01*
X154265759Y-103533804D01*
X154350383Y-103692125D01*
X154362616Y-103725837D01*
X154365491Y-103739645D01*
X154359794Y-103810413D01*
X154316742Y-103866867D01*
X154316732Y-103866875D01*
X154314524Y-103868497D01*
X154261764Y-103891045D01*
X154259912Y-103891370D01*
X154258641Y-103891594D01*
X154236808Y-103893500D01*
X153307601Y-103893500D01*
X153295248Y-103892893D01*
X153285380Y-103891920D01*
X153249525Y-103882940D01*
X153238758Y-103878481D01*
X153197873Y-103851164D01*
X153196833Y-103850124D01*
X153169513Y-103809232D01*
X153165053Y-103798460D01*
X153156076Y-103762600D01*
X153155106Y-103752742D01*
X153154500Y-103740404D01*
X153154500Y-95970063D01*
X153159599Y-95934582D01*
X153161589Y-95927804D01*
X153199962Y-95868076D01*
X153264539Y-95838574D01*
X153334814Y-95848668D01*
X153387493Y-95893647D01*
X153390823Y-95898669D01*
X153405647Y-95929368D01*
X153431026Y-96007479D01*
X153431027Y-96007482D01*
X153431028Y-96007483D01*
X153527551Y-96196920D01*
X153528108Y-96198012D01*
X153652311Y-96368963D01*
X153653507Y-96370681D01*
X153653701Y-96370913D01*
X153805083Y-96522295D01*
X153805315Y-96522489D01*
X153807014Y-96523672D01*
X153977991Y-96647894D01*
X154168517Y-96744972D01*
X154274908Y-96779540D01*
X154367910Y-96809758D01*
X154370599Y-96810731D01*
X154371403Y-96810972D01*
X154371880Y-96811047D01*
X154371884Y-96811049D01*
X154583084Y-96844500D01*
X154583087Y-96844500D01*
X154796913Y-96844500D01*
X154796916Y-96844500D01*
X155008116Y-96811049D01*
X155211483Y-96744972D01*
X155402009Y-96647894D01*
X155575004Y-96522206D01*
X155726206Y-96371004D01*
X155845236Y-96207171D01*
X155862626Y-96187810D01*
X155876452Y-96175299D01*
X155940384Y-96144426D01*
X156010859Y-96153017D01*
X156010864Y-96153019D01*
X156013973Y-96154359D01*
X156059322Y-96187553D01*
X156063128Y-96191945D01*
X156069843Y-96200400D01*
X156192311Y-96368963D01*
X156193507Y-96370681D01*
X156193701Y-96370913D01*
X156345083Y-96522295D01*
X156345315Y-96522489D01*
X156347014Y-96523672D01*
X156517991Y-96647894D01*
X156708517Y-96744972D01*
X156814908Y-96779540D01*
X156907910Y-96809758D01*
X156910599Y-96810731D01*
X156911403Y-96810972D01*
X156911880Y-96811047D01*
X156911884Y-96811049D01*
X157123084Y-96844500D01*
X157123087Y-96844500D01*
X157336913Y-96844500D01*
X157336916Y-96844500D01*
X157548116Y-96811049D01*
X157751483Y-96744972D01*
X157942009Y-96647894D01*
X158115004Y-96522206D01*
X158266206Y-96371004D01*
X158385236Y-96207171D01*
X158402626Y-96187810D01*
X158416452Y-96175299D01*
X158480384Y-96144426D01*
X158550859Y-96153017D01*
X158550864Y-96153019D01*
X158553973Y-96154359D01*
X158599322Y-96187553D01*
X158603128Y-96191945D01*
X158609843Y-96200400D01*
X158732311Y-96368963D01*
X158733507Y-96370681D01*
X158733701Y-96370913D01*
X158885083Y-96522295D01*
X158885315Y-96522489D01*
X158887014Y-96523672D01*
X159057991Y-96647894D01*
X159248517Y-96744972D01*
X159354908Y-96779540D01*
X159447910Y-96809758D01*
X159450599Y-96810731D01*
X159451403Y-96810972D01*
X159451880Y-96811047D01*
X159451884Y-96811049D01*
X159663084Y-96844500D01*
X159663087Y-96844500D01*
X159876913Y-96844500D01*
X159876916Y-96844500D01*
X160088116Y-96811049D01*
X160291483Y-96744972D01*
X160482009Y-96647894D01*
X160655004Y-96522206D01*
X160806206Y-96371004D01*
X160931894Y-96198009D01*
X161028972Y-96007483D01*
X161095049Y-95804116D01*
X161128500Y-95592916D01*
X161128500Y-95379084D01*
X161095049Y-95167884D01*
X161028972Y-94964517D01*
X160931894Y-94773991D01*
X160807672Y-94603014D01*
X160806489Y-94601315D01*
X160806295Y-94601083D01*
X160654913Y-94449701D01*
X160654681Y-94449507D01*
X160652963Y-94448311D01*
X160491176Y-94330766D01*
X160471815Y-94313377D01*
X160459299Y-94299545D01*
X160428426Y-94235616D01*
X160437012Y-94165150D01*
X160438354Y-94162036D01*
X160471550Y-94116679D01*
X160475953Y-94112863D01*
X160484379Y-94106171D01*
X160655004Y-93982206D01*
X160806206Y-93831004D01*
X160931894Y-93658009D01*
X161028972Y-93467483D01*
X161095049Y-93264116D01*
X161128500Y-93052916D01*
X161128500Y-92839084D01*
X161095049Y-92627884D01*
X161028972Y-92424517D01*
X160931894Y-92233991D01*
X160807672Y-92063014D01*
X160806489Y-92061315D01*
X160806295Y-92061083D01*
X160654913Y-91909701D01*
X160654681Y-91909507D01*
X160652963Y-91908311D01*
X160482012Y-91784108D01*
X160482011Y-91784107D01*
X160482009Y-91784106D01*
X160388633Y-91736528D01*
X160291482Y-91687027D01*
X160182591Y-91651647D01*
X160152646Y-91631171D01*
X160048801Y-91614724D01*
X160048801Y-91614723D01*
X159918264Y-91594048D01*
X159876916Y-91587500D01*
X159876914Y-91587500D01*
X159663087Y-91587500D01*
X159663084Y-91587500D01*
X159451884Y-91620951D01*
X159451878Y-91620952D01*
X159451875Y-91620952D01*
X159451874Y-91620953D01*
X159248522Y-91687025D01*
X159248515Y-91687028D01*
X159057983Y-91784110D01*
X158887041Y-91908307D01*
X158885498Y-91909381D01*
X158884983Y-91909803D01*
X158733803Y-92060983D01*
X158733381Y-92061498D01*
X158732307Y-92063041D01*
X158614761Y-92224828D01*
X158597360Y-92244201D01*
X158583542Y-92256703D01*
X158519608Y-92287573D01*
X158449140Y-92278981D01*
X158446026Y-92277639D01*
X158400666Y-92244437D01*
X158396877Y-92240064D01*
X158390168Y-92231615D01*
X158348679Y-92174510D01*
X158267672Y-92063014D01*
X158266489Y-92061315D01*
X158266295Y-92061083D01*
X158114913Y-91909701D01*
X158114681Y-91909507D01*
X158112963Y-91908311D01*
X157942012Y-91784108D01*
X157942011Y-91784107D01*
X157942009Y-91784106D01*
X157848633Y-91736528D01*
X157751482Y-91687027D01*
X157642591Y-91651647D01*
X157612646Y-91631171D01*
X157508801Y-91614724D01*
X157508801Y-91614723D01*
X157378264Y-91594048D01*
X157336916Y-91587500D01*
X157336914Y-91587500D01*
X157123087Y-91587500D01*
X157123084Y-91587500D01*
X156911884Y-91620951D01*
X156911878Y-91620952D01*
X156911875Y-91620952D01*
X156911874Y-91620953D01*
X156708522Y-91687025D01*
X156708515Y-91687028D01*
X156517983Y-91784110D01*
X156347041Y-91908307D01*
X156345498Y-91909381D01*
X156344983Y-91909803D01*
X156193803Y-92060983D01*
X156193381Y-92061498D01*
X156192307Y-92063041D01*
X156074761Y-92224828D01*
X156057360Y-92244201D01*
X156043542Y-92256703D01*
X155979608Y-92287573D01*
X155909140Y-92278981D01*
X155906026Y-92277639D01*
X155860666Y-92244437D01*
X155856877Y-92240064D01*
X155850168Y-92231615D01*
X155808679Y-92174510D01*
X155727672Y-92063014D01*
X155726489Y-92061315D01*
X155726295Y-92061083D01*
X155574913Y-91909701D01*
X155574681Y-91909507D01*
X155572963Y-91908311D01*
X155402012Y-91784108D01*
X155402011Y-91784107D01*
X155402009Y-91784106D01*
X155308633Y-91736528D01*
X155211482Y-91687027D01*
X155102591Y-91651647D01*
X155072646Y-91631171D01*
X154968801Y-91614724D01*
X154968801Y-91614723D01*
X154838264Y-91594048D01*
X154796916Y-91587500D01*
X154796914Y-91587500D01*
X154583087Y-91587500D01*
X154583084Y-91587500D01*
X154371884Y-91620951D01*
X154371878Y-91620952D01*
X154371875Y-91620952D01*
X154371874Y-91620953D01*
X154168522Y-91687025D01*
X154168515Y-91687028D01*
X153977983Y-91784110D01*
X153807041Y-91908307D01*
X153805498Y-91909381D01*
X153804983Y-91909803D01*
X153653803Y-92060983D01*
X153653381Y-92061498D01*
X153652307Y-92063041D01*
X153528110Y-92233983D01*
X153500805Y-92287573D01*
X153431029Y-92424515D01*
X153431026Y-92424521D01*
X153407607Y-92496602D01*
X153405932Y-92501756D01*
X153390100Y-92533952D01*
X153386114Y-92539780D01*
X153331148Y-92584716D01*
X153260613Y-92592801D01*
X153196904Y-92561469D01*
X153160717Y-92502400D01*
X153159105Y-92496602D01*
X153154500Y-92462851D01*
X153154500Y-76155554D01*
X153174502Y-76087433D01*
X153228158Y-76040940D01*
X153298432Y-76030836D01*
X153311109Y-76033328D01*
G37*
%TD.AperFunction*%
%TA.AperFunction,Conductor*%
G36*
X173690280Y-84228803D02*
G01*
X173732827Y-84285630D01*
X173735551Y-84292934D01*
X173743500Y-84336976D01*
X173743500Y-103740399D01*
X173742893Y-103752754D01*
X173741921Y-103762619D01*
X173732941Y-103798471D01*
X173728484Y-103809234D01*
X173701166Y-103850122D01*
X173700122Y-103851166D01*
X173659234Y-103878484D01*
X173648471Y-103882941D01*
X173612620Y-103891920D01*
X173602749Y-103892893D01*
X173590400Y-103893500D01*
X172414313Y-103893500D01*
X172378809Y-103888394D01*
X172372851Y-103886644D01*
X172365276Y-103884420D01*
X172305552Y-103846032D01*
X172276067Y-103781474D01*
X172275677Y-103778760D01*
X172280667Y-103721548D01*
X172281658Y-103718525D01*
X172290255Y-103698413D01*
X172378241Y-103533804D01*
X172435908Y-103343701D01*
X172450500Y-103195547D01*
X172450499Y-101346454D01*
X172447326Y-101314240D01*
X172435909Y-101198305D01*
X172435908Y-101198303D01*
X172435908Y-101198299D01*
X172378241Y-101008196D01*
X172284595Y-100832996D01*
X172158568Y-100679432D01*
X172005004Y-100553405D01*
X171928521Y-100512524D01*
X171829803Y-100459758D01*
X171829801Y-100459757D01*
X171829799Y-100459756D01*
X171829791Y-100459753D01*
X171684258Y-100415606D01*
X171651768Y-100400416D01*
X171638484Y-100391710D01*
X171592473Y-100337641D01*
X171592472Y-100337640D01*
X171588420Y-100328554D01*
X171577500Y-100277243D01*
X171577500Y-89614538D01*
X171582602Y-89579046D01*
X171590135Y-89553391D01*
X171621932Y-89499800D01*
X172334358Y-88787375D01*
X173070625Y-88051108D01*
X173140173Y-87947022D01*
X173188078Y-87831369D01*
X173212500Y-87708591D01*
X173212500Y-87583409D01*
X173212500Y-84565521D01*
X173217601Y-84530032D01*
X173223266Y-84510737D01*
X173255894Y-84456320D01*
X173262268Y-84450064D01*
X173284381Y-84432746D01*
X173400652Y-84361030D01*
X173448298Y-84313384D01*
X173515595Y-84246088D01*
X173544294Y-84224601D01*
X173554389Y-84219089D01*
X173623759Y-84203996D01*
X173690280Y-84228803D01*
G37*
%TD.AperFunction*%
%TA.AperFunction,Conductor*%
G36*
X157311250Y-79996104D02*
G01*
X157336895Y-80003634D01*
X157390492Y-80035435D01*
X159587939Y-82232882D01*
X159609429Y-82261587D01*
X159614938Y-82271675D01*
X159630032Y-82341049D01*
X159605224Y-82407570D01*
X159548406Y-82450113D01*
X159543217Y-82452048D01*
X159499168Y-82460000D01*
X159363500Y-82460000D01*
X159363500Y-83548884D01*
X159358395Y-83584385D01*
X159353920Y-83599624D01*
X159315535Y-83659350D01*
X159315525Y-83659358D01*
X159314134Y-83660563D01*
X159258431Y-83688446D01*
X159250749Y-83690118D01*
X159223952Y-83693000D01*
X159109500Y-83693000D01*
X159109500Y-83802884D01*
X159104395Y-83838385D01*
X159099920Y-83853624D01*
X159061535Y-83913350D01*
X159061525Y-83913358D01*
X159060134Y-83914563D01*
X159004431Y-83942446D01*
X158996749Y-83944118D01*
X158969952Y-83947000D01*
X157518615Y-83947000D01*
X157483114Y-83941895D01*
X157467875Y-83937420D01*
X157408149Y-83899035D01*
X157408141Y-83899025D01*
X157406936Y-83897634D01*
X157379049Y-83841912D01*
X157377378Y-83834229D01*
X157374500Y-83807451D01*
X157374500Y-83693000D01*
X157264615Y-83693000D01*
X157229114Y-83687895D01*
X157213875Y-83683420D01*
X157154149Y-83645035D01*
X157154141Y-83645025D01*
X157152936Y-83643634D01*
X157125049Y-83587912D01*
X157123378Y-83580229D01*
X157120500Y-83553451D01*
X157120500Y-83439000D01*
X157628500Y-83439000D01*
X158855500Y-83439000D01*
X158855500Y-82460000D01*
X158721483Y-82460000D01*
X158617680Y-82470605D01*
X158617678Y-82470606D01*
X158449474Y-82526342D01*
X158323566Y-82604003D01*
X158290673Y-82618295D01*
X158274132Y-82622821D01*
X158205377Y-82622183D01*
X158192092Y-82618282D01*
X158161448Y-82604628D01*
X158034530Y-82526345D01*
X158034529Y-82526344D01*
X158034525Y-82526342D01*
X157866321Y-82470606D01*
X157866318Y-82470605D01*
X157762516Y-82460000D01*
X157628500Y-82460000D01*
X157628500Y-83439000D01*
X157120500Y-83439000D01*
X157120500Y-82460000D01*
X156986483Y-82460000D01*
X156882681Y-82470605D01*
X156882678Y-82470606D01*
X156714474Y-82526342D01*
X156714472Y-82526342D01*
X156714472Y-82526343D01*
X156563663Y-82619362D01*
X156563648Y-82619375D01*
X156441705Y-82741318D01*
X156425427Y-82755051D01*
X156409865Y-82766071D01*
X156342712Y-82789115D01*
X156273761Y-82772195D01*
X156264472Y-82766799D01*
X156217174Y-82718233D01*
X156204412Y-82694861D01*
X156189000Y-82634476D01*
X156189000Y-80404619D01*
X156194103Y-80369125D01*
X156194911Y-80366372D01*
X156198577Y-80353884D01*
X156236956Y-80294160D01*
X156246183Y-80286164D01*
X156282975Y-80263979D01*
X156292864Y-80260128D01*
X156295061Y-80257460D01*
X156308630Y-80249437D01*
X156449098Y-80177866D01*
X156609358Y-80061430D01*
X156630075Y-80040711D01*
X156658778Y-80019224D01*
X156682247Y-80006409D01*
X156742627Y-79991000D01*
X157275752Y-79991000D01*
X157311250Y-79996104D01*
G37*
%TD.AperFunction*%
%TA.AperFunction,Conductor*%
G36*
X165293102Y-75717002D02*
G01*
X165328475Y-75751132D01*
X165329715Y-75752917D01*
X165336416Y-75762567D01*
X165341664Y-75769844D01*
X165352632Y-75784496D01*
X165457808Y-75885984D01*
X165515394Y-75927510D01*
X165626889Y-75985834D01*
X165644899Y-75995255D01*
X165788236Y-76023769D01*
X165788239Y-76023769D01*
X165788248Y-76023771D01*
X165848247Y-76026987D01*
X165915198Y-76050606D01*
X165958752Y-76106674D01*
X165967501Y-76152806D01*
X165967501Y-76340171D01*
X165997610Y-76491539D01*
X165997612Y-76491544D01*
X166056671Y-76634126D01*
X166119306Y-76727864D01*
X166142421Y-76762458D01*
X166251532Y-76871569D01*
X166251537Y-76871573D01*
X166251545Y-76871581D01*
X166251548Y-76871583D01*
X166251549Y-76871584D01*
X166379874Y-76957329D01*
X166522462Y-77016391D01*
X166673832Y-77046500D01*
X166673833Y-77046500D01*
X166828167Y-77046500D01*
X166828168Y-77046500D01*
X166979538Y-77016391D01*
X167122126Y-76957329D01*
X167250451Y-76871584D01*
X167284100Y-76837934D01*
X167312800Y-76816449D01*
X167326748Y-76808833D01*
X167396116Y-76793743D01*
X167397392Y-76793835D01*
X167398004Y-76793879D01*
X167457075Y-76813550D01*
X167463691Y-76817801D01*
X167484671Y-76834706D01*
X167521549Y-76871584D01*
X167649874Y-76957329D01*
X167792462Y-77016391D01*
X167943832Y-77046500D01*
X167943833Y-77046500D01*
X168098167Y-77046500D01*
X168098168Y-77046500D01*
X168249538Y-77016391D01*
X168392126Y-76957329D01*
X168495569Y-76888208D01*
X168527913Y-76872734D01*
X168541378Y-76868517D01*
X168612362Y-76867252D01*
X168672762Y-76904564D01*
X168680238Y-76912887D01*
X168702909Y-76948866D01*
X168727827Y-77009022D01*
X168797375Y-77113108D01*
X169139892Y-77455625D01*
X169243978Y-77525173D01*
X169359631Y-77573078D01*
X169482409Y-77597500D01*
X169482410Y-77597500D01*
X171004586Y-77597500D01*
X171004590Y-77597500D01*
X171004591Y-77597500D01*
X171064657Y-77585551D01*
X171100467Y-77583633D01*
X171114511Y-77584890D01*
X171180577Y-77610885D01*
X171222097Y-77668460D01*
X171225821Y-77679014D01*
X171233000Y-77720936D01*
X171233000Y-77752516D01*
X171243605Y-77856318D01*
X171243606Y-77856321D01*
X171299342Y-78024525D01*
X171299719Y-78025136D01*
X171392362Y-78175335D01*
X171392363Y-78175337D01*
X171392365Y-78175339D01*
X171392370Y-78175345D01*
X171392375Y-78175350D01*
X171392385Y-78175361D01*
X171517637Y-78300613D01*
X171517648Y-78300623D01*
X171517654Y-78300629D01*
X171517660Y-78300634D01*
X171668474Y-78393657D01*
X171836678Y-78449393D01*
X171836681Y-78449394D01*
X171895889Y-78455443D01*
X171907058Y-78460000D01*
X171940483Y-78460000D01*
X172212000Y-78460000D01*
X172212000Y-77508615D01*
X172213625Y-77503079D01*
X172212498Y-77497421D01*
X172217103Y-77473121D01*
X172221577Y-77457882D01*
X172231372Y-77442638D01*
X172232002Y-77440494D01*
X172233690Y-77439030D01*
X172259956Y-77398156D01*
X172261365Y-77396936D01*
X172317086Y-77369049D01*
X172324770Y-77367378D01*
X172351548Y-77364500D01*
X172575885Y-77364500D01*
X172611377Y-77369602D01*
X172626621Y-77374078D01*
X172639055Y-77382068D01*
X172653441Y-77385464D01*
X172668322Y-77400877D01*
X172686346Y-77412460D01*
X172686358Y-77412474D01*
X172687563Y-77413865D01*
X172694777Y-77428277D01*
X172702754Y-77436540D01*
X172705293Y-77449289D01*
X172715446Y-77469572D01*
X172717118Y-77477255D01*
X172720000Y-77504048D01*
X172720000Y-78460000D01*
X172991517Y-78460000D01*
X173045677Y-78460000D01*
X173066337Y-78452354D01*
X173095318Y-78449394D01*
X173095321Y-78449393D01*
X173263525Y-78393657D01*
X173414339Y-78300634D01*
X173414345Y-78300629D01*
X173515598Y-78199376D01*
X173544294Y-78177893D01*
X173554389Y-78172381D01*
X173623759Y-78157288D01*
X173690280Y-78182095D01*
X173732827Y-78238922D01*
X173735551Y-78246226D01*
X173743500Y-78290268D01*
X173743500Y-82283511D01*
X173738395Y-82319014D01*
X173735157Y-82330040D01*
X173696771Y-82389765D01*
X173632189Y-82419255D01*
X173561918Y-82409150D01*
X173554828Y-82405912D01*
X173518079Y-82380396D01*
X173400658Y-82262975D01*
X173400652Y-82262970D01*
X173400650Y-82262969D01*
X173400647Y-82262966D01*
X173380903Y-82250789D01*
X173372643Y-82245694D01*
X173249738Y-82169885D01*
X173165582Y-82141999D01*
X173165580Y-82141998D01*
X173165579Y-82141997D01*
X173081425Y-82114112D01*
X173081400Y-82114109D01*
X172977561Y-82103500D01*
X172977553Y-82103500D01*
X172977545Y-82103500D01*
X172480538Y-82103500D01*
X172445037Y-82098395D01*
X172419391Y-82090864D01*
X172365797Y-82059064D01*
X171855110Y-81548377D01*
X171855108Y-81548375D01*
X171751022Y-81478827D01*
X171635372Y-81430923D01*
X171635369Y-81430922D01*
X171512596Y-81406500D01*
X171512593Y-81406500D01*
X171512591Y-81406500D01*
X171488614Y-81406500D01*
X171453113Y-81401395D01*
X171437874Y-81396920D01*
X171378148Y-81358535D01*
X171378140Y-81358525D01*
X171376935Y-81357134D01*
X171349048Y-81301412D01*
X171347377Y-81293729D01*
X171344499Y-81266951D01*
X171344499Y-80885831D01*
X171344407Y-80885086D01*
X171343905Y-80882846D01*
X171329415Y-80810000D01*
X171322075Y-80773096D01*
X171314391Y-80734465D01*
X171314390Y-80734462D01*
X171305753Y-80713611D01*
X171255328Y-80591873D01*
X171169583Y-80463548D01*
X171169582Y-80463547D01*
X171169580Y-80463544D01*
X171169572Y-80463536D01*
X171169568Y-80463531D01*
X171060457Y-80354420D01*
X171020384Y-80327644D01*
X170932125Y-80268670D01*
X170789543Y-80209611D01*
X170789538Y-80209609D01*
X170698390Y-80191478D01*
X170638172Y-80179500D01*
X170638170Y-80179500D01*
X170638168Y-80179500D01*
X170483832Y-80179500D01*
X170483829Y-80179500D01*
X170483826Y-80179500D01*
X170393499Y-80197467D01*
X170332461Y-80209609D01*
X170332458Y-80209609D01*
X170332458Y-80209610D01*
X170189874Y-80268670D01*
X170061541Y-80354420D01*
X170061539Y-80354422D01*
X170027905Y-80388057D01*
X169999199Y-80409548D01*
X169985256Y-80417162D01*
X169915882Y-80432255D01*
X169915880Y-80432255D01*
X169914048Y-80432124D01*
X169854917Y-80412444D01*
X169848302Y-80408193D01*
X169827328Y-80391292D01*
X169790454Y-80354418D01*
X169662125Y-80268670D01*
X169519543Y-80209611D01*
X169519538Y-80209609D01*
X169428390Y-80191478D01*
X169368172Y-80179500D01*
X169368170Y-80179500D01*
X169368168Y-80179500D01*
X169213832Y-80179500D01*
X169213829Y-80179500D01*
X169213826Y-80179500D01*
X169123499Y-80197467D01*
X169062461Y-80209609D01*
X169062458Y-80209609D01*
X169062458Y-80209610D01*
X168919873Y-80268670D01*
X168878425Y-80296365D01*
X168846070Y-80311844D01*
X168830911Y-80316590D01*
X168759928Y-80317854D01*
X168758150Y-80317367D01*
X168703997Y-80286527D01*
X168698344Y-80281072D01*
X168681071Y-80260404D01*
X168648796Y-80212100D01*
X168648796Y-80212099D01*
X168630849Y-80185240D01*
X168613272Y-80158934D01*
X168613270Y-80158932D01*
X168613266Y-80158926D01*
X167999073Y-79544733D01*
X167999069Y-79544730D01*
X167999065Y-79544727D01*
X167874179Y-79461282D01*
X167741132Y-79406172D01*
X167736640Y-79404047D01*
X167735414Y-79403803D01*
X167588103Y-79374500D01*
X167588101Y-79374500D01*
X165913897Y-79374500D01*
X165913896Y-79374500D01*
X165869844Y-79383262D01*
X165765356Y-79404047D01*
X165760866Y-79406172D01*
X165685295Y-79437475D01*
X165630084Y-79460345D01*
X165628007Y-79461205D01*
X165627814Y-79461285D01*
X165502930Y-79544730D01*
X165502928Y-79544732D01*
X165502909Y-79544749D01*
X164888735Y-80158923D01*
X164888732Y-80158927D01*
X164888730Y-80158928D01*
X164857424Y-80205784D01*
X164853204Y-80212100D01*
X164805282Y-80283820D01*
X164748353Y-80421258D01*
X164747881Y-80422191D01*
X164728697Y-80518631D01*
X164726735Y-80528500D01*
X164718500Y-80569897D01*
X164718500Y-80570779D01*
X164718225Y-80572691D01*
X164717893Y-80576061D01*
X164717742Y-80576046D01*
X164713395Y-80606280D01*
X164709902Y-80618175D01*
X164671517Y-80677900D01*
X164606936Y-80707392D01*
X164539258Y-80698437D01*
X164522588Y-80691273D01*
X164506194Y-80682753D01*
X164363738Y-80594885D01*
X164279582Y-80566999D01*
X164279580Y-80566998D01*
X164279579Y-80566997D01*
X164195425Y-80539112D01*
X164195400Y-80539109D01*
X164091561Y-80528500D01*
X164091553Y-80528500D01*
X161790455Y-80528500D01*
X161686578Y-80539111D01*
X161686575Y-80539111D01*
X161686574Y-80539112D01*
X161603175Y-80566747D01*
X161518260Y-80594885D01*
X161367345Y-80687971D01*
X161341707Y-80713611D01*
X161341704Y-80713614D01*
X161295028Y-80760288D01*
X161266323Y-80781776D01*
X161242867Y-80794585D01*
X161182478Y-80810000D01*
X160751248Y-80810000D01*
X160715747Y-80804895D01*
X160690101Y-80797364D01*
X160636507Y-80765564D01*
X158908459Y-79037516D01*
X161083000Y-79037516D01*
X161093605Y-79141318D01*
X161093606Y-79141321D01*
X161149342Y-79309525D01*
X161149343Y-79309526D01*
X161242362Y-79460335D01*
X161242363Y-79460337D01*
X161242365Y-79460339D01*
X161242370Y-79460345D01*
X161242372Y-79460347D01*
X161242375Y-79460350D01*
X161242385Y-79460361D01*
X161367637Y-79585613D01*
X161367648Y-79585623D01*
X161367654Y-79585629D01*
X161367660Y-79585634D01*
X161518474Y-79678657D01*
X161686678Y-79734393D01*
X161686681Y-79734394D01*
X161745889Y-79740443D01*
X161757058Y-79745000D01*
X161790483Y-79745000D01*
X162687000Y-79745000D01*
X163195000Y-79745000D01*
X164091517Y-79745000D01*
X164145677Y-79745000D01*
X164166337Y-79737354D01*
X164195318Y-79734394D01*
X164195321Y-79734393D01*
X164363525Y-79678657D01*
X164514339Y-79585634D01*
X164514345Y-79585629D01*
X164639629Y-79460345D01*
X164639634Y-79460339D01*
X164732657Y-79309525D01*
X164788393Y-79141321D01*
X164788394Y-79141318D01*
X164794443Y-79082107D01*
X164799000Y-79070939D01*
X164799000Y-78828500D01*
X163195000Y-78828500D01*
X163195000Y-79745000D01*
X162687000Y-79745000D01*
X162687000Y-78828500D01*
X161083000Y-78828500D01*
X161083000Y-79037516D01*
X158908459Y-79037516D01*
X158281525Y-78410582D01*
X158281523Y-78410580D01*
X158135836Y-78313235D01*
X157974055Y-78246223D01*
X157973961Y-78246184D01*
X157973958Y-78246183D01*
X157802112Y-78212000D01*
X157802110Y-78212000D01*
X157802108Y-78212000D01*
X156750093Y-78212000D01*
X156714592Y-78206895D01*
X156708150Y-78205003D01*
X156688946Y-78199364D01*
X156635353Y-78167564D01*
X156609360Y-78141571D01*
X156567947Y-78111483D01*
X156449102Y-78025136D01*
X156304993Y-77951709D01*
X156275675Y-77931039D01*
X156266111Y-77922005D01*
X156230324Y-77860688D01*
X156233370Y-77789756D01*
X156270124Y-77735180D01*
X156277244Y-77729010D01*
X156302549Y-77711973D01*
X156448837Y-77637437D01*
X156607031Y-77522500D01*
X156608540Y-77521450D01*
X156609027Y-77521050D01*
X156609034Y-77521046D01*
X156609037Y-77521044D01*
X156749044Y-77381037D01*
X156749046Y-77381034D01*
X156749050Y-77381027D01*
X156749450Y-77380540D01*
X156750500Y-77379031D01*
X156865435Y-77220839D01*
X156935914Y-77082516D01*
X161083000Y-77082516D01*
X161093605Y-77186318D01*
X161093606Y-77186321D01*
X161149342Y-77354525D01*
X161201465Y-77439030D01*
X161242365Y-77505339D01*
X161242619Y-77505692D01*
X161250936Y-77518905D01*
X161261224Y-77537746D01*
X161276316Y-77607119D01*
X161276185Y-77608951D01*
X161256502Y-77668088D01*
X161250582Y-77677299D01*
X161244935Y-77684997D01*
X161244978Y-77685028D01*
X161242367Y-77688656D01*
X161149343Y-77839472D01*
X161149342Y-77839474D01*
X161131031Y-77894736D01*
X161093677Y-78007465D01*
X161093606Y-78007678D01*
X161093606Y-78007679D01*
X161093605Y-78007681D01*
X161083000Y-78111483D01*
X161083000Y-78320500D01*
X162687000Y-78320500D01*
X163195000Y-78320500D01*
X164799000Y-78320500D01*
X164799000Y-78111483D01*
X164788394Y-78007681D01*
X164788393Y-78007678D01*
X164732657Y-77839474D01*
X164639634Y-77688661D01*
X164639632Y-77688659D01*
X164635781Y-77682415D01*
X164635915Y-77682331D01*
X164630757Y-77674534D01*
X164620778Y-77656262D01*
X164605681Y-77586891D01*
X164605813Y-77585049D01*
X164625494Y-77525917D01*
X164631421Y-77516693D01*
X164638574Y-77506678D01*
X164639627Y-77505345D01*
X164639634Y-77505338D01*
X164732657Y-77354525D01*
X164788393Y-77186321D01*
X164788394Y-77186318D01*
X164794443Y-77127107D01*
X164799000Y-77115939D01*
X164799000Y-76873500D01*
X163195000Y-76873500D01*
X163195000Y-78320500D01*
X162687000Y-78320500D01*
X162687000Y-76873500D01*
X161083000Y-76873500D01*
X161083000Y-77082516D01*
X156935914Y-77082516D01*
X156955334Y-77044402D01*
X157016524Y-76856079D01*
X157022953Y-76815500D01*
X155903285Y-76815500D01*
X155835164Y-76795498D01*
X155788671Y-76741842D01*
X155778567Y-76671568D01*
X155781579Y-76656887D01*
X155781685Y-76656489D01*
X155789500Y-76627326D01*
X155789500Y-76495674D01*
X155781579Y-76466113D01*
X155783267Y-76395136D01*
X155823061Y-76336340D01*
X155888325Y-76308391D01*
X155903285Y-76307500D01*
X157022951Y-76307500D01*
X157022952Y-76307500D01*
X157016524Y-76266920D01*
X157008894Y-76243436D01*
X157006867Y-76172468D01*
X157043529Y-76111670D01*
X157107242Y-76080345D01*
X157128727Y-76078500D01*
X160957000Y-76078500D01*
X161025121Y-76098502D01*
X161071614Y-76152158D01*
X161083000Y-76204500D01*
X161083000Y-76365500D01*
X164799000Y-76365500D01*
X164799000Y-76156483D01*
X164788394Y-76052681D01*
X164788393Y-76052678D01*
X164732657Y-75884474D01*
X164732652Y-75884467D01*
X164729554Y-75877821D01*
X164732111Y-75876628D01*
X164716802Y-75820654D01*
X164738069Y-75752917D01*
X164792581Y-75707432D01*
X164842780Y-75697000D01*
X165224981Y-75697000D01*
X165293102Y-75717002D01*
G37*
%TD.AperFunction*%
%TA.AperFunction,Conductor*%
G36*
X170473877Y-71633102D02*
G01*
X170489121Y-71637578D01*
X170501555Y-71645568D01*
X170515941Y-71648964D01*
X170548822Y-71675944D01*
X170548846Y-71675960D01*
X170548849Y-71675966D01*
X170548858Y-71675974D01*
X170550063Y-71677365D01*
X170577946Y-71733072D01*
X170579618Y-71740755D01*
X170582500Y-71767548D01*
X170582500Y-74607993D01*
X170709860Y-74648425D01*
X170732216Y-74659229D01*
X170732253Y-74659152D01*
X170739324Y-74662475D01*
X170740409Y-74663189D01*
X170742149Y-74664030D01*
X170749076Y-74668698D01*
X170748985Y-74668832D01*
X170769257Y-74682172D01*
X170770330Y-74683122D01*
X170808074Y-74743254D01*
X170809931Y-74750696D01*
X170810504Y-74753332D01*
X170810508Y-74753354D01*
X170812119Y-74760758D01*
X170815000Y-74787548D01*
X170815000Y-75768884D01*
X170813374Y-75774419D01*
X170814502Y-75780078D01*
X170809895Y-75804385D01*
X170805420Y-75819624D01*
X170795627Y-75834860D01*
X170794998Y-75837005D01*
X170793308Y-75838468D01*
X170767035Y-75879350D01*
X170767025Y-75879358D01*
X170765634Y-75880563D01*
X170709931Y-75908446D01*
X170702249Y-75910118D01*
X170675452Y-75913000D01*
X170451115Y-75913000D01*
X170415614Y-75907895D01*
X170400375Y-75903420D01*
X170387942Y-75895429D01*
X170373558Y-75892035D01*
X170358675Y-75876620D01*
X170340649Y-75865035D01*
X170340641Y-75865025D01*
X170339436Y-75863634D01*
X170332223Y-75849223D01*
X170324245Y-75840959D01*
X170321703Y-75828202D01*
X170311549Y-75807912D01*
X170309878Y-75800229D01*
X170307000Y-75773451D01*
X170307000Y-75279000D01*
X170218615Y-75279000D01*
X170183114Y-75273895D01*
X170167875Y-75269420D01*
X170108149Y-75231035D01*
X170108141Y-75231025D01*
X170106936Y-75229634D01*
X170079049Y-75173912D01*
X170077378Y-75166229D01*
X170074500Y-75139451D01*
X170074500Y-71772115D01*
X170075643Y-71764161D01*
X170074998Y-71760921D01*
X170076750Y-71756463D01*
X170079603Y-71736621D01*
X170084077Y-71721382D01*
X170100727Y-71695471D01*
X170100973Y-71694846D01*
X170101263Y-71694636D01*
X170122456Y-71661656D01*
X170123865Y-71660436D01*
X170179586Y-71632549D01*
X170187270Y-71630878D01*
X170214048Y-71628000D01*
X170438385Y-71628000D01*
X170473877Y-71633102D01*
G37*
%TD.AperFunction*%
%TA.AperFunction,Conductor*%
G36*
X165522222Y-71208419D02*
G01*
X165554878Y-71214914D01*
X165578512Y-71222084D01*
X165609271Y-71234826D01*
X165610631Y-71235922D01*
X165612365Y-71236156D01*
X165631050Y-71246467D01*
X165658744Y-71264971D01*
X165677836Y-71280641D01*
X165701360Y-71304165D01*
X165717031Y-71323260D01*
X165735531Y-71350948D01*
X165736054Y-71352618D01*
X165737367Y-71353777D01*
X165747173Y-71372728D01*
X165759914Y-71403486D01*
X165767084Y-71427122D01*
X165773579Y-71459773D01*
X165776000Y-71484351D01*
X165776000Y-71517647D01*
X165773579Y-71542229D01*
X165767085Y-71574875D01*
X165759914Y-71598514D01*
X165747174Y-71629269D01*
X165735532Y-71651049D01*
X165717031Y-71678738D01*
X165701360Y-71697832D01*
X165677830Y-71721362D01*
X165658736Y-71737033D01*
X165631050Y-71755532D01*
X165609268Y-71767174D01*
X165578514Y-71779913D01*
X165554880Y-71787083D01*
X165522232Y-71793578D01*
X165497647Y-71796000D01*
X165462636Y-71796000D01*
X165440297Y-71794004D01*
X165439188Y-71793804D01*
X165435427Y-71793196D01*
X165430246Y-71792359D01*
X165411977Y-71789742D01*
X165411974Y-71789742D01*
X165411967Y-71789741D01*
X165407065Y-71789437D01*
X165340314Y-71765253D01*
X165328368Y-71755000D01*
X165328000Y-71755000D01*
X164376615Y-71755000D01*
X164371079Y-71753374D01*
X164365421Y-71754502D01*
X164341114Y-71749895D01*
X164325875Y-71745420D01*
X164310638Y-71735627D01*
X164308494Y-71734998D01*
X164307030Y-71733308D01*
X164266149Y-71707035D01*
X164266141Y-71707025D01*
X164264936Y-71705634D01*
X164237049Y-71649912D01*
X164235378Y-71642229D01*
X164232500Y-71615451D01*
X164232500Y-71391115D01*
X164237603Y-71355621D01*
X164242077Y-71340382D01*
X164250068Y-71327945D01*
X164253464Y-71313558D01*
X164268875Y-71298678D01*
X164280456Y-71280656D01*
X164281865Y-71279436D01*
X164296275Y-71272223D01*
X164304540Y-71264245D01*
X164317296Y-71261703D01*
X164337586Y-71251549D01*
X164345270Y-71249878D01*
X164372048Y-71247000D01*
X165327999Y-71247000D01*
X165328000Y-71247000D01*
X165328000Y-71246999D01*
X165331009Y-71243990D01*
X165393321Y-71209964D01*
X165413346Y-71207266D01*
X165433626Y-71206179D01*
X165440339Y-71206000D01*
X165497650Y-71206000D01*
X165522222Y-71208419D01*
G37*
%TD.AperFunction*%
%TA.AperFunction,Conductor*%
G36*
X173602742Y-58667106D02*
G01*
X173612600Y-58668076D01*
X173648460Y-58677053D01*
X173659232Y-58681513D01*
X173700124Y-58708833D01*
X173701165Y-58709874D01*
X173728483Y-58750760D01*
X173732941Y-58761525D01*
X173741921Y-58797379D01*
X173742893Y-58807244D01*
X173743500Y-58819599D01*
X173743500Y-61204384D01*
X173738395Y-61239885D01*
X173733920Y-61255124D01*
X173695535Y-61314850D01*
X173695525Y-61314858D01*
X173694134Y-61316063D01*
X173638431Y-61343946D01*
X173630749Y-61345618D01*
X173603952Y-61348500D01*
X173582802Y-61348500D01*
X173278693Y-61385425D01*
X173278665Y-61385429D01*
X172981194Y-61458749D01*
X172694738Y-61567387D01*
X172694694Y-61567409D01*
X172433583Y-61704452D01*
X172427505Y-61706969D01*
X172171309Y-61883808D01*
X172171281Y-61883832D01*
X171941977Y-62086977D01*
X171738832Y-62316281D01*
X171738808Y-62316309D01*
X171561969Y-62572505D01*
X171559452Y-62578583D01*
X171422409Y-62839694D01*
X171422387Y-62839738D01*
X171313749Y-63126194D01*
X171240429Y-63423665D01*
X171240425Y-63423693D01*
X171203500Y-63727802D01*
X171203500Y-64034196D01*
X171240425Y-64338305D01*
X171240429Y-64338333D01*
X171313749Y-64635804D01*
X171369194Y-64781999D01*
X171422390Y-64922266D01*
X171422397Y-64922282D01*
X171469400Y-65011839D01*
X171475452Y-65023369D01*
X171487429Y-65057170D01*
X171489767Y-65068838D01*
X171483539Y-65139560D01*
X171440063Y-65195689D01*
X171374392Y-65219328D01*
X171366117Y-65219865D01*
X171360859Y-65220206D01*
X171339886Y-65219819D01*
X171238888Y-65209500D01*
X171238880Y-65209500D01*
X171238872Y-65209500D01*
X170391128Y-65209500D01*
X170391120Y-65209500D01*
X170391112Y-65209500D01*
X170290670Y-65219762D01*
X170290667Y-65219762D01*
X170290666Y-65219763D01*
X170213002Y-65245498D01*
X170127898Y-65273698D01*
X169981963Y-65363712D01*
X169981947Y-65363725D01*
X169981936Y-65363735D01*
X169860735Y-65484936D01*
X169860725Y-65484947D01*
X169860712Y-65484963D01*
X169770698Y-65630898D01*
X169716762Y-65793670D01*
X169706500Y-65894110D01*
X169706500Y-66393406D01*
X169702824Y-66405923D01*
X169716762Y-66542330D01*
X169716763Y-66542333D01*
X169716764Y-66542336D01*
X169769162Y-66700465D01*
X169770698Y-66705101D01*
X169770701Y-66705107D01*
X169792378Y-66740249D01*
X169792379Y-66740252D01*
X169792380Y-66740252D01*
X169860715Y-66851040D01*
X169860720Y-66851046D01*
X169860725Y-66851051D01*
X169860735Y-66851062D01*
X169981948Y-66972275D01*
X169981953Y-66972279D01*
X169981959Y-66972284D01*
X169981960Y-66972285D01*
X170127899Y-67062302D01*
X170290664Y-67116236D01*
X170310756Y-67118288D01*
X170310755Y-67118289D01*
X170310759Y-67118288D01*
X170391120Y-67126500D01*
X170391128Y-67126500D01*
X170932462Y-67126500D01*
X170967960Y-67131604D01*
X170993605Y-67139134D01*
X171047202Y-67170935D01*
X171465860Y-67589593D01*
X171487350Y-67618298D01*
X171492859Y-67628386D01*
X171507953Y-67697760D01*
X171483145Y-67764281D01*
X171426319Y-67806827D01*
X171421656Y-67808566D01*
X171419016Y-67809551D01*
X171374973Y-67817500D01*
X169736404Y-67817500D01*
X169655289Y-67833635D01*
X169613630Y-67841922D01*
X169613628Y-67841922D01*
X169613626Y-67841923D01*
X169497977Y-67889827D01*
X169393888Y-67959377D01*
X169393883Y-67959381D01*
X168696481Y-68656784D01*
X168667777Y-68678274D01*
X168653863Y-68685871D01*
X168644316Y-68691085D01*
X168583927Y-68706500D01*
X168042093Y-68706500D01*
X168006589Y-68701394D01*
X168000631Y-68699644D01*
X167993056Y-68697420D01*
X167933332Y-68659032D01*
X167903846Y-68594464D01*
X167902856Y-68587580D01*
X167907967Y-68530019D01*
X167931393Y-68459324D01*
X167931394Y-68459318D01*
X167937443Y-68400107D01*
X167942000Y-68388939D01*
X167942000Y-67834000D01*
X167171903Y-67834000D01*
X167103782Y-67813998D01*
X167057289Y-67760342D01*
X167047185Y-67690068D01*
X167050197Y-67675388D01*
X167053056Y-67664717D01*
X167059000Y-67642535D01*
X167059000Y-67517465D01*
X167050197Y-67484611D01*
X167051886Y-67413636D01*
X167091679Y-67354840D01*
X167156943Y-67326891D01*
X167171903Y-67326000D01*
X167942000Y-67326000D01*
X167942000Y-66804491D01*
X167942000Y-66804483D01*
X167931394Y-66700681D01*
X167931393Y-66700678D01*
X167875657Y-66532474D01*
X167786868Y-66388525D01*
X167782636Y-66381663D01*
X167782635Y-66381662D01*
X167782634Y-66381660D01*
X167782629Y-66381654D01*
X167782623Y-66381648D01*
X167782613Y-66381637D01*
X167657361Y-66256385D01*
X167657350Y-66256375D01*
X167657345Y-66256370D01*
X167657339Y-66256365D01*
X167657337Y-66256363D01*
X167657335Y-66256362D01*
X167544762Y-66186927D01*
X167506525Y-66163342D01*
X167338321Y-66107606D01*
X167338318Y-66107605D01*
X167234516Y-66097000D01*
X166838000Y-66097000D01*
X166838000Y-66992096D01*
X166817998Y-67060217D01*
X166764342Y-67106710D01*
X166694068Y-67116814D01*
X166679391Y-67113803D01*
X166646537Y-67105000D01*
X166646535Y-67105000D01*
X166521465Y-67105000D01*
X166521462Y-67105000D01*
X166488609Y-67113803D01*
X166417633Y-67112113D01*
X166358838Y-67072318D01*
X166330891Y-67007053D01*
X166330000Y-66992096D01*
X166330000Y-66097000D01*
X165933483Y-66097000D01*
X165829681Y-66107605D01*
X165829678Y-66107606D01*
X165661474Y-66163342D01*
X165661472Y-66163342D01*
X165661472Y-66163343D01*
X165510663Y-66256362D01*
X165510648Y-66256375D01*
X165510637Y-66256385D01*
X165385385Y-66381637D01*
X165385375Y-66381648D01*
X165385362Y-66381664D01*
X165305525Y-66511101D01*
X165282541Y-66538638D01*
X165272056Y-66548068D01*
X165208032Y-66578749D01*
X165137584Y-66569945D01*
X165128717Y-66566092D01*
X165089839Y-66539628D01*
X164969009Y-66418798D01*
X164969008Y-66418797D01*
X164968907Y-66418696D01*
X164968681Y-66418507D01*
X164966963Y-66417311D01*
X164819950Y-66310500D01*
X164804035Y-66298937D01*
X164803687Y-66298639D01*
X164796012Y-66293108D01*
X164796011Y-66293107D01*
X164796009Y-66293106D01*
X164795998Y-66293098D01*
X164795591Y-66292893D01*
X164605483Y-66196027D01*
X164496591Y-66160647D01*
X164466646Y-66140171D01*
X164362801Y-66123724D01*
X164362801Y-66123723D01*
X164232264Y-66103048D01*
X164190916Y-66096500D01*
X164190914Y-66096500D01*
X163977087Y-66096500D01*
X163977084Y-66096500D01*
X163765884Y-66129951D01*
X163765878Y-66129952D01*
X163765875Y-66129952D01*
X163765874Y-66129953D01*
X163562522Y-66196025D01*
X163562515Y-66196028D01*
X163371983Y-66293110D01*
X163201041Y-66417307D01*
X163199498Y-66418381D01*
X163198983Y-66418803D01*
X163047803Y-66569983D01*
X163046493Y-66571581D01*
X163046307Y-66572041D01*
X162946583Y-66709299D01*
X162921592Y-66735015D01*
X162910425Y-66743626D01*
X162844269Y-66769386D01*
X162774686Y-66755290D01*
X162774669Y-66755281D01*
X162768388Y-66751966D01*
X162725264Y-66714595D01*
X162631398Y-66585401D01*
X162621656Y-66571992D01*
X162620485Y-66570310D01*
X162620297Y-66570085D01*
X162468913Y-66418701D01*
X162468681Y-66418507D01*
X162466963Y-66417311D01*
X162319950Y-66310500D01*
X162304035Y-66298937D01*
X162303687Y-66298639D01*
X162296012Y-66293108D01*
X162296011Y-66293107D01*
X162296009Y-66293106D01*
X162295998Y-66293098D01*
X162295591Y-66292893D01*
X162105483Y-66196027D01*
X161996591Y-66160647D01*
X161966646Y-66140171D01*
X161862801Y-66123724D01*
X161862801Y-66123723D01*
X161732264Y-66103048D01*
X161690916Y-66096500D01*
X161690914Y-66096500D01*
X161477087Y-66096500D01*
X161477084Y-66096500D01*
X161265884Y-66129951D01*
X161265878Y-66129952D01*
X161265875Y-66129952D01*
X161265874Y-66129953D01*
X161062522Y-66196025D01*
X161062515Y-66196028D01*
X160871983Y-66293110D01*
X160722402Y-66401787D01*
X160690688Y-66418522D01*
X160670536Y-66425713D01*
X160660843Y-66429171D01*
X160618499Y-66436500D01*
X158397614Y-66436500D01*
X158362113Y-66431395D01*
X158346874Y-66426920D01*
X158287148Y-66388535D01*
X158287140Y-66388525D01*
X158285935Y-66387134D01*
X158258048Y-66331412D01*
X158256377Y-66323729D01*
X158253499Y-66296951D01*
X158253499Y-65973454D01*
X158243767Y-65878188D01*
X158242887Y-65869574D01*
X158187115Y-65701262D01*
X158094030Y-65550348D01*
X158094029Y-65550347D01*
X158094024Y-65550341D01*
X158094020Y-65550336D01*
X157968674Y-65424990D01*
X157968663Y-65424980D01*
X157968658Y-65424975D01*
X157968652Y-65424970D01*
X157869342Y-65363715D01*
X157869342Y-65363714D01*
X157817740Y-65331886D01*
X157817739Y-65331885D01*
X157817738Y-65331885D01*
X157733582Y-65303999D01*
X157733580Y-65303998D01*
X157733579Y-65303997D01*
X157649425Y-65276112D01*
X157649400Y-65276109D01*
X157545561Y-65265500D01*
X157545553Y-65265500D01*
X157545545Y-65265500D01*
X156673945Y-65265500D01*
X156638444Y-65260395D01*
X156612798Y-65252864D01*
X156559204Y-65221064D01*
X156350107Y-65011967D01*
X156349982Y-65011839D01*
X156348047Y-65009904D01*
X156326557Y-64981200D01*
X156321048Y-64971111D01*
X156305955Y-64901740D01*
X156330762Y-64835219D01*
X156387592Y-64792671D01*
X156394911Y-64789942D01*
X156438936Y-64782000D01*
X156591000Y-64782000D01*
X157099000Y-64782000D01*
X157545517Y-64782000D01*
X157599677Y-64782000D01*
X157620337Y-64774354D01*
X157649318Y-64771394D01*
X157649321Y-64771393D01*
X157817525Y-64715657D01*
X157968339Y-64622634D01*
X157968345Y-64622629D01*
X158093629Y-64497345D01*
X158093634Y-64497339D01*
X158186657Y-64346525D01*
X158242393Y-64178321D01*
X158242394Y-64178318D01*
X158248443Y-64119107D01*
X158253000Y-64107939D01*
X158253000Y-62778000D01*
X157099000Y-62778000D01*
X157099000Y-64782000D01*
X156591000Y-64782000D01*
X156591000Y-62778000D01*
X155437000Y-62778000D01*
X155437000Y-64074516D01*
X155447605Y-64178318D01*
X155447606Y-64178321D01*
X155503342Y-64346525D01*
X155596365Y-64497339D01*
X155596367Y-64497342D01*
X155596925Y-64498246D01*
X155606539Y-64517266D01*
X155612142Y-64531159D01*
X155619070Y-64601817D01*
X155586699Y-64665004D01*
X155528064Y-64699948D01*
X155517990Y-64702662D01*
X155485213Y-64707000D01*
X154775091Y-64707000D01*
X154740713Y-64702219D01*
X154708277Y-64693020D01*
X154676508Y-64679042D01*
X154611101Y-64638698D01*
X154531206Y-64612224D01*
X154448336Y-64584764D01*
X154448333Y-64584763D01*
X154448331Y-64584762D01*
X154448326Y-64584761D01*
X154448330Y-64584761D01*
X154347888Y-64574500D01*
X154347880Y-64574500D01*
X154347872Y-64574500D01*
X153500128Y-64574500D01*
X153500120Y-64574500D01*
X153500112Y-64574500D01*
X153399665Y-64584762D01*
X153399659Y-64584764D01*
X153348198Y-64601817D01*
X153348189Y-64601820D01*
X153341822Y-64603929D01*
X153337318Y-64605422D01*
X153302029Y-64611739D01*
X153287936Y-64612224D01*
X153219167Y-64594577D01*
X153170856Y-64542552D01*
X153170853Y-64542546D01*
X153167751Y-64536328D01*
X153154500Y-64480081D01*
X153154500Y-60973483D01*
X155437000Y-60973483D01*
X155437000Y-62270000D01*
X156591000Y-62270000D01*
X157099000Y-62270000D01*
X158253000Y-62270000D01*
X158253000Y-60973483D01*
X158242394Y-60869681D01*
X158242393Y-60869678D01*
X158186657Y-60701474D01*
X158093634Y-60550660D01*
X158093629Y-60550654D01*
X158093623Y-60550648D01*
X158093613Y-60550637D01*
X157968361Y-60425385D01*
X157968350Y-60425375D01*
X157968345Y-60425370D01*
X157968339Y-60425365D01*
X157968337Y-60425363D01*
X157968335Y-60425362D01*
X157880616Y-60371257D01*
X157817525Y-60332342D01*
X157649321Y-60276606D01*
X157649318Y-60276605D01*
X157545516Y-60266000D01*
X157099000Y-60266000D01*
X157099000Y-62270000D01*
X156591000Y-62270000D01*
X156591000Y-60266000D01*
X156144483Y-60266000D01*
X156040681Y-60276605D01*
X156040678Y-60276606D01*
X155872474Y-60332342D01*
X155872472Y-60332342D01*
X155872472Y-60332343D01*
X155721663Y-60425362D01*
X155721648Y-60425375D01*
X155721637Y-60425385D01*
X155596385Y-60550637D01*
X155596375Y-60550648D01*
X155596362Y-60550663D01*
X155503343Y-60701472D01*
X155503342Y-60701474D01*
X155451632Y-60857526D01*
X155451631Y-60857529D01*
X155447606Y-60869678D01*
X155447605Y-60869681D01*
X155437000Y-60973483D01*
X153154500Y-60973483D01*
X153154500Y-58819596D01*
X153155105Y-58807262D01*
X153155107Y-58807244D01*
X153156076Y-58797394D01*
X153165054Y-58761535D01*
X153169516Y-58750759D01*
X153196830Y-58709876D01*
X153197874Y-58708832D01*
X153238765Y-58681514D01*
X153249537Y-58677054D01*
X153285396Y-58668076D01*
X153289588Y-58667663D01*
X153295253Y-58667106D01*
X153307594Y-58666500D01*
X173590404Y-58666500D01*
X173602742Y-58667106D01*
G37*
%TD.AperFunction*%
%TD*%
M02*
