%TF.GenerationSoftware,KiCad,Pcbnew,10.0.5-10.0.5~ubuntu24.04.1*%
%TF.CreationDate,2026-08-23T00:23:23-04:00*%
%TF.ProjectId,LG_HVAC_Controller,4c475f48-5641-4435-9f43-6f6e74726f6c,rev?*%
%TF.SameCoordinates,Original*%
%TF.FileFunction,Legend,Bot*%
%TF.FilePolarity,Positive*%
%FSLAX46Y46*%
G04 Gerber Fmt 4.6, Leading zero omitted, Abs format (unit mm)*
G04 Created by KiCad (PCBNEW 10.0.5-10.0.5~ubuntu24.04.1) date 2026-08-23 00:23:23*
%MOMM*%
%LPD*%
G01*
G04 APERTURE LIST*
%ADD10C,0.000000*%
%ADD11C,0.152400*%
%ADD12C,0.254000*%
G04 APERTURE END LIST*
D10*
G36*
X163910373Y-97586672D02*
G01*
X163910373Y-97715033D01*
X163403966Y-97866230D01*
X163403966Y-97869091D01*
X163910373Y-98020292D01*
X163910373Y-98148734D01*
X163187202Y-98379766D01*
X163187202Y-98225666D01*
X163693552Y-98087395D01*
X163693552Y-98084450D01*
X163187202Y-97920444D01*
X163187202Y-97814873D01*
X163693552Y-97650874D01*
X163693552Y-97648013D01*
X163187202Y-97509617D01*
X163187202Y-97355600D01*
X163910373Y-97586672D01*
G37*
G36*
X162768030Y-99458667D02*
G01*
X162333000Y-99458667D01*
X162323281Y-99458864D01*
X162313911Y-99459465D01*
X162304884Y-99460449D01*
X162296195Y-99461803D01*
X162287849Y-99463521D01*
X162279852Y-99465583D01*
X162272184Y-99467971D01*
X162264844Y-99470694D01*
X162257839Y-99473715D01*
X162251154Y-99477038D01*
X162244801Y-99480645D01*
X162238770Y-99484525D01*
X162233057Y-99488669D01*
X162227662Y-99493047D01*
X162222583Y-99497663D01*
X162217815Y-99502504D01*
X162213363Y-99507553D01*
X162209204Y-99512799D01*
X162205354Y-99518230D01*
X162201808Y-99523829D01*
X162198563Y-99529591D01*
X162195610Y-99535498D01*
X162192948Y-99541537D01*
X162190584Y-99547698D01*
X162186709Y-99560343D01*
X162183969Y-99573314D01*
X162182341Y-99586527D01*
X162181806Y-99599870D01*
X162181920Y-99606692D01*
X162182282Y-99613243D01*
X162182894Y-99619552D01*
X162183758Y-99625662D01*
X162184898Y-99631600D01*
X162186312Y-99637408D01*
X162188013Y-99643114D01*
X162190000Y-99648750D01*
X162192290Y-99654356D01*
X162194894Y-99659960D01*
X162197813Y-99665594D01*
X162201058Y-99671296D01*
X162204634Y-99677100D01*
X162208547Y-99683037D01*
X162212817Y-99689144D01*
X162217446Y-99695453D01*
X162091901Y-99801018D01*
X162085636Y-99792662D01*
X162079683Y-99784198D01*
X162074063Y-99775629D01*
X162068772Y-99766931D01*
X162063840Y-99758107D01*
X162059259Y-99749141D01*
X162055062Y-99740027D01*
X162051251Y-99730750D01*
X162047845Y-99721308D01*
X162044853Y-99711695D01*
X162042288Y-99701897D01*
X162040157Y-99691900D01*
X162038476Y-99681709D01*
X162037273Y-99671299D01*
X162036529Y-99660674D01*
X162036281Y-99649819D01*
X162036615Y-99635513D01*
X162037620Y-99621484D01*
X162039293Y-99607755D01*
X162041632Y-99594320D01*
X162044646Y-99581203D01*
X162048323Y-99568420D01*
X162052669Y-99555975D01*
X162057690Y-99543883D01*
X162063380Y-99532161D01*
X162069731Y-99520825D01*
X162076747Y-99509879D01*
X162084436Y-99499332D01*
X162092794Y-99489210D01*
X162101818Y-99479519D01*
X162111509Y-99470271D01*
X162121869Y-99461481D01*
X162121869Y-99458667D01*
X162044859Y-99458667D01*
X162044859Y-99313143D01*
X162768030Y-99313143D01*
X162768030Y-99458667D01*
G37*
G36*
X163910373Y-96354716D02*
G01*
X163475256Y-96354716D01*
X163465543Y-96354918D01*
X163456176Y-96355520D01*
X163447149Y-96356501D01*
X163438476Y-96357859D01*
X163430131Y-96359576D01*
X163422135Y-96361633D01*
X163414468Y-96364034D01*
X163407133Y-96366753D01*
X163400130Y-96369781D01*
X163393449Y-96373110D01*
X163387094Y-96376715D01*
X163381063Y-96380599D01*
X163375353Y-96384740D01*
X163369954Y-96389126D01*
X163364875Y-96393748D01*
X163360099Y-96398594D01*
X163355644Y-96403643D01*
X163351485Y-96408891D01*
X163347638Y-96414321D01*
X163344082Y-96419926D01*
X163340835Y-96425692D01*
X163337881Y-96431595D01*
X163335217Y-96437642D01*
X163332854Y-96443803D01*
X163328975Y-96456444D01*
X163326225Y-96469414D01*
X163324599Y-96482624D01*
X163324064Y-96495961D01*
X163324174Y-96502777D01*
X163324539Y-96509322D01*
X163325147Y-96515630D01*
X163326020Y-96521736D01*
X163327160Y-96527679D01*
X163328579Y-96533480D01*
X163330280Y-96539189D01*
X163332271Y-96544827D01*
X163334562Y-96550435D01*
X163337175Y-96556044D01*
X163340094Y-96561679D01*
X163343345Y-96567382D01*
X163346933Y-96573188D01*
X163350863Y-96579129D01*
X163355141Y-96585232D01*
X163359787Y-96591542D01*
X163234242Y-96697071D01*
X163227970Y-96688723D01*
X163222015Y-96680280D01*
X163216394Y-96671711D01*
X163211106Y-96663016D01*
X163206173Y-96654190D01*
X163201594Y-96645225D01*
X163197402Y-96636107D01*
X163193595Y-96626831D01*
X163190184Y-96617392D01*
X163187192Y-96607768D01*
X163184620Y-96597960D01*
X163182494Y-96587965D01*
X163180821Y-96577767D01*
X163179609Y-96567354D01*
X163178866Y-96556727D01*
X163178619Y-96545869D01*
X163178952Y-96531569D01*
X163179957Y-96517542D01*
X163181631Y-96503809D01*
X163183968Y-96490375D01*
X163186979Y-96477266D01*
X163190667Y-96464481D01*
X163195008Y-96452038D01*
X163200023Y-96439958D01*
X163205705Y-96428238D01*
X163212062Y-96416903D01*
X163219084Y-96405953D01*
X163226774Y-96395419D01*
X163235130Y-96385294D01*
X163244155Y-96375609D01*
X163253848Y-96366364D01*
X163264206Y-96357574D01*
X163264206Y-96354716D01*
X163187202Y-96354716D01*
X163187202Y-96209235D01*
X163910373Y-96209235D01*
X163910373Y-96354716D01*
G37*
G36*
X163910373Y-99278380D02*
G01*
X163475256Y-99278380D01*
X163465543Y-99278585D01*
X163456176Y-99279187D01*
X163447149Y-99280172D01*
X163438476Y-99281520D01*
X163430131Y-99283239D01*
X163422135Y-99285302D01*
X163414468Y-99287696D01*
X163407133Y-99290416D01*
X163400130Y-99293441D01*
X163393449Y-99296759D01*
X163387094Y-99300367D01*
X163381063Y-99304247D01*
X163375353Y-99308387D01*
X163369954Y-99312770D01*
X163364875Y-99317383D01*
X163360099Y-99322228D01*
X163355644Y-99327271D01*
X163351485Y-99332519D01*
X163347638Y-99337948D01*
X163344082Y-99343550D01*
X163340835Y-99349311D01*
X163337881Y-99355223D01*
X163335217Y-99361259D01*
X163332854Y-99367419D01*
X163328975Y-99380059D01*
X163326225Y-99393038D01*
X163324599Y-99406247D01*
X163324064Y-99419594D01*
X163324174Y-99426414D01*
X163324539Y-99432956D01*
X163325147Y-99439266D01*
X163326020Y-99445380D01*
X163327160Y-99451323D01*
X163328579Y-99457127D01*
X163330280Y-99462834D01*
X163332271Y-99468472D01*
X163334562Y-99474076D01*
X163337175Y-99479679D01*
X163340094Y-99485316D01*
X163343345Y-99491016D01*
X163346933Y-99496827D01*
X163350863Y-99502762D01*
X163355141Y-99508867D01*
X163359787Y-99515171D01*
X163234242Y-99620732D01*
X163227970Y-99612392D01*
X163222015Y-99603942D01*
X163216394Y-99595369D01*
X163211106Y-99586676D01*
X163206173Y-99577847D01*
X163201594Y-99568869D01*
X163197402Y-99559748D01*
X163193595Y-99550467D01*
X163190184Y-99541021D01*
X163187192Y-99531404D01*
X163184620Y-99521591D01*
X163182494Y-99511602D01*
X163180821Y-99501402D01*
X163179609Y-99490999D01*
X163178866Y-99480382D01*
X163178619Y-99469539D01*
X163178952Y-99455232D01*
X163179957Y-99441216D01*
X163181631Y-99427484D01*
X163183968Y-99414052D01*
X163186979Y-99400944D01*
X163190667Y-99388161D01*
X163195008Y-99375726D01*
X163200023Y-99363647D01*
X163205705Y-99351933D01*
X163212062Y-99340593D01*
X163219084Y-99329659D01*
X163226774Y-99319118D01*
X163235130Y-99309006D01*
X163244155Y-99299318D01*
X163253848Y-99290076D01*
X163264206Y-99281287D01*
X163264206Y-99278380D01*
X163187202Y-99278380D01*
X163187202Y-99132946D01*
X163910373Y-99132946D01*
X163910373Y-99278380D01*
G37*
G36*
X162768030Y-96329504D02*
G01*
X162337356Y-96329504D01*
X162328242Y-96329684D01*
X162319376Y-96330211D01*
X162310754Y-96331088D01*
X162302393Y-96332300D01*
X162294286Y-96333838D01*
X162286432Y-96335706D01*
X162278840Y-96337893D01*
X162271509Y-96340381D01*
X162264441Y-96343174D01*
X162257651Y-96346255D01*
X162251125Y-96349623D01*
X162244870Y-96353273D01*
X162238901Y-96357191D01*
X162233208Y-96361381D01*
X162227794Y-96365819D01*
X162222667Y-96370515D01*
X162217833Y-96375450D01*
X162213286Y-96380620D01*
X162209038Y-96386010D01*
X162205084Y-96391635D01*
X162201426Y-96397461D01*
X162198076Y-96403497D01*
X162195031Y-96409736D01*
X162192289Y-96416159D01*
X162189867Y-96422773D01*
X162187753Y-96429555D01*
X162185962Y-96436507D01*
X162184490Y-96443623D01*
X162183332Y-96450901D01*
X162182508Y-96458322D01*
X162182009Y-96465877D01*
X162181843Y-96473570D01*
X162182009Y-96481139D01*
X162182508Y-96488577D01*
X162183332Y-96495879D01*
X162184490Y-96503045D01*
X162185962Y-96510070D01*
X162187753Y-96516934D01*
X162189868Y-96523636D01*
X162192289Y-96530173D01*
X162195031Y-96536531D01*
X162198076Y-96542691D01*
X162201427Y-96548671D01*
X162205084Y-96554445D01*
X162209038Y-96560019D01*
X162213287Y-96565368D01*
X162217833Y-96570495D01*
X162222667Y-96575395D01*
X162227794Y-96580056D01*
X162233208Y-96584469D01*
X162238901Y-96588638D01*
X162244871Y-96592535D01*
X162251125Y-96596172D01*
X162257651Y-96599522D01*
X162264441Y-96602600D01*
X162271510Y-96605382D01*
X162278840Y-96607862D01*
X162286432Y-96610036D01*
X162294287Y-96611895D01*
X162302393Y-96613441D01*
X162310754Y-96614649D01*
X162319377Y-96615526D01*
X162328242Y-96616056D01*
X162337356Y-96616233D01*
X162768030Y-96616233D01*
X162768030Y-96761713D01*
X162287373Y-96761713D01*
X162272209Y-96761341D01*
X162257510Y-96760246D01*
X162243257Y-96758452D01*
X162229468Y-96755980D01*
X162216134Y-96752868D01*
X162203263Y-96749127D01*
X162190855Y-96744794D01*
X162178914Y-96739900D01*
X162167435Y-96734456D01*
X162156424Y-96728502D01*
X162145880Y-96722060D01*
X162135809Y-96715155D01*
X162126212Y-96707815D01*
X162117098Y-96700073D01*
X162108455Y-96691935D01*
X162100291Y-96683452D01*
X162092604Y-96674623D01*
X162085408Y-96665502D01*
X162078690Y-96656103D01*
X162072459Y-96646453D01*
X162066716Y-96636575D01*
X162061466Y-96626502D01*
X162056707Y-96616256D01*
X162052440Y-96605863D01*
X162045390Y-96584749D01*
X162040339Y-96563370D01*
X162037301Y-96541936D01*
X162036534Y-96531259D01*
X162036281Y-96520654D01*
X162036615Y-96506351D01*
X162037620Y-96492328D01*
X162039293Y-96478591D01*
X162041632Y-96465167D01*
X162044646Y-96452049D01*
X162048323Y-96439266D01*
X162052669Y-96426830D01*
X162057690Y-96414748D01*
X162063380Y-96403033D01*
X162069731Y-96391697D01*
X162076747Y-96380757D01*
X162084436Y-96370223D01*
X162092794Y-96360107D01*
X162101818Y-96350422D01*
X162111509Y-96341184D01*
X162121869Y-96332401D01*
X162121869Y-96329504D01*
X162044859Y-96329504D01*
X162044859Y-96184018D01*
X162768030Y-96184018D01*
X162768030Y-96329504D01*
G37*
G36*
X162540754Y-98576324D02*
G01*
X162555452Y-98577421D01*
X162569697Y-98579221D01*
X162583482Y-98581697D01*
X162596807Y-98584820D01*
X162609672Y-98588555D01*
X162622076Y-98592888D01*
X162634016Y-98597795D01*
X162645489Y-98603249D01*
X162656490Y-98609215D01*
X162667033Y-98615676D01*
X162677096Y-98622599D01*
X162686688Y-98629959D01*
X162695812Y-98637732D01*
X162704445Y-98645897D01*
X162712616Y-98654420D01*
X162720292Y-98663274D01*
X162727488Y-98672441D01*
X162734209Y-98681889D01*
X162740437Y-98691585D01*
X162746175Y-98701520D01*
X162751428Y-98711651D01*
X162756192Y-98721969D01*
X162760459Y-98732431D01*
X162764225Y-98743021D01*
X162767505Y-98753711D01*
X162772557Y-98775276D01*
X162775588Y-98796938D01*
X162776363Y-98807725D01*
X162776618Y-98818457D01*
X162776278Y-98832502D01*
X162775277Y-98846301D01*
X162773598Y-98859835D01*
X162771259Y-98873103D01*
X162768252Y-98886071D01*
X162764564Y-98898732D01*
X162760221Y-98911078D01*
X162755207Y-98923089D01*
X162749519Y-98934749D01*
X162743168Y-98946042D01*
X162736148Y-98956960D01*
X162728458Y-98967479D01*
X162720099Y-98977588D01*
X162711077Y-98987277D01*
X162701386Y-98996515D01*
X162691024Y-99005304D01*
X162691024Y-99008130D01*
X162768112Y-99008130D01*
X162768112Y-99153566D01*
X162044859Y-99153566D01*
X162044859Y-99008130D01*
X162475624Y-99008130D01*
X162484731Y-99007947D01*
X162493584Y-99007420D01*
X162502190Y-99006539D01*
X162510556Y-99005334D01*
X162518657Y-99003790D01*
X162526512Y-99001929D01*
X162534106Y-98999753D01*
X162541434Y-98997265D01*
X162548497Y-98994489D01*
X162555294Y-98991416D01*
X162561817Y-98988054D01*
X162568072Y-98984425D01*
X162574041Y-98980526D01*
X162579740Y-98976361D01*
X162585148Y-98971946D01*
X162590275Y-98967283D01*
X162595110Y-98962384D01*
X162599664Y-98957252D01*
X162603924Y-98951896D01*
X162607872Y-98946333D01*
X162611533Y-98940551D01*
X162614886Y-98934569D01*
X162617929Y-98928403D01*
X162620670Y-98922043D01*
X162623098Y-98915507D01*
X162625209Y-98908805D01*
X162627004Y-98901934D01*
X162628483Y-98894913D01*
X162629639Y-98887747D01*
X162630465Y-98880433D01*
X162630965Y-98872991D01*
X162631133Y-98865420D01*
X162630965Y-98857738D01*
X162630465Y-98850180D01*
X162629639Y-98842763D01*
X162628483Y-98835495D01*
X162627004Y-98828382D01*
X162625209Y-98821430D01*
X162623098Y-98814643D01*
X162620670Y-98808030D01*
X162617929Y-98801606D01*
X162614886Y-98795383D01*
X162611533Y-98789341D01*
X162607872Y-98783514D01*
X162603924Y-98777903D01*
X162599664Y-98772505D01*
X162595110Y-98767332D01*
X162590275Y-98762400D01*
X162585148Y-98757707D01*
X162579740Y-98753269D01*
X162574041Y-98749086D01*
X162568072Y-98745163D01*
X162561817Y-98741513D01*
X162555294Y-98738145D01*
X162548497Y-98735060D01*
X162541434Y-98732271D01*
X162534106Y-98729778D01*
X162526512Y-98727602D01*
X162518657Y-98725736D01*
X162510556Y-98724191D01*
X162502190Y-98722980D01*
X162493584Y-98722106D01*
X162484731Y-98721574D01*
X162475624Y-98721394D01*
X162044859Y-98721394D01*
X162044859Y-98575955D01*
X162525603Y-98575955D01*
X162540754Y-98576324D01*
G37*
G36*
X162431399Y-99784163D02*
G01*
X162454767Y-99785551D01*
X162477228Y-99787821D01*
X162498794Y-99790952D01*
X162519459Y-99794910D01*
X162539253Y-99799674D01*
X162558165Y-99805205D01*
X162576227Y-99811492D01*
X162593433Y-99818492D01*
X162609801Y-99826173D01*
X162625335Y-99834526D01*
X162640041Y-99843501D01*
X162653944Y-99853079D01*
X162667039Y-99863232D01*
X162679348Y-99873939D01*
X162690864Y-99885151D01*
X162701613Y-99896857D01*
X162711606Y-99909027D01*
X162720827Y-99921621D01*
X162729313Y-99934632D01*
X162737064Y-99947999D01*
X162744092Y-99961727D01*
X162750400Y-99975768D01*
X162756003Y-99990095D01*
X162765133Y-100019518D01*
X162771559Y-100049751D01*
X162775362Y-100080572D01*
X162776618Y-100111759D01*
X162775999Y-100132085D01*
X162774196Y-100151874D01*
X162771260Y-100171125D01*
X162767225Y-100189847D01*
X162762149Y-100208007D01*
X162756072Y-100225633D01*
X162749050Y-100242707D01*
X162741125Y-100259233D01*
X162732355Y-100275208D01*
X162722780Y-100290630D01*
X162712438Y-100305486D01*
X162701405Y-100319783D01*
X162689707Y-100333530D01*
X162677398Y-100346699D01*
X162664528Y-100359306D01*
X162651152Y-100371339D01*
X162555571Y-100264360D01*
X162563706Y-100257502D01*
X162571514Y-100250276D01*
X162578970Y-100242703D01*
X162586038Y-100234801D01*
X162592705Y-100226571D01*
X162598929Y-100218019D01*
X162604688Y-100209167D01*
X162609956Y-100200015D01*
X162614708Y-100190592D01*
X162618911Y-100180882D01*
X162622546Y-100170915D01*
X162625584Y-100160701D01*
X162627987Y-100150234D01*
X162629732Y-100139550D01*
X162630360Y-100134114D01*
X162630809Y-100128634D01*
X162631080Y-100123104D01*
X162631179Y-100117518D01*
X162630976Y-100106559D01*
X162630380Y-100095890D01*
X162629387Y-100085517D01*
X162627983Y-100075436D01*
X162626170Y-100065659D01*
X162623944Y-100056179D01*
X162621306Y-100047010D01*
X162618237Y-100038146D01*
X162614745Y-100029603D01*
X162610818Y-100021379D01*
X162606468Y-100013478D01*
X162601662Y-100005907D01*
X162596417Y-99998657D01*
X162590734Y-99991749D01*
X162584595Y-99985181D01*
X162578003Y-99978957D01*
X162570949Y-99973079D01*
X162563423Y-99967545D01*
X162555443Y-99962375D01*
X162546984Y-99957558D01*
X162538048Y-99953107D01*
X162528631Y-99949018D01*
X162518730Y-99945309D01*
X162508340Y-99941961D01*
X162497452Y-99938993D01*
X162486074Y-99936424D01*
X162474189Y-99934224D01*
X162461800Y-99932416D01*
X162448904Y-99931007D01*
X162435492Y-99929994D01*
X162421561Y-99929386D01*
X162407110Y-99929185D01*
X162378494Y-99929994D01*
X162351978Y-99932415D01*
X162339504Y-99934221D01*
X162327538Y-99936419D01*
X162316083Y-99938990D01*
X162305123Y-99941953D01*
X162294675Y-99945298D01*
X162284717Y-99949010D01*
X162275247Y-99953098D01*
X162266261Y-99957548D01*
X162257762Y-99962365D01*
X162249734Y-99967535D01*
X162242176Y-99973067D01*
X162235093Y-99978939D01*
X162228478Y-99985164D01*
X162222316Y-99991732D01*
X162216607Y-99998643D01*
X162211360Y-100005890D01*
X162206547Y-100013458D01*
X162202178Y-100021366D01*
X162198248Y-100029589D01*
X162194746Y-100038129D01*
X162191674Y-100046995D01*
X162189032Y-100056165D01*
X162186799Y-100065644D01*
X162184987Y-100075423D01*
X162182592Y-100095887D01*
X162181806Y-100117518D01*
X162182164Y-100128634D01*
X162183238Y-100139550D01*
X162184985Y-100150238D01*
X162187400Y-100160707D01*
X162190428Y-100170924D01*
X162194061Y-100180892D01*
X162198264Y-100190598D01*
X162203014Y-100200033D01*
X162208285Y-100209184D01*
X162214046Y-100218042D01*
X162220273Y-100226588D01*
X162226933Y-100234818D01*
X162233997Y-100242723D01*
X162241457Y-100250288D01*
X162249262Y-100257509D01*
X162257402Y-100264360D01*
X162161830Y-100371339D01*
X162148423Y-100359300D01*
X162135531Y-100346690D01*
X162123211Y-100333504D01*
X162111502Y-100319769D01*
X162100452Y-100305461D01*
X162090118Y-100290599D01*
X162080539Y-100275183D01*
X162071761Y-100259204D01*
X162063842Y-100242680D01*
X162056810Y-100225606D01*
X162050735Y-100207979D01*
X162045663Y-100189815D01*
X162041627Y-100171110D01*
X162038688Y-100151860D01*
X162037647Y-100142037D01*
X162036886Y-100132080D01*
X162036435Y-100121984D01*
X162036281Y-100111759D01*
X162037531Y-100080572D01*
X162039104Y-100065103D01*
X162041343Y-100049751D01*
X162044221Y-100034545D01*
X162047778Y-100019518D01*
X162052004Y-100004692D01*
X162056916Y-99990095D01*
X162062538Y-99975768D01*
X162068859Y-99961727D01*
X162075904Y-99947999D01*
X162083670Y-99934632D01*
X162092178Y-99921621D01*
X162101424Y-99909027D01*
X162111444Y-99896857D01*
X162122221Y-99885151D01*
X162133774Y-99873939D01*
X162146120Y-99863232D01*
X162159257Y-99853079D01*
X162173209Y-99843501D01*
X162187974Y-99834526D01*
X162203563Y-99826173D01*
X162219990Y-99818492D01*
X162237262Y-99811492D01*
X162255391Y-99805205D01*
X162274387Y-99799674D01*
X162294255Y-99794910D01*
X162315018Y-99790952D01*
X162336670Y-99787821D01*
X162359233Y-99785551D01*
X162382709Y-99784163D01*
X162407110Y-99783697D01*
X162431399Y-99784163D01*
G37*
G36*
X163609086Y-96700619D02*
G01*
X163659333Y-96702457D01*
X163680935Y-96703912D01*
X163700455Y-96705760D01*
X163718096Y-96708031D01*
X163734041Y-96710741D01*
X163748506Y-96713926D01*
X163761679Y-96717596D01*
X163773762Y-96721789D01*
X163784955Y-96726523D01*
X163795457Y-96731828D01*
X163805466Y-96737725D01*
X163815168Y-96744247D01*
X163824780Y-96751404D01*
X163834774Y-96759424D01*
X163844390Y-96767986D01*
X163853600Y-96777087D01*
X163862365Y-96786726D01*
X163870638Y-96796911D01*
X163878401Y-96807629D01*
X163885596Y-96818913D01*
X163892199Y-96830735D01*
X163898162Y-96843109D01*
X163900893Y-96849505D01*
X163903451Y-96856039D01*
X163905829Y-96862722D01*
X163908025Y-96869528D01*
X163910042Y-96876481D01*
X163911863Y-96883573D01*
X163913481Y-96890808D01*
X163914907Y-96898178D01*
X163916122Y-96905691D01*
X163917124Y-96913347D01*
X163917913Y-96921140D01*
X163918487Y-96929077D01*
X163918837Y-96937156D01*
X163918950Y-96945374D01*
X163918549Y-96959205D01*
X163917378Y-96972836D01*
X163915456Y-96986263D01*
X163912810Y-96999457D01*
X163909462Y-97012401D01*
X163905461Y-97025082D01*
X163900817Y-97037460D01*
X163895560Y-97049527D01*
X163889716Y-97061262D01*
X163883315Y-97072638D01*
X163876393Y-97083641D01*
X163868961Y-97094240D01*
X163861056Y-97104427D01*
X163852707Y-97114171D01*
X163843935Y-97123461D01*
X163834769Y-97132265D01*
X163910373Y-97132265D01*
X163910373Y-97277742D01*
X162894706Y-97277742D01*
X162894706Y-97132265D01*
X163264206Y-97132265D01*
X163254782Y-97122043D01*
X163245782Y-97111706D01*
X163237243Y-97101242D01*
X163229167Y-97090627D01*
X163221603Y-97079835D01*
X163214560Y-97068869D01*
X163208068Y-97057701D01*
X163202155Y-97046314D01*
X163196845Y-97034692D01*
X163192162Y-97022822D01*
X163188128Y-97010680D01*
X163184768Y-96998251D01*
X163182964Y-96989601D01*
X163324064Y-96989601D01*
X163324409Y-97001936D01*
X163325425Y-97013543D01*
X163327107Y-97024434D01*
X163329414Y-97034646D01*
X163332324Y-97044192D01*
X163335812Y-97053096D01*
X163339849Y-97061377D01*
X163344419Y-97069071D01*
X163349497Y-97076183D01*
X163355045Y-97082746D01*
X163361053Y-97088777D01*
X163367488Y-97094300D01*
X163374327Y-97099333D01*
X163381551Y-97103912D01*
X163389127Y-97108042D01*
X163397022Y-97111753D01*
X163405240Y-97115077D01*
X163413731Y-97118013D01*
X163422475Y-97120604D01*
X163431449Y-97122856D01*
X163440635Y-97124809D01*
X163449997Y-97126473D01*
X163469166Y-97129028D01*
X163488761Y-97130710D01*
X163508591Y-97131692D01*
X163528436Y-97132151D01*
X163548124Y-97132265D01*
X163588106Y-97131692D01*
X163608109Y-97130710D01*
X163627862Y-97129028D01*
X163647154Y-97126473D01*
X163665800Y-97122856D01*
X163683599Y-97118013D01*
X163692124Y-97115077D01*
X163700363Y-97111753D01*
X163708290Y-97108042D01*
X163715881Y-97103912D01*
X163723122Y-97099333D01*
X163729977Y-97094300D01*
X163736419Y-97088777D01*
X163742433Y-97082746D01*
X163747989Y-97076183D01*
X163753064Y-97069071D01*
X163757643Y-97061377D01*
X163761680Y-97053096D01*
X163765172Y-97044192D01*
X163768077Y-97034646D01*
X163770380Y-97024434D01*
X163772061Y-97013543D01*
X163773082Y-97001936D01*
X163773430Y-96989601D01*
X163773101Y-96977139D01*
X163772129Y-96965416D01*
X163770551Y-96954404D01*
X163768362Y-96944095D01*
X163765609Y-96934448D01*
X163762291Y-96925453D01*
X163758433Y-96917083D01*
X163754066Y-96909322D01*
X163749204Y-96902133D01*
X163743865Y-96895507D01*
X163738070Y-96889414D01*
X163731843Y-96883839D01*
X163725204Y-96878753D01*
X163718174Y-96874132D01*
X163710771Y-96869959D01*
X163703022Y-96866215D01*
X163694935Y-96862870D01*
X163686540Y-96859895D01*
X163677865Y-96857286D01*
X163668919Y-96855007D01*
X163659719Y-96853039D01*
X163650292Y-96851363D01*
X163630851Y-96848790D01*
X163610742Y-96847093D01*
X163590143Y-96846105D01*
X163569214Y-96845645D01*
X163548124Y-96845531D01*
X163506530Y-96846105D01*
X163486102Y-96847093D01*
X163466146Y-96848790D01*
X163446821Y-96851363D01*
X163428300Y-96855007D01*
X163410755Y-96859895D01*
X163402397Y-96862870D01*
X163394347Y-96866215D01*
X163386614Y-96869959D01*
X163379234Y-96874132D01*
X163372223Y-96878753D01*
X163365602Y-96883839D01*
X163359384Y-96889414D01*
X163353597Y-96895507D01*
X163348265Y-96902133D01*
X163343410Y-96909322D01*
X163339047Y-96917083D01*
X163335196Y-96925453D01*
X163331877Y-96934448D01*
X163329123Y-96944095D01*
X163326936Y-96954404D01*
X163325350Y-96965416D01*
X163324381Y-96977139D01*
X163324064Y-96989601D01*
X163182964Y-96989601D01*
X163182115Y-96985527D01*
X163180184Y-96972487D01*
X163179016Y-96959108D01*
X163178619Y-96945374D01*
X163179087Y-96929077D01*
X163180441Y-96913347D01*
X163182655Y-96898178D01*
X163185697Y-96883573D01*
X163189521Y-96869528D01*
X163194098Y-96856039D01*
X163199383Y-96843109D01*
X163205344Y-96830735D01*
X163211938Y-96818913D01*
X163219132Y-96807629D01*
X163226887Y-96796911D01*
X163235164Y-96786726D01*
X163243935Y-96777087D01*
X163253153Y-96767986D01*
X163262776Y-96759424D01*
X163272785Y-96751404D01*
X163282377Y-96744247D01*
X163292076Y-96737725D01*
X163302060Y-96731828D01*
X163312541Y-96726523D01*
X163318029Y-96724085D01*
X163323706Y-96721789D01*
X163329616Y-96719626D01*
X163335760Y-96717596D01*
X163342179Y-96715693D01*
X163348892Y-96713926D01*
X163363296Y-96710743D01*
X163379179Y-96708031D01*
X163396731Y-96705760D01*
X163416147Y-96703912D01*
X163437627Y-96702457D01*
X163461372Y-96701366D01*
X163487565Y-96700619D01*
X163516420Y-96700187D01*
X163548124Y-96700048D01*
X163609086Y-96700619D01*
G37*
G36*
X162435751Y-95464126D02*
G01*
X162461624Y-95465599D01*
X162486217Y-95468013D01*
X162509585Y-95471331D01*
X162531740Y-95475514D01*
X162552715Y-95480527D01*
X162572545Y-95486342D01*
X162591247Y-95492909D01*
X162608860Y-95500203D01*
X162625400Y-95508183D01*
X162640906Y-95516805D01*
X162655406Y-95526052D01*
X162668911Y-95535879D01*
X162681476Y-95546241D01*
X162693108Y-95557117D01*
X162703852Y-95568460D01*
X162713712Y-95580240D01*
X162722741Y-95592418D01*
X162730956Y-95604957D01*
X162738386Y-95617823D01*
X162745062Y-95630973D01*
X162751010Y-95644392D01*
X162760825Y-95671832D01*
X162768069Y-95699853D01*
X162772968Y-95728169D01*
X162775736Y-95756502D01*
X162776618Y-95784554D01*
X162776206Y-95802692D01*
X162774978Y-95820707D01*
X162772908Y-95838561D01*
X162769966Y-95856245D01*
X162766149Y-95873722D01*
X162761419Y-95890980D01*
X162755754Y-95907979D01*
X162749158Y-95924707D01*
X162741576Y-95941134D01*
X162733008Y-95957230D01*
X162723434Y-95972983D01*
X162712821Y-95988354D01*
X162701163Y-96003326D01*
X162688425Y-96017868D01*
X162674597Y-96031969D01*
X162659646Y-96045590D01*
X162569832Y-95940020D01*
X162577904Y-95931805D01*
X162585533Y-95923222D01*
X162592705Y-95914294D01*
X162599409Y-95905071D01*
X162605644Y-95895557D01*
X162611378Y-95885804D01*
X162616636Y-95875841D01*
X162621373Y-95865696D01*
X162625593Y-95855398D01*
X162629285Y-95844985D01*
X162632446Y-95834477D01*
X162635050Y-95823915D01*
X162637085Y-95813330D01*
X162638558Y-95802750D01*
X162639449Y-95792211D01*
X162639748Y-95781736D01*
X162639569Y-95772454D01*
X162639046Y-95763334D01*
X162638171Y-95754392D01*
X162636939Y-95745640D01*
X162635366Y-95737075D01*
X162633439Y-95728706D01*
X162631165Y-95720556D01*
X162628533Y-95712620D01*
X162625561Y-95704909D01*
X162622237Y-95697435D01*
X162618560Y-95690197D01*
X162614542Y-95683217D01*
X162610171Y-95676491D01*
X162605459Y-95670039D01*
X162600393Y-95663861D01*
X162594985Y-95657962D01*
X162589222Y-95652353D01*
X162583119Y-95647055D01*
X162576668Y-95642065D01*
X162569872Y-95637390D01*
X162562728Y-95633044D01*
X162555241Y-95629026D01*
X162547409Y-95625352D01*
X162539226Y-95622032D01*
X162530704Y-95619066D01*
X162521837Y-95616476D01*
X162512625Y-95614262D01*
X162503067Y-95612430D01*
X162493165Y-95610984D01*
X162482917Y-95609951D01*
X162472335Y-95609319D01*
X162461403Y-95609105D01*
X162461403Y-96059850D01*
X162341581Y-96059850D01*
X162324255Y-96059447D01*
X162307346Y-96058256D01*
X162290858Y-96056295D01*
X162274798Y-96053586D01*
X162259174Y-96050154D01*
X162243991Y-96046023D01*
X162229273Y-96041211D01*
X162215017Y-96035732D01*
X162201237Y-96029617D01*
X162187946Y-96022883D01*
X162175144Y-96015556D01*
X162162834Y-96007649D01*
X162151046Y-95999192D01*
X162139770Y-95990198D01*
X162129035Y-95980696D01*
X162118830Y-95970701D01*
X162109177Y-95960242D01*
X162100079Y-95949338D01*
X162091545Y-95938010D01*
X162083590Y-95926271D01*
X162076223Y-95914151D01*
X162069441Y-95901673D01*
X162063261Y-95888861D01*
X162057700Y-95875725D01*
X162052756Y-95862291D01*
X162048439Y-95848581D01*
X162044759Y-95834619D01*
X162041731Y-95820424D01*
X162039360Y-95806022D01*
X162037660Y-95791433D01*
X162036623Y-95776664D01*
X162036281Y-95761761D01*
X162173262Y-95761761D01*
X162173435Y-95769713D01*
X162173949Y-95777521D01*
X162174801Y-95785200D01*
X162175988Y-95792713D01*
X162177516Y-95800068D01*
X162179383Y-95807260D01*
X162181576Y-95814278D01*
X162184110Y-95821110D01*
X162186975Y-95827761D01*
X162190178Y-95834216D01*
X162193694Y-95840475D01*
X162197550Y-95846530D01*
X162201730Y-95852370D01*
X162206239Y-95857996D01*
X162211070Y-95863389D01*
X162216220Y-95868558D01*
X162221700Y-95873484D01*
X162227497Y-95878170D01*
X162233618Y-95882596D01*
X162240054Y-95886770D01*
X162246802Y-95890678D01*
X162253864Y-95894318D01*
X162261252Y-95897677D01*
X162268941Y-95900758D01*
X162276951Y-95903543D01*
X162285269Y-95906032D01*
X162293890Y-95908215D01*
X162302830Y-95910097D01*
X162312071Y-95911654D01*
X162321616Y-95912889D01*
X162331466Y-95913793D01*
X162341617Y-95914367D01*
X162341617Y-95609105D01*
X162331466Y-95609556D01*
X162321616Y-95610353D01*
X162312071Y-95611494D01*
X162302830Y-95612973D01*
X162293890Y-95614789D01*
X162285269Y-95616923D01*
X162276949Y-95619370D01*
X162268939Y-95622129D01*
X162261251Y-95625185D01*
X162253864Y-95628535D01*
X162246802Y-95632183D01*
X162240053Y-95636091D01*
X162233617Y-95640287D01*
X162227497Y-95644738D01*
X162221700Y-95649451D01*
X162216220Y-95654406D01*
X162211070Y-95659607D01*
X162206239Y-95665043D01*
X162201730Y-95670716D01*
X162197550Y-95676599D01*
X162193694Y-95682698D01*
X162190178Y-95688999D01*
X162186975Y-95695503D01*
X162184110Y-95702199D01*
X162181576Y-95709077D01*
X162179383Y-95716130D01*
X162177516Y-95723355D01*
X162175988Y-95730744D01*
X162174801Y-95738285D01*
X162173949Y-95745969D01*
X162173435Y-95753796D01*
X162173262Y-95761761D01*
X162036281Y-95761761D01*
X162037377Y-95735364D01*
X162040757Y-95708797D01*
X162043345Y-95695527D01*
X162046564Y-95682310D01*
X162050425Y-95669187D01*
X162054945Y-95656179D01*
X162060144Y-95643321D01*
X162066043Y-95630640D01*
X162072653Y-95618185D01*
X162079997Y-95605969D01*
X162088093Y-95594037D01*
X162096961Y-95582424D01*
X162106621Y-95571146D01*
X162117077Y-95560253D01*
X162128362Y-95549766D01*
X162140483Y-95539719D01*
X162153466Y-95530145D01*
X162167321Y-95521084D01*
X162182079Y-95512558D01*
X162197747Y-95504611D01*
X162214342Y-95497249D01*
X162231890Y-95490543D01*
X162250408Y-95484494D01*
X162269905Y-95479158D01*
X162290409Y-95474544D01*
X162311929Y-95470697D01*
X162334496Y-95467654D01*
X162341617Y-95466985D01*
X162358119Y-95465439D01*
X162382817Y-95464086D01*
X162408601Y-95463626D01*
X162435751Y-95464126D01*
G37*
G36*
X162435751Y-100408856D02*
G01*
X162461624Y-100410335D01*
X162486217Y-100412749D01*
X162509585Y-100416063D01*
X162531740Y-100420242D01*
X162552715Y-100425260D01*
X162572545Y-100431072D01*
X162591247Y-100437642D01*
X162608860Y-100444929D01*
X162625400Y-100452915D01*
X162640906Y-100461541D01*
X162655406Y-100470787D01*
X162668911Y-100480615D01*
X162681476Y-100490977D01*
X162693108Y-100501860D01*
X162703852Y-100513197D01*
X162713712Y-100524972D01*
X162722741Y-100537152D01*
X162730956Y-100549699D01*
X162738386Y-100562564D01*
X162745062Y-100575722D01*
X162751010Y-100589134D01*
X162760825Y-100616574D01*
X162768069Y-100644603D01*
X162772968Y-100672933D01*
X162775736Y-100701268D01*
X162776618Y-100729321D01*
X162776206Y-100747454D01*
X162774978Y-100765462D01*
X162772908Y-100783322D01*
X162769966Y-100801003D01*
X162766149Y-100818483D01*
X162761419Y-100835742D01*
X162755754Y-100852745D01*
X162749158Y-100869474D01*
X162741576Y-100885904D01*
X162733008Y-100901997D01*
X162723434Y-100917742D01*
X162712821Y-100933121D01*
X162701163Y-100948086D01*
X162688425Y-100962631D01*
X162674597Y-100976715D01*
X162659646Y-100990319D01*
X162569832Y-100884753D01*
X162577904Y-100876531D01*
X162585533Y-100867944D01*
X162592705Y-100859013D01*
X162599409Y-100849782D01*
X162605644Y-100840276D01*
X162611378Y-100830521D01*
X162616636Y-100820559D01*
X162621373Y-100810406D01*
X162625593Y-100800117D01*
X162629285Y-100789704D01*
X162632446Y-100779200D01*
X162635050Y-100768647D01*
X162637085Y-100758057D01*
X162638558Y-100747482D01*
X162639449Y-100736941D01*
X162639748Y-100726464D01*
X162639569Y-100717178D01*
X162639046Y-100708058D01*
X162638171Y-100699127D01*
X162636939Y-100690373D01*
X162635366Y-100681811D01*
X162633439Y-100673445D01*
X162631165Y-100665290D01*
X162628533Y-100657362D01*
X162625561Y-100649646D01*
X162622237Y-100642177D01*
X162618560Y-100634942D01*
X162614542Y-100627959D01*
X162610171Y-100621238D01*
X162605459Y-100614784D01*
X162600393Y-100608615D01*
X162594985Y-100602716D01*
X162589222Y-100597114D01*
X162583119Y-100591813D01*
X162576668Y-100586817D01*
X162569872Y-100582143D01*
X162562728Y-100577805D01*
X162555241Y-100573788D01*
X162547409Y-100570116D01*
X162539226Y-100566798D01*
X162530704Y-100563833D01*
X162521837Y-100561245D01*
X162512625Y-100559025D01*
X162503067Y-100557196D01*
X162493165Y-100555760D01*
X162482917Y-100554721D01*
X162472335Y-100554089D01*
X162461403Y-100553877D01*
X162461403Y-101004612D01*
X162341581Y-101004612D01*
X162324255Y-101004213D01*
X162307346Y-101003026D01*
X162290858Y-101001062D01*
X162274798Y-100998352D01*
X162259174Y-100994921D01*
X162243991Y-100990785D01*
X162229273Y-100985967D01*
X162215017Y-100980488D01*
X162201237Y-100974370D01*
X162187946Y-100967630D01*
X162175144Y-100960289D01*
X162162834Y-100952388D01*
X162151046Y-100943920D01*
X162139770Y-100934924D01*
X162129035Y-100925415D01*
X162118830Y-100915422D01*
X162109177Y-100904955D01*
X162100079Y-100894048D01*
X162091545Y-100882717D01*
X162083590Y-100870979D01*
X162076223Y-100858855D01*
X162069441Y-100846375D01*
X162063261Y-100833564D01*
X162057700Y-100820423D01*
X162052756Y-100806991D01*
X162048439Y-100793288D01*
X162044759Y-100779330D01*
X162041731Y-100765133D01*
X162039360Y-100750734D01*
X162037660Y-100736152D01*
X162036623Y-100721385D01*
X162036281Y-100706483D01*
X162173262Y-100706483D01*
X162173435Y-100714444D01*
X162173949Y-100722258D01*
X162174801Y-100729930D01*
X162175988Y-100737440D01*
X162177516Y-100744796D01*
X162179383Y-100751981D01*
X162181576Y-100759001D01*
X162184110Y-100765830D01*
X162186975Y-100772483D01*
X162190178Y-100778943D01*
X162193694Y-100785198D01*
X162197550Y-100791252D01*
X162201730Y-100797092D01*
X162206239Y-100802712D01*
X162211070Y-100808110D01*
X162216220Y-100813266D01*
X162221700Y-100818195D01*
X162227497Y-100822883D01*
X162233618Y-100827308D01*
X162240054Y-100831482D01*
X162246802Y-100835394D01*
X162253864Y-100839031D01*
X162261252Y-100842384D01*
X162268941Y-100845470D01*
X162276951Y-100848252D01*
X162285269Y-100850746D01*
X162293890Y-100852932D01*
X162302830Y-100854816D01*
X162312071Y-100856370D01*
X162321616Y-100857613D01*
X162331466Y-100858519D01*
X162341617Y-100859103D01*
X162341617Y-100553877D01*
X162331466Y-100554320D01*
X162321616Y-100555115D01*
X162312071Y-100556258D01*
X162302830Y-100557729D01*
X162293890Y-100559544D01*
X162285269Y-100561674D01*
X162276949Y-100564114D01*
X162268939Y-100566875D01*
X162261251Y-100569931D01*
X162253864Y-100573283D01*
X162246802Y-100576922D01*
X162240053Y-100580836D01*
X162233617Y-100585019D01*
X162227497Y-100589479D01*
X162221700Y-100594183D01*
X162216220Y-100599143D01*
X162211070Y-100604340D01*
X162206239Y-100609780D01*
X162201730Y-100615437D01*
X162197550Y-100621331D01*
X162193694Y-100627430D01*
X162190178Y-100633732D01*
X162186975Y-100640230D01*
X162184110Y-100646927D01*
X162181576Y-100653807D01*
X162179383Y-100660865D01*
X162177516Y-100668092D01*
X162175988Y-100675468D01*
X162174801Y-100683006D01*
X162173949Y-100690701D01*
X162173435Y-100698528D01*
X162173262Y-100706483D01*
X162036281Y-100706483D01*
X162037377Y-100680085D01*
X162040757Y-100653513D01*
X162043345Y-100640248D01*
X162046564Y-100627032D01*
X162050425Y-100613901D01*
X162054945Y-100600892D01*
X162060144Y-100588035D01*
X162066043Y-100575357D01*
X162072653Y-100562897D01*
X162079997Y-100550686D01*
X162088093Y-100538750D01*
X162096961Y-100527138D01*
X162106621Y-100515862D01*
X162117077Y-100504967D01*
X162128362Y-100494476D01*
X162140483Y-100484437D01*
X162153466Y-100474866D01*
X162167321Y-100465807D01*
X162182079Y-100457285D01*
X162197747Y-100449328D01*
X162214342Y-100441979D01*
X162231890Y-100435272D01*
X162250408Y-100429222D01*
X162269905Y-100423882D01*
X162290409Y-100419272D01*
X162311929Y-100415432D01*
X162334496Y-100412387D01*
X162341617Y-100411716D01*
X162358119Y-100410166D01*
X162382817Y-100408809D01*
X162408601Y-100408356D01*
X162435751Y-100408856D01*
G37*
G36*
X163577981Y-99623932D02*
G01*
X163603848Y-99625413D01*
X163628452Y-99627828D01*
X163651825Y-99631139D01*
X163673988Y-99635334D01*
X163694969Y-99640342D01*
X163714800Y-99646150D01*
X163733510Y-99652724D01*
X163751128Y-99660014D01*
X163767675Y-99668000D01*
X163783180Y-99676628D01*
X163797677Y-99685873D01*
X163811195Y-99695694D01*
X163823762Y-99706059D01*
X163835399Y-99716936D01*
X163846133Y-99728281D01*
X163856011Y-99740057D01*
X163865032Y-99752236D01*
X163873248Y-99764772D01*
X163880672Y-99777644D01*
X163887352Y-99790798D01*
X163893301Y-99804216D01*
X163903125Y-99831649D01*
X163910367Y-99859689D01*
X163915264Y-99888015D01*
X163918037Y-99916347D01*
X163918902Y-99944402D01*
X163918507Y-99962533D01*
X163917273Y-99980542D01*
X163915199Y-99998393D01*
X163912268Y-100016069D01*
X163908444Y-100033543D01*
X163903717Y-100050799D01*
X163898065Y-100067797D01*
X163891451Y-100084524D01*
X163883877Y-100100948D01*
X163875307Y-100117049D01*
X163865733Y-100132792D01*
X163855117Y-100148162D01*
X163843457Y-100163138D01*
X163830722Y-100177685D01*
X163816892Y-100191782D01*
X163801946Y-100205400D01*
X163712050Y-100099832D01*
X163720135Y-100091613D01*
X163727770Y-100083014D01*
X163734951Y-100074090D01*
X163741667Y-100064850D01*
X163747898Y-100055339D01*
X163753643Y-100045581D01*
X163758888Y-100035615D01*
X163763621Y-100025457D01*
X163767841Y-100015161D01*
X163771531Y-100004751D01*
X163774675Y-99994244D01*
X163777271Y-99983690D01*
X163779314Y-99973110D01*
X163780777Y-99962537D01*
X163781663Y-99952004D01*
X163781971Y-99941547D01*
X163781789Y-99932265D01*
X163781265Y-99923147D01*
X163780389Y-99914207D01*
X163779164Y-99905446D01*
X163777589Y-99896893D01*
X163775654Y-99888528D01*
X163773380Y-99880375D01*
X163770759Y-99872441D01*
X163767777Y-99864732D01*
X163764458Y-99857259D01*
X163760784Y-99850021D01*
X163756763Y-99843041D01*
X163752395Y-99836320D01*
X163747677Y-99829868D01*
X163742612Y-99823690D01*
X163737213Y-99817791D01*
X163731452Y-99812193D01*
X163725349Y-99806897D01*
X163718904Y-99801903D01*
X163712112Y-99797228D01*
X163704968Y-99792883D01*
X163697481Y-99788867D01*
X163689649Y-99785197D01*
X163681477Y-99781880D01*
X163672953Y-99778917D01*
X163664097Y-99776332D01*
X163654891Y-99774107D01*
X163645331Y-99772281D01*
X163635442Y-99770841D01*
X163625204Y-99769795D01*
X163614622Y-99769168D01*
X163603697Y-99768963D01*
X163603697Y-100219619D01*
X163483795Y-100219619D01*
X163466480Y-100219212D01*
X163449575Y-100218032D01*
X163433098Y-100216065D01*
X163417039Y-100213364D01*
X163401416Y-100209929D01*
X163386242Y-100205800D01*
X163371531Y-100200988D01*
X163357283Y-100195511D01*
X163343506Y-100189394D01*
X163330212Y-100182668D01*
X163317411Y-100175332D01*
X163305113Y-100167429D01*
X163293327Y-100158973D01*
X163282058Y-100149987D01*
X163271316Y-100140482D01*
X163261118Y-100130493D01*
X163251468Y-100120038D01*
X163242369Y-100109131D01*
X163233841Y-100097801D01*
X163225885Y-100086076D01*
X163218511Y-100073954D01*
X163211738Y-100061475D01*
X163205559Y-100048662D01*
X163199993Y-100035528D01*
X163195047Y-100022098D01*
X163190735Y-100008390D01*
X163187056Y-99994431D01*
X163184033Y-99980237D01*
X163181653Y-99965838D01*
X163179952Y-99951239D01*
X163178924Y-99936478D01*
X163178579Y-99921569D01*
X163315477Y-99921569D01*
X163315648Y-99929519D01*
X163316160Y-99937344D01*
X163317017Y-99945005D01*
X163318210Y-99952527D01*
X163319740Y-99959877D01*
X163321605Y-99967069D01*
X163323803Y-99974089D01*
X163326341Y-99980922D01*
X163329204Y-99987575D01*
X163332404Y-99994039D01*
X163335930Y-100000302D01*
X163339786Y-100006350D01*
X163343971Y-100012196D01*
X163348478Y-100017819D01*
X163353315Y-100023216D01*
X163358471Y-100028386D01*
X163363948Y-100033316D01*
X163369743Y-100037993D01*
X163375863Y-100042423D01*
X163382303Y-100046599D01*
X163389050Y-100050512D01*
X163396120Y-100054147D01*
X163403500Y-100057504D01*
X163411197Y-100060583D01*
X163419198Y-100063375D01*
X163427518Y-100065856D01*
X163436136Y-100068043D01*
X163445072Y-100069919D01*
X163454303Y-100071474D01*
X163463846Y-100072711D01*
X163473692Y-100073617D01*
X163483835Y-100074180D01*
X163483835Y-99768963D01*
X163473692Y-99769401D01*
X163463846Y-99770196D01*
X163454303Y-99771341D01*
X163445072Y-99772817D01*
X163436136Y-99774625D01*
X163427518Y-99776754D01*
X163419198Y-99779207D01*
X163411197Y-99781955D01*
X163403500Y-99785016D01*
X163396120Y-99788365D01*
X163389050Y-99792001D01*
X163382303Y-99795919D01*
X163375863Y-99800106D01*
X163369742Y-99804556D01*
X163363948Y-99809266D01*
X163358471Y-99814229D01*
X163353315Y-99819428D01*
X163348477Y-99824868D01*
X163343971Y-99830533D01*
X163339786Y-99836410D01*
X163335929Y-99842510D01*
X163332404Y-99848813D01*
X163329204Y-99855320D01*
X163326340Y-99862008D01*
X163323803Y-99868885D01*
X163321605Y-99875937D01*
X163319740Y-99883163D01*
X163318210Y-99890551D01*
X163317017Y-99898096D01*
X163316160Y-99905778D01*
X163315648Y-99913606D01*
X163315477Y-99921569D01*
X163178579Y-99921569D01*
X163179674Y-99895183D01*
X163183043Y-99868620D01*
X163185639Y-99855359D01*
X163188852Y-99842142D01*
X163192710Y-99829019D01*
X163197226Y-99816006D01*
X163202428Y-99803146D01*
X163208317Y-99790472D01*
X163214931Y-99778021D01*
X163222272Y-99765800D01*
X163230364Y-99753873D01*
X163239228Y-99742252D01*
X163248874Y-99730978D01*
X163259329Y-99720074D01*
X163270613Y-99709589D01*
X163282730Y-99699544D01*
X163295709Y-99689971D01*
X163309559Y-99680903D01*
X163324312Y-99672379D01*
X163339977Y-99664426D01*
X163356573Y-99657076D01*
X163374119Y-99650358D01*
X163392631Y-99644314D01*
X163412133Y-99638969D01*
X163432630Y-99634360D01*
X163454155Y-99630515D01*
X163476715Y-99627465D01*
X163483835Y-99626796D01*
X163500334Y-99625249D01*
X163525034Y-99623891D01*
X163550819Y-99623440D01*
X163577981Y-99623932D01*
G37*
G36*
X163709509Y-95467688D02*
G01*
X163721001Y-95468507D01*
X163732291Y-95469872D01*
X163743376Y-95471772D01*
X163754233Y-95474203D01*
X163764853Y-95477162D01*
X163775230Y-95480645D01*
X163785342Y-95484639D01*
X163795186Y-95489149D01*
X163804751Y-95494163D01*
X163814008Y-95499676D01*
X163822965Y-95505696D01*
X163831600Y-95512202D01*
X163839905Y-95519195D01*
X163847862Y-95526673D01*
X163855467Y-95534621D01*
X163862708Y-95543048D01*
X163869561Y-95551941D01*
X163876029Y-95561298D01*
X163882087Y-95571107D01*
X163887736Y-95581378D01*
X163892948Y-95592085D01*
X163897729Y-95603242D01*
X163902055Y-95614836D01*
X163905914Y-95626856D01*
X163909300Y-95639311D01*
X163912200Y-95652187D01*
X163914593Y-95665477D01*
X163916492Y-95679183D01*
X163917847Y-95693298D01*
X163918672Y-95707817D01*
X163918950Y-95722728D01*
X163918683Y-95740625D01*
X163917875Y-95757425D01*
X163916517Y-95773174D01*
X163914598Y-95787910D01*
X163912137Y-95801676D01*
X163909101Y-95814515D01*
X163905490Y-95826464D01*
X163901304Y-95837571D01*
X163896534Y-95847876D01*
X163891164Y-95857419D01*
X163885201Y-95866248D01*
X163878630Y-95874393D01*
X163871446Y-95881902D01*
X163863648Y-95888820D01*
X163855218Y-95895186D01*
X163846171Y-95901028D01*
X163846171Y-95903897D01*
X163910373Y-95903897D01*
X163910373Y-96049416D01*
X163416821Y-96049416D01*
X163400445Y-96049058D01*
X163384764Y-96047994D01*
X163369749Y-96046236D01*
X163355401Y-96043797D01*
X163341699Y-96040688D01*
X163328638Y-96036920D01*
X163316201Y-96032509D01*
X163304390Y-96027460D01*
X163293188Y-96021791D01*
X163282584Y-96015520D01*
X163272556Y-96008650D01*
X163263112Y-96001194D01*
X163254226Y-95993166D01*
X163245898Y-95984583D01*
X163238118Y-95975448D01*
X163230870Y-95965785D01*
X163224140Y-95955596D01*
X163217927Y-95944895D01*
X163212202Y-95933707D01*
X163206986Y-95922017D01*
X163202234Y-95909863D01*
X163197962Y-95897240D01*
X163194138Y-95884178D01*
X163190772Y-95870679D01*
X163187834Y-95856750D01*
X163185327Y-95842415D01*
X163181542Y-95812552D01*
X163179333Y-95781189D01*
X163178619Y-95748428D01*
X163178959Y-95728431D01*
X163179989Y-95709095D01*
X163181750Y-95690418D01*
X163184275Y-95672395D01*
X163187574Y-95655008D01*
X163191691Y-95638264D01*
X163196655Y-95622154D01*
X163202492Y-95606668D01*
X163209231Y-95591794D01*
X163216909Y-95577540D01*
X163225544Y-95563889D01*
X163235164Y-95550835D01*
X163245818Y-95538381D01*
X163257514Y-95526511D01*
X163270294Y-95515219D01*
X163284185Y-95504509D01*
X163371186Y-95618614D01*
X163367386Y-95621052D01*
X163363741Y-95623551D01*
X163360249Y-95626116D01*
X163356918Y-95628764D01*
X163353726Y-95631488D01*
X163350682Y-95634299D01*
X163347784Y-95637206D01*
X163345028Y-95640199D01*
X163342419Y-95643305D01*
X163339936Y-95646514D01*
X163337589Y-95649841D01*
X163335381Y-95653281D01*
X163333304Y-95656851D01*
X163331346Y-95660548D01*
X163329523Y-95664377D01*
X163327817Y-95668357D01*
X163326234Y-95672478D01*
X163324776Y-95676743D01*
X163323426Y-95681176D01*
X163322198Y-95685769D01*
X163321078Y-95690528D01*
X163320058Y-95695460D01*
X163319168Y-95700573D01*
X163318363Y-95705870D01*
X163317075Y-95717039D01*
X163316174Y-95729021D01*
X163315648Y-95741841D01*
X163315477Y-95755546D01*
X163315771Y-95774380D01*
X163316655Y-95791817D01*
X163318177Y-95807907D01*
X163320351Y-95822658D01*
X163323209Y-95836093D01*
X163326788Y-95848247D01*
X163331102Y-95859128D01*
X163333546Y-95864105D01*
X163336194Y-95868769D01*
X163339042Y-95873128D01*
X163342095Y-95877188D01*
X163345348Y-95880946D01*
X163348814Y-95884410D01*
X163352499Y-95887575D01*
X163356398Y-95890455D01*
X163360528Y-95893054D01*
X163364876Y-95895357D01*
X163369456Y-95897380D01*
X163374271Y-95899129D01*
X163379312Y-95900596D01*
X163384602Y-95901788D01*
X163390136Y-95902718D01*
X163395922Y-95903374D01*
X163408239Y-95903897D01*
X163483836Y-95903897D01*
X163483836Y-95729897D01*
X163603624Y-95729897D01*
X163603624Y-95903897D01*
X163656420Y-95903897D01*
X163666703Y-95903768D01*
X163676416Y-95903404D01*
X163685566Y-95902774D01*
X163694188Y-95901879D01*
X163702282Y-95900718D01*
X163709868Y-95899278D01*
X163716972Y-95897552D01*
X163723602Y-95895537D01*
X163729767Y-95893223D01*
X163735495Y-95890604D01*
X163740800Y-95887667D01*
X163745691Y-95884411D01*
X163750184Y-95880830D01*
X163754303Y-95876918D01*
X163758062Y-95872663D01*
X163761472Y-95868059D01*
X163764550Y-95863097D01*
X163767311Y-95857776D01*
X163769790Y-95852085D01*
X163771968Y-95846020D01*
X163773888Y-95839569D01*
X163775553Y-95832725D01*
X163776993Y-95825492D01*
X163778206Y-95817846D01*
X163780038Y-95801321D01*
X163781197Y-95783088D01*
X163781793Y-95763099D01*
X163781971Y-95741299D01*
X163781474Y-95723538D01*
X163780028Y-95707146D01*
X163777701Y-95692100D01*
X163774521Y-95678364D01*
X163772637Y-95671975D01*
X163770559Y-95665907D01*
X163768301Y-95660149D01*
X163765866Y-95654694D01*
X163763259Y-95649549D01*
X163760495Y-95644701D01*
X163757574Y-95640147D01*
X163754498Y-95635894D01*
X163751294Y-95631920D01*
X163747940Y-95628235D01*
X163744466Y-95624831D01*
X163740871Y-95621704D01*
X163737156Y-95618840D01*
X163733336Y-95616253D01*
X163729419Y-95613935D01*
X163725400Y-95611874D01*
X163717116Y-95608522D01*
X163708532Y-95606164D01*
X163699710Y-95604769D01*
X163690703Y-95604314D01*
X163685805Y-95604431D01*
X163681026Y-95604787D01*
X163676350Y-95605368D01*
X163671801Y-95606195D01*
X163667366Y-95607260D01*
X163663057Y-95608569D01*
X163658871Y-95610105D01*
X163654823Y-95611891D01*
X163650893Y-95613925D01*
X163647100Y-95616192D01*
X163643456Y-95618711D01*
X163639941Y-95621474D01*
X163636571Y-95624476D01*
X163633352Y-95627733D01*
X163630280Y-95631237D01*
X163627356Y-95634996D01*
X163624590Y-95639004D01*
X163621987Y-95643261D01*
X163619533Y-95647768D01*
X163617249Y-95652531D01*
X163615137Y-95657551D01*
X163613183Y-95662826D01*
X163611403Y-95668360D01*
X163609804Y-95674149D01*
X163608374Y-95680203D01*
X163607134Y-95686509D01*
X163606070Y-95693080D01*
X163605192Y-95699917D01*
X163604514Y-95707013D01*
X163604018Y-95714375D01*
X163603719Y-95722004D01*
X163603624Y-95729897D01*
X163483836Y-95729897D01*
X163483836Y-95702752D01*
X163484125Y-95688397D01*
X163484973Y-95674487D01*
X163486366Y-95661023D01*
X163488293Y-95647998D01*
X163490743Y-95635424D01*
X163493686Y-95623303D01*
X163497121Y-95611617D01*
X163501027Y-95600393D01*
X163505393Y-95589609D01*
X163510205Y-95579275D01*
X163515440Y-95569393D01*
X163521090Y-95559966D01*
X163527132Y-95550990D01*
X163533563Y-95542472D01*
X163540363Y-95534396D01*
X163547521Y-95526781D01*
X163555008Y-95519623D01*
X163562825Y-95512919D01*
X163570940Y-95506674D01*
X163579357Y-95500881D01*
X163588053Y-95495552D01*
X163597013Y-95490684D01*
X163606219Y-95486272D01*
X163615663Y-95482321D01*
X163625318Y-95478833D01*
X163635183Y-95475809D01*
X163645242Y-95473249D01*
X163655471Y-95471146D01*
X163665856Y-95469515D01*
X163676393Y-95468343D01*
X163687054Y-95467640D01*
X163690703Y-95467567D01*
X163697835Y-95467410D01*
X163709509Y-95467688D01*
G37*
G36*
X162434083Y-94067653D02*
G01*
X162460265Y-94068475D01*
X162484451Y-94069846D01*
X162506797Y-94071818D01*
X162527455Y-94074372D01*
X162546562Y-94077532D01*
X162564254Y-94081314D01*
X162580690Y-94085733D01*
X162596001Y-94090809D01*
X162610335Y-94096547D01*
X162623843Y-94102964D01*
X162636658Y-94110083D01*
X162648934Y-94117913D01*
X162660810Y-94126460D01*
X162672424Y-94135754D01*
X162683933Y-94145799D01*
X162692260Y-94153621D01*
X162700614Y-94162089D01*
X162708911Y-94171262D01*
X162717072Y-94181143D01*
X162725028Y-94191770D01*
X162732692Y-94203165D01*
X162739994Y-94215360D01*
X162746862Y-94228376D01*
X162750099Y-94235207D01*
X162753200Y-94242252D01*
X162756157Y-94249516D01*
X162758951Y-94257003D01*
X162761575Y-94264718D01*
X162764030Y-94272668D01*
X162766286Y-94280844D01*
X162768351Y-94289258D01*
X162770210Y-94297911D01*
X162771851Y-94306814D01*
X162773267Y-94315959D01*
X162774443Y-94325353D01*
X162775374Y-94335007D01*
X162776053Y-94344915D01*
X162776470Y-94355082D01*
X162776620Y-94365517D01*
X162776053Y-94386102D01*
X162774443Y-94405656D01*
X162771851Y-94424195D01*
X162768351Y-94441740D01*
X162764030Y-94458333D01*
X162758951Y-94473988D01*
X162753199Y-94488742D01*
X162746862Y-94502609D01*
X162739994Y-94515632D01*
X162732692Y-94527820D01*
X162725026Y-94539220D01*
X162717072Y-94549845D01*
X162708911Y-94559730D01*
X162700614Y-94568895D01*
X162692260Y-94577368D01*
X162683933Y-94585188D01*
X162672423Y-94595233D01*
X162660806Y-94604522D01*
X162648931Y-94613084D01*
X162636652Y-94620908D01*
X162623839Y-94628024D01*
X162610322Y-94634450D01*
X162595986Y-94640198D01*
X162580674Y-94645270D01*
X162564239Y-94649694D01*
X162546541Y-94653483D01*
X162527441Y-94656640D01*
X162506784Y-94659202D01*
X162484438Y-94661170D01*
X162460247Y-94662556D01*
X162434076Y-94663374D01*
X162405784Y-94663645D01*
X162377716Y-94663374D01*
X162351760Y-94662556D01*
X162327755Y-94661170D01*
X162305562Y-94659202D01*
X162285044Y-94656640D01*
X162266052Y-94653483D01*
X162248448Y-94649694D01*
X162232098Y-94645270D01*
X162216840Y-94640198D01*
X162202554Y-94634450D01*
X162189086Y-94628024D01*
X162176292Y-94620908D01*
X162164031Y-94613084D01*
X162152164Y-94604522D01*
X162140546Y-94595233D01*
X162129037Y-94585188D01*
X162120706Y-94577368D01*
X162112360Y-94568895D01*
X162104055Y-94559730D01*
X162095884Y-94549845D01*
X162087928Y-94539220D01*
X162080257Y-94527820D01*
X162072946Y-94515632D01*
X162066083Y-94502609D01*
X162062829Y-94495783D01*
X162059729Y-94488742D01*
X162056766Y-94481473D01*
X162053968Y-94473988D01*
X162051340Y-94466284D01*
X162048889Y-94458333D01*
X162046623Y-94450159D01*
X162044554Y-94441740D01*
X162042692Y-94433091D01*
X162041049Y-94424195D01*
X162039633Y-94415049D01*
X162038452Y-94405656D01*
X162037519Y-94396008D01*
X162036836Y-94386102D01*
X162036419Y-94375942D01*
X162036281Y-94365517D01*
X162181806Y-94365517D01*
X162182063Y-94374816D01*
X162182835Y-94383992D01*
X162184100Y-94393006D01*
X162185833Y-94401837D01*
X162188003Y-94410437D01*
X162190597Y-94418801D01*
X162193585Y-94426888D01*
X162196950Y-94434674D01*
X162200663Y-94442127D01*
X162204709Y-94449210D01*
X162209060Y-94455905D01*
X162213699Y-94462180D01*
X162218591Y-94468001D01*
X162223719Y-94473350D01*
X162229071Y-94478183D01*
X162234600Y-94482474D01*
X162241725Y-94487347D01*
X162248735Y-94491790D01*
X162255768Y-94495834D01*
X162262951Y-94499484D01*
X162270417Y-94502753D01*
X162278281Y-94505666D01*
X162286679Y-94508232D01*
X162295740Y-94510458D01*
X162305576Y-94512379D01*
X162316330Y-94513989D01*
X162328135Y-94515319D01*
X162341103Y-94516366D01*
X162355360Y-94517159D01*
X162371048Y-94517703D01*
X162388279Y-94518027D01*
X162407194Y-94518123D01*
X162442870Y-94517703D01*
X162458369Y-94517159D01*
X162472456Y-94516366D01*
X162485284Y-94515319D01*
X162496962Y-94513989D01*
X162507620Y-94512379D01*
X162517383Y-94510458D01*
X162526377Y-94508232D01*
X162534732Y-94505666D01*
X162542565Y-94502753D01*
X162550004Y-94499484D01*
X162557185Y-94495834D01*
X162564224Y-94491790D01*
X162571242Y-94487347D01*
X162578372Y-94482474D01*
X162581154Y-94480399D01*
X162583901Y-94478183D01*
X162589238Y-94473350D01*
X162594369Y-94468001D01*
X162599263Y-94462180D01*
X162603892Y-94455905D01*
X162608248Y-94449210D01*
X162612295Y-94442127D01*
X162616015Y-94434674D01*
X162619375Y-94426888D01*
X162622370Y-94418801D01*
X162624965Y-94410437D01*
X162627136Y-94401837D01*
X162628865Y-94393006D01*
X162630133Y-94383992D01*
X162630908Y-94374816D01*
X162631179Y-94365517D01*
X162630908Y-94356202D01*
X162630135Y-94347027D01*
X162628873Y-94338010D01*
X162627143Y-94329177D01*
X162624971Y-94320562D01*
X162622378Y-94312199D01*
X162619385Y-94304105D01*
X162616027Y-94296322D01*
X162612309Y-94288874D01*
X162608263Y-94281789D01*
X162603921Y-94275097D01*
X162599285Y-94268821D01*
X162594387Y-94263005D01*
X162589254Y-94257664D01*
X162583910Y-94252834D01*
X162578372Y-94248547D01*
X162571242Y-94243682D01*
X162564222Y-94239233D01*
X162557175Y-94235191D01*
X162549984Y-94231539D01*
X162542520Y-94228264D01*
X162534657Y-94225344D01*
X162526262Y-94222779D01*
X162517214Y-94220540D01*
X162507367Y-94218622D01*
X162496620Y-94217011D01*
X162484826Y-94215691D01*
X162471864Y-94214628D01*
X162457606Y-94213835D01*
X162441933Y-94213286D01*
X162424696Y-94212966D01*
X162405784Y-94212863D01*
X162370102Y-94213286D01*
X162354601Y-94213835D01*
X162340500Y-94214628D01*
X162327677Y-94215691D01*
X162315988Y-94217011D01*
X162305325Y-94218622D01*
X162295557Y-94220540D01*
X162286566Y-94222779D01*
X162278204Y-94225344D01*
X162270373Y-94228264D01*
X162262934Y-94231539D01*
X162255761Y-94235191D01*
X162248734Y-94239233D01*
X162241724Y-94243682D01*
X162234600Y-94248547D01*
X162231815Y-94250625D01*
X162229076Y-94252834D01*
X162223731Y-94257664D01*
X162218600Y-94263005D01*
X162213713Y-94268821D01*
X162209079Y-94275097D01*
X162204728Y-94281789D01*
X162200682Y-94288874D01*
X162196963Y-94296322D01*
X162193600Y-94304105D01*
X162190605Y-94312199D01*
X162188013Y-94320562D01*
X162185839Y-94329177D01*
X162184104Y-94338010D01*
X162182835Y-94347027D01*
X162182063Y-94356202D01*
X162181806Y-94365517D01*
X162036281Y-94365517D01*
X162036836Y-94344915D01*
X162038452Y-94325353D01*
X162041049Y-94306814D01*
X162044554Y-94289258D01*
X162048889Y-94272668D01*
X162053968Y-94257003D01*
X162059729Y-94242252D01*
X162066083Y-94228376D01*
X162072946Y-94215360D01*
X162080257Y-94203165D01*
X162087928Y-94191770D01*
X162095884Y-94181143D01*
X162104055Y-94171262D01*
X162112360Y-94162089D01*
X162120706Y-94153621D01*
X162129037Y-94145799D01*
X162140552Y-94135754D01*
X162152168Y-94126460D01*
X162164047Y-94117913D01*
X162176309Y-94110083D01*
X162189098Y-94102964D01*
X162202574Y-94096547D01*
X162216862Y-94090809D01*
X162232111Y-94085733D01*
X162248464Y-94081314D01*
X162266062Y-94077532D01*
X162285050Y-94074372D01*
X162305567Y-94071818D01*
X162327757Y-94069846D01*
X162351760Y-94068475D01*
X162377716Y-94067653D01*
X162405784Y-94067388D01*
X162434083Y-94067653D01*
G37*
G36*
X162434083Y-97855747D02*
G01*
X162460265Y-97856572D01*
X162484451Y-97857956D01*
X162506797Y-97859923D01*
X162527455Y-97862484D01*
X162546562Y-97865650D01*
X162564254Y-97869442D01*
X162580690Y-97873867D01*
X162596001Y-97878952D01*
X162610335Y-97884696D01*
X162623843Y-97891127D01*
X162636658Y-97898247D01*
X162648934Y-97906081D01*
X162660810Y-97914633D01*
X162672424Y-97923924D01*
X162683933Y-97933976D01*
X162692260Y-97941787D01*
X162700614Y-97950266D01*
X162708911Y-97959428D01*
X162717072Y-97969305D01*
X162725028Y-97979926D01*
X162732692Y-97991321D01*
X162739994Y-98003512D01*
X162746862Y-98016530D01*
X162750099Y-98023357D01*
X162753200Y-98030396D01*
X162756157Y-98037659D01*
X162758951Y-98045142D01*
X162761575Y-98052857D01*
X162764030Y-98060798D01*
X162766286Y-98068971D01*
X162768351Y-98077386D01*
X162770210Y-98086033D01*
X162771851Y-98094933D01*
X162773267Y-98104070D01*
X162774443Y-98113461D01*
X162775374Y-98123111D01*
X162776053Y-98133016D01*
X162776470Y-98143181D01*
X162776620Y-98153609D01*
X162776053Y-98174212D01*
X162774443Y-98193779D01*
X162771851Y-98212321D01*
X162768351Y-98229878D01*
X162764030Y-98246471D01*
X162758951Y-98262130D01*
X162753199Y-98276884D01*
X162746862Y-98290754D01*
X162739994Y-98303773D01*
X162732692Y-98315970D01*
X162725026Y-98327366D01*
X162717072Y-98337984D01*
X162708911Y-98347869D01*
X162700614Y-98357033D01*
X162692260Y-98365504D01*
X162683933Y-98373319D01*
X162672423Y-98383368D01*
X162660806Y-98392659D01*
X162648931Y-98401208D01*
X162636652Y-98409040D01*
X162623839Y-98416154D01*
X162610322Y-98422573D01*
X162595986Y-98428315D01*
X162580674Y-98433386D01*
X162564239Y-98437809D01*
X162546541Y-98441593D01*
X162527441Y-98444755D01*
X162506784Y-98447307D01*
X162484438Y-98449267D01*
X162460247Y-98450647D01*
X162434076Y-98451471D01*
X162405784Y-98451741D01*
X162377716Y-98451471D01*
X162351760Y-98450647D01*
X162327755Y-98449267D01*
X162305562Y-98447307D01*
X162285044Y-98444755D01*
X162266052Y-98441593D01*
X162248448Y-98437809D01*
X162232098Y-98433386D01*
X162216840Y-98428315D01*
X162202554Y-98422573D01*
X162189086Y-98416154D01*
X162176292Y-98409040D01*
X162164031Y-98401208D01*
X162152164Y-98392659D01*
X162140546Y-98383368D01*
X162129037Y-98373319D01*
X162120706Y-98365504D01*
X162112360Y-98357033D01*
X162104055Y-98347869D01*
X162095884Y-98337984D01*
X162087928Y-98327366D01*
X162080257Y-98315970D01*
X162072946Y-98303773D01*
X162066083Y-98290754D01*
X162062829Y-98283927D01*
X162059729Y-98276884D01*
X162056766Y-98269617D01*
X162053968Y-98262130D01*
X162051340Y-98254419D01*
X162048889Y-98246471D01*
X162046623Y-98238294D01*
X162044554Y-98229878D01*
X162042692Y-98221222D01*
X162041049Y-98212321D01*
X162039633Y-98203176D01*
X162038452Y-98193779D01*
X162037519Y-98184124D01*
X162036836Y-98174212D01*
X162036419Y-98164046D01*
X162036281Y-98153609D01*
X162036281Y-98153608D01*
X162181806Y-98153608D01*
X162182063Y-98162922D01*
X162182835Y-98172095D01*
X162184100Y-98181114D01*
X162185833Y-98189952D01*
X162188003Y-98198564D01*
X162190597Y-98206921D01*
X162193585Y-98215013D01*
X162196950Y-98222800D01*
X162200663Y-98230250D01*
X162204709Y-98237331D01*
X162209060Y-98244031D01*
X162213699Y-98250300D01*
X162218591Y-98256108D01*
X162223719Y-98261455D01*
X162229071Y-98266283D01*
X162234600Y-98270573D01*
X162241725Y-98275448D01*
X162248735Y-98279893D01*
X162255768Y-98283943D01*
X162262951Y-98287594D01*
X162270417Y-98290867D01*
X162278281Y-98293779D01*
X162286679Y-98296346D01*
X162295740Y-98298575D01*
X162305576Y-98300480D01*
X162316330Y-98302099D01*
X162328135Y-98303417D01*
X162341103Y-98304464D01*
X162355360Y-98305252D01*
X162371048Y-98305801D01*
X162388279Y-98306114D01*
X162407194Y-98306217D01*
X162442870Y-98305801D01*
X162458369Y-98305252D01*
X162472456Y-98304464D01*
X162485284Y-98303417D01*
X162496962Y-98302099D01*
X162507620Y-98300480D01*
X162517383Y-98298575D01*
X162526377Y-98296346D01*
X162534732Y-98293779D01*
X162542565Y-98290867D01*
X162550004Y-98287594D01*
X162557185Y-98283943D01*
X162564224Y-98279893D01*
X162571242Y-98275448D01*
X162578372Y-98270573D01*
X162581154Y-98268499D01*
X162583901Y-98266283D01*
X162589238Y-98261455D01*
X162594369Y-98256108D01*
X162599263Y-98250300D01*
X162603892Y-98244031D01*
X162608248Y-98237331D01*
X162612295Y-98230250D01*
X162616015Y-98222800D01*
X162619375Y-98215013D01*
X162622370Y-98206921D01*
X162624965Y-98198564D01*
X162627136Y-98189952D01*
X162628865Y-98181114D01*
X162630133Y-98172095D01*
X162630908Y-98162922D01*
X162631179Y-98153608D01*
X162630908Y-98144307D01*
X162630135Y-98135137D01*
X162628873Y-98126129D01*
X162627143Y-98117305D01*
X162624971Y-98108692D01*
X162622378Y-98100328D01*
X162619385Y-98092241D01*
X162616027Y-98084454D01*
X162612309Y-98077009D01*
X162608263Y-98069921D01*
X162603921Y-98063231D01*
X162599285Y-98056964D01*
X162594387Y-98051152D01*
X162589254Y-98045817D01*
X162583910Y-98040997D01*
X162578372Y-98036725D01*
X162571242Y-98031845D01*
X162564222Y-98027394D01*
X162557175Y-98023345D01*
X162549984Y-98019690D01*
X162542520Y-98016407D01*
X162534657Y-98013492D01*
X162526262Y-98010919D01*
X162517214Y-98008684D01*
X162507367Y-98006763D01*
X162496620Y-98005144D01*
X162484826Y-98003813D01*
X162471864Y-98002762D01*
X162457606Y-98001972D01*
X162441933Y-98001424D01*
X162424696Y-98001103D01*
X162405784Y-98000998D01*
X162370102Y-98001424D01*
X162354601Y-98001972D01*
X162340500Y-98002762D01*
X162327677Y-98003813D01*
X162315988Y-98005144D01*
X162305325Y-98006763D01*
X162295557Y-98008684D01*
X162286566Y-98010919D01*
X162278204Y-98013492D01*
X162270373Y-98016407D01*
X162262934Y-98019690D01*
X162255761Y-98023345D01*
X162248734Y-98027394D01*
X162241724Y-98031845D01*
X162234600Y-98036725D01*
X162231815Y-98038792D01*
X162229076Y-98040997D01*
X162223731Y-98045817D01*
X162218600Y-98051152D01*
X162213713Y-98056964D01*
X162209079Y-98063231D01*
X162204728Y-98069921D01*
X162200682Y-98077009D01*
X162196963Y-98084454D01*
X162193600Y-98092241D01*
X162190605Y-98100328D01*
X162188013Y-98108692D01*
X162185839Y-98117305D01*
X162184104Y-98126129D01*
X162182835Y-98135137D01*
X162182063Y-98144307D01*
X162181806Y-98153608D01*
X162036281Y-98153608D01*
X162036836Y-98133016D01*
X162038452Y-98113461D01*
X162041049Y-98094933D01*
X162044554Y-98077386D01*
X162048889Y-98060799D01*
X162053968Y-98045142D01*
X162059729Y-98030396D01*
X162066083Y-98016530D01*
X162072946Y-98003512D01*
X162080257Y-97991322D01*
X162087928Y-97979926D01*
X162095884Y-97969305D01*
X162104055Y-97959428D01*
X162112360Y-97950266D01*
X162120706Y-97941787D01*
X162129037Y-97933976D01*
X162140552Y-97923924D01*
X162152168Y-97914633D01*
X162164047Y-97906081D01*
X162176309Y-97898247D01*
X162189098Y-97891127D01*
X162202574Y-97884696D01*
X162216862Y-97878952D01*
X162232111Y-97873867D01*
X162248464Y-97869442D01*
X162266062Y-97865650D01*
X162285050Y-97862484D01*
X162305567Y-97859923D01*
X162327757Y-97857956D01*
X162351760Y-97856572D01*
X162377716Y-97855747D01*
X162405784Y-97855476D01*
X162434083Y-97855747D01*
G37*
G36*
X163709509Y-98391275D02*
G01*
X163721001Y-98392098D01*
X163732291Y-98393458D01*
X163743376Y-98395360D01*
X163754233Y-98397790D01*
X163764853Y-98400751D01*
X163775230Y-98404230D01*
X163785342Y-98408237D01*
X163795186Y-98412746D01*
X163804751Y-98417757D01*
X163814008Y-98423282D01*
X163822965Y-98429297D01*
X163831600Y-98435802D01*
X163839905Y-98442805D01*
X163847862Y-98450276D01*
X163855467Y-98458234D01*
X163862708Y-98466661D01*
X163869561Y-98475557D01*
X163876029Y-98484908D01*
X163882087Y-98494726D01*
X163887736Y-98504996D01*
X163892948Y-98515711D01*
X163897729Y-98526865D01*
X163902055Y-98538461D01*
X163905914Y-98550488D01*
X163909300Y-98562936D01*
X163912200Y-98575814D01*
X163914593Y-98589106D01*
X163916492Y-98602812D01*
X163917847Y-98616926D01*
X163918672Y-98631442D01*
X163918950Y-98646357D01*
X163918683Y-98664246D01*
X163917875Y-98681040D01*
X163916517Y-98696788D01*
X163914598Y-98711522D01*
X163912137Y-98725286D01*
X163909101Y-98738129D01*
X163905490Y-98750078D01*
X163901304Y-98761187D01*
X163896534Y-98771500D01*
X163891164Y-98781050D01*
X163885201Y-98789880D01*
X163878630Y-98798034D01*
X163871446Y-98805548D01*
X163863648Y-98812474D01*
X163855218Y-98818843D01*
X163846171Y-98824701D01*
X163846171Y-98827518D01*
X163910373Y-98827518D01*
X163910373Y-98827559D01*
X163910373Y-98973085D01*
X163416821Y-98973085D01*
X163400445Y-98972728D01*
X163384764Y-98971663D01*
X163369749Y-98969906D01*
X163355401Y-98967462D01*
X163341699Y-98964350D01*
X163328638Y-98960583D01*
X163316201Y-98956172D01*
X163304390Y-98951123D01*
X163293188Y-98945456D01*
X163282584Y-98939182D01*
X163272556Y-98932308D01*
X163263112Y-98924853D01*
X163254226Y-98916822D01*
X163245898Y-98908239D01*
X163238118Y-98899112D01*
X163230870Y-98889437D01*
X163224140Y-98879248D01*
X163217927Y-98868548D01*
X163212202Y-98857352D01*
X163206986Y-98845670D01*
X163202234Y-98833510D01*
X163197962Y-98820898D01*
X163194138Y-98807830D01*
X163190772Y-98794327D01*
X163187834Y-98780406D01*
X163185327Y-98766070D01*
X163181542Y-98736205D01*
X163179333Y-98704855D01*
X163178619Y-98672096D01*
X163178959Y-98652101D01*
X163179989Y-98632777D01*
X163181750Y-98614100D01*
X163184275Y-98596072D01*
X163187574Y-98578687D01*
X163191691Y-98561938D01*
X163196655Y-98545824D01*
X163202492Y-98530332D01*
X163209231Y-98515456D01*
X163216909Y-98501194D01*
X163225544Y-98487536D01*
X163235164Y-98474480D01*
X163245818Y-98462020D01*
X163257514Y-98450137D01*
X163270294Y-98438851D01*
X163284185Y-98428138D01*
X163371186Y-98542282D01*
X163367386Y-98544715D01*
X163363741Y-98547213D01*
X163360249Y-98549782D01*
X163356918Y-98552429D01*
X163353726Y-98555151D01*
X163350682Y-98557960D01*
X163347784Y-98560861D01*
X163345028Y-98563854D01*
X163342419Y-98566960D01*
X163339936Y-98570165D01*
X163337589Y-98573485D01*
X163335381Y-98576926D01*
X163333304Y-98580489D01*
X163331346Y-98584183D01*
X163329523Y-98588013D01*
X163327817Y-98591980D01*
X163326234Y-98596100D01*
X163324776Y-98600365D01*
X163323426Y-98604791D01*
X163322198Y-98609376D01*
X163321078Y-98614139D01*
X163320058Y-98619070D01*
X163319168Y-98624178D01*
X163318363Y-98629477D01*
X163317075Y-98640636D01*
X163316174Y-98652609D01*
X163315648Y-98665424D01*
X163315477Y-98679144D01*
X163315771Y-98697974D01*
X163316655Y-98715423D01*
X163318177Y-98731514D01*
X163320351Y-98746266D01*
X163323209Y-98759710D01*
X163326788Y-98771860D01*
X163331102Y-98782756D01*
X163333546Y-98787724D01*
X163336194Y-98792392D01*
X163339042Y-98796759D01*
X163342095Y-98800813D01*
X163345348Y-98804575D01*
X163348814Y-98808037D01*
X163352499Y-98811210D01*
X163356398Y-98814086D01*
X163360528Y-98816678D01*
X163364876Y-98818989D01*
X163369456Y-98821010D01*
X163374271Y-98822756D01*
X163379312Y-98824221D01*
X163384602Y-98825425D01*
X163390136Y-98826340D01*
X163395922Y-98826999D01*
X163408239Y-98827518D01*
X163483836Y-98827518D01*
X163483836Y-98653565D01*
X163603624Y-98653565D01*
X163603624Y-98827559D01*
X163656420Y-98827559D01*
X163666703Y-98827441D01*
X163676416Y-98827069D01*
X163685566Y-98826440D01*
X163694188Y-98825551D01*
X163702282Y-98824387D01*
X163709868Y-98822943D01*
X163716972Y-98821223D01*
X163723602Y-98819204D01*
X163729767Y-98816891D01*
X163735495Y-98814272D01*
X163740800Y-98811335D01*
X163745691Y-98808082D01*
X163750184Y-98804499D01*
X163754303Y-98800583D01*
X163758062Y-98796328D01*
X163761472Y-98791730D01*
X163764550Y-98786769D01*
X163767311Y-98781445D01*
X163769790Y-98775753D01*
X163771968Y-98769691D01*
X163773888Y-98763239D01*
X163775553Y-98756396D01*
X163776993Y-98749159D01*
X163778206Y-98741513D01*
X163780038Y-98724987D01*
X163781197Y-98706758D01*
X163781793Y-98686772D01*
X163781971Y-98664970D01*
X163781474Y-98647212D01*
X163780028Y-98630828D01*
X163777701Y-98615789D01*
X163774521Y-98602057D01*
X163772637Y-98595671D01*
X163770559Y-98589598D01*
X163768301Y-98583841D01*
X163765866Y-98578394D01*
X163763259Y-98573248D01*
X163760495Y-98568404D01*
X163757574Y-98563852D01*
X163754498Y-98559597D01*
X163751294Y-98555627D01*
X163747940Y-98551937D01*
X163744466Y-98548534D01*
X163740871Y-98545407D01*
X163737156Y-98542554D01*
X163733336Y-98539960D01*
X163729419Y-98537642D01*
X163725400Y-98535581D01*
X163717116Y-98532230D01*
X163708532Y-98529869D01*
X163699710Y-98528481D01*
X163690703Y-98528027D01*
X163685805Y-98528137D01*
X163681026Y-98528495D01*
X163676350Y-98529083D01*
X163671801Y-98529905D01*
X163667366Y-98530970D01*
X163663057Y-98532273D01*
X163658871Y-98533816D01*
X163654823Y-98535602D01*
X163650893Y-98537628D01*
X163647100Y-98539901D01*
X163643456Y-98542416D01*
X163639941Y-98545175D01*
X163636571Y-98548188D01*
X163633352Y-98551442D01*
X163630280Y-98554943D01*
X163627356Y-98558698D01*
X163624590Y-98562703D01*
X163621987Y-98566961D01*
X163619533Y-98571470D01*
X163617249Y-98576231D01*
X163615137Y-98581250D01*
X163613183Y-98586525D01*
X163611403Y-98592053D01*
X163609804Y-98597840D01*
X163608374Y-98603891D01*
X163607134Y-98610196D01*
X163606070Y-98616769D01*
X163605192Y-98623598D01*
X163604514Y-98630693D01*
X163604018Y-98638049D01*
X163603719Y-98645675D01*
X163603624Y-98653565D01*
X163483836Y-98653565D01*
X163483836Y-98626371D01*
X163484125Y-98612031D01*
X163484973Y-98598121D01*
X163486366Y-98584659D01*
X163488293Y-98571642D01*
X163490743Y-98559069D01*
X163493686Y-98546937D01*
X163497121Y-98535259D01*
X163501027Y-98524029D01*
X163505393Y-98513241D01*
X163510205Y-98502911D01*
X163515440Y-98493030D01*
X163521090Y-98483596D01*
X163527132Y-98474622D01*
X163533563Y-98466096D01*
X163540363Y-98458022D01*
X163547521Y-98450404D01*
X163555008Y-98443242D01*
X163562825Y-98436534D01*
X163570940Y-98430283D01*
X163579357Y-98424492D01*
X163588053Y-98419157D01*
X163597013Y-98414284D01*
X163606219Y-98409873D01*
X163615663Y-98405922D01*
X163625318Y-98402430D01*
X163635183Y-98399401D01*
X163645242Y-98396839D01*
X163655471Y-98394740D01*
X163665856Y-98393104D01*
X163676393Y-98391937D01*
X163687054Y-98391231D01*
X163690703Y-98391154D01*
X163697835Y-98391003D01*
X163709509Y-98391275D01*
G37*
G36*
X162662635Y-97172665D02*
G01*
X162677392Y-97190588D01*
X162691126Y-97208863D01*
X162703826Y-97227475D01*
X162715499Y-97246409D01*
X162726144Y-97265653D01*
X162735772Y-97285213D01*
X162744370Y-97305065D01*
X162751951Y-97325195D01*
X162758520Y-97345604D01*
X162764069Y-97366277D01*
X162768606Y-97387199D01*
X162772128Y-97408361D01*
X162774637Y-97429760D01*
X162776150Y-97451376D01*
X162776650Y-97473213D01*
X162775705Y-97504314D01*
X162772884Y-97534407D01*
X162768224Y-97563351D01*
X162761748Y-97591022D01*
X162753493Y-97617263D01*
X162743485Y-97641951D01*
X162731767Y-97664945D01*
X162725271Y-97675758D01*
X162718355Y-97686096D01*
X162711034Y-97695941D01*
X162703293Y-97705284D01*
X162695152Y-97714088D01*
X162686605Y-97722350D01*
X162677660Y-97730053D01*
X162668325Y-97737177D01*
X162658596Y-97743702D01*
X162648482Y-97749615D01*
X162637988Y-97754896D01*
X162627110Y-97759527D01*
X162615862Y-97763498D01*
X162604242Y-97766783D01*
X162592250Y-97769368D01*
X162579898Y-97771233D01*
X162567195Y-97772369D01*
X162554129Y-97772743D01*
X162532766Y-97772037D01*
X162512062Y-97769887D01*
X162492092Y-97766236D01*
X162482409Y-97763839D01*
X162472934Y-97761056D01*
X162463687Y-97757877D01*
X162454681Y-97754296D01*
X162445915Y-97750310D01*
X162437412Y-97745907D01*
X162429170Y-97741098D01*
X162421208Y-97735855D01*
X162413538Y-97730191D01*
X162406157Y-97724094D01*
X162399090Y-97717558D01*
X162392348Y-97710573D01*
X162385930Y-97703141D01*
X162379854Y-97695260D01*
X162374132Y-97686905D01*
X162368764Y-97678090D01*
X162363771Y-97668798D01*
X162359162Y-97659038D01*
X162354953Y-97648791D01*
X162351135Y-97638055D01*
X162347730Y-97626819D01*
X162344767Y-97615094D01*
X162342219Y-97602855D01*
X162340125Y-97590113D01*
X162338484Y-97576849D01*
X162337313Y-97563065D01*
X162328808Y-97443245D01*
X162327439Y-97430180D01*
X162325508Y-97418248D01*
X162323042Y-97407415D01*
X162320092Y-97397626D01*
X162316688Y-97388851D01*
X162314830Y-97384834D01*
X162312874Y-97381050D01*
X162310824Y-97377499D01*
X162308689Y-97374175D01*
X162306468Y-97371077D01*
X162304167Y-97368197D01*
X162301781Y-97365528D01*
X162299337Y-97363071D01*
X162294244Y-97358752D01*
X162288938Y-97355215D01*
X162283436Y-97352406D01*
X162277776Y-97350288D01*
X162272020Y-97348826D01*
X162266178Y-97347978D01*
X162260301Y-97347704D01*
X162255663Y-97347796D01*
X162251106Y-97348076D01*
X162246633Y-97348554D01*
X162242251Y-97349238D01*
X162237949Y-97350117D01*
X162233757Y-97351210D01*
X162229660Y-97352523D01*
X162225674Y-97354057D01*
X162221796Y-97355818D01*
X162218033Y-97357811D01*
X162214383Y-97360046D01*
X162210861Y-97362517D01*
X162207465Y-97365247D01*
X162204212Y-97368222D01*
X162201085Y-97371472D01*
X162198108Y-97374978D01*
X162195271Y-97378759D01*
X162192584Y-97382812D01*
X162190052Y-97387155D01*
X162187679Y-97391785D01*
X162185473Y-97396701D01*
X162183440Y-97401915D01*
X162181568Y-97407447D01*
X162179884Y-97413277D01*
X162178377Y-97419419D01*
X162177058Y-97425894D01*
X162175934Y-97432691D01*
X162174996Y-97439823D01*
X162174263Y-97447281D01*
X162173735Y-97455095D01*
X162173415Y-97463255D01*
X162173305Y-97471758D01*
X162173619Y-97486244D01*
X162174550Y-97500294D01*
X162176071Y-97513927D01*
X162178166Y-97527180D01*
X162180818Y-97540062D01*
X162183995Y-97552614D01*
X162187681Y-97564865D01*
X162191858Y-97576835D01*
X162196503Y-97588554D01*
X162201596Y-97600046D01*
X162207108Y-97611342D01*
X162213029Y-97622468D01*
X162219334Y-97633452D01*
X162225996Y-97644319D01*
X162233000Y-97655101D01*
X162240324Y-97665816D01*
X162134841Y-97755630D01*
X162123856Y-97742080D01*
X162113397Y-97728164D01*
X162103500Y-97713827D01*
X162094168Y-97699046D01*
X162085442Y-97683759D01*
X162077344Y-97667943D01*
X162069894Y-97651565D01*
X162063128Y-97634561D01*
X162057062Y-97616909D01*
X162051720Y-97598572D01*
X162047130Y-97579492D01*
X162043321Y-97559640D01*
X162040310Y-97538980D01*
X162038133Y-97517463D01*
X162036808Y-97495056D01*
X162036357Y-97471719D01*
X162037250Y-97443541D01*
X162039898Y-97416318D01*
X162044307Y-97390170D01*
X162050467Y-97365214D01*
X162058379Y-97341571D01*
X162062987Y-97330276D01*
X162068030Y-97319357D01*
X162073500Y-97308822D01*
X162079411Y-97298698D01*
X162085755Y-97288988D01*
X162092527Y-97279701D01*
X162099725Y-97270867D01*
X162107364Y-97262499D01*
X162115424Y-97254602D01*
X162123913Y-97247203D01*
X162132832Y-97240305D01*
X162142172Y-97233928D01*
X162151942Y-97228091D01*
X162162135Y-97222809D01*
X162172753Y-97218082D01*
X162183797Y-97213944D01*
X162195259Y-97210400D01*
X162207147Y-97207471D01*
X162219451Y-97205160D01*
X162232184Y-97203495D01*
X162245328Y-97202483D01*
X162258891Y-97202149D01*
X162270368Y-97202399D01*
X162281534Y-97203163D01*
X162292384Y-97204429D01*
X162302925Y-97206177D01*
X162313149Y-97208408D01*
X162323055Y-97211096D01*
X162332646Y-97214240D01*
X162341918Y-97217836D01*
X162350861Y-97221862D01*
X162359489Y-97226311D01*
X162367788Y-97231179D01*
X162375764Y-97236446D01*
X162383414Y-97242107D01*
X162390732Y-97248147D01*
X162397717Y-97254569D01*
X162404375Y-97261346D01*
X162410694Y-97268462D01*
X162416676Y-97275936D01*
X162422321Y-97283733D01*
X162427635Y-97291855D01*
X162432590Y-97300279D01*
X162437225Y-97309000D01*
X162441499Y-97318015D01*
X162445441Y-97327304D01*
X162449028Y-97336867D01*
X162452271Y-97346683D01*
X162455159Y-97356737D01*
X162457695Y-97367035D01*
X162461715Y-97388301D01*
X162464306Y-97410378D01*
X162475701Y-97538777D01*
X162476635Y-97548008D01*
X162477878Y-97556930D01*
X162479452Y-97565502D01*
X162481412Y-97573689D01*
X162483772Y-97581440D01*
X162486592Y-97588727D01*
X162489890Y-97595516D01*
X162491725Y-97598695D01*
X162493699Y-97601750D01*
X162495807Y-97604651D01*
X162498059Y-97607398D01*
X162500462Y-97609987D01*
X162503012Y-97612417D01*
X162505719Y-97614686D01*
X162508585Y-97616780D01*
X162511621Y-97618699D01*
X162514817Y-97620434D01*
X162518190Y-97621986D01*
X162521744Y-97623348D01*
X162525479Y-97624514D01*
X162529402Y-97625473D01*
X162533512Y-97626235D01*
X162537816Y-97626780D01*
X162542322Y-97627113D01*
X162547036Y-97627225D01*
X162552697Y-97627053D01*
X162558180Y-97626537D01*
X162563495Y-97625676D01*
X162568629Y-97624491D01*
X162573588Y-97622979D01*
X162578367Y-97621148D01*
X162582966Y-97619011D01*
X162587392Y-97616567D01*
X162591639Y-97613828D01*
X162595709Y-97610795D01*
X162599599Y-97607484D01*
X162603314Y-97603888D01*
X162606850Y-97600032D01*
X162610203Y-97595908D01*
X162613377Y-97591529D01*
X162616378Y-97586905D01*
X162619195Y-97582036D01*
X162621825Y-97576928D01*
X162624286Y-97571593D01*
X162626562Y-97566043D01*
X162628658Y-97560276D01*
X162630572Y-97554292D01*
X162632299Y-97548115D01*
X162633858Y-97541745D01*
X162635226Y-97535178D01*
X162636410Y-97528435D01*
X162637424Y-97521521D01*
X162638241Y-97514436D01*
X162638886Y-97507192D01*
X162639347Y-97499794D01*
X162639620Y-97492250D01*
X162639710Y-97484568D01*
X162639347Y-97466715D01*
X162638241Y-97449487D01*
X162636413Y-97432872D01*
X162633862Y-97416815D01*
X162630580Y-97401300D01*
X162626570Y-97386284D01*
X162621843Y-97371738D01*
X162616389Y-97357621D01*
X162610219Y-97343907D01*
X162603332Y-97330567D01*
X162595728Y-97317558D01*
X162587406Y-97304847D01*
X162578381Y-97292410D01*
X162568639Y-97280197D01*
X162558191Y-97268195D01*
X162547036Y-97256358D01*
X162646836Y-97155097D01*
X162662635Y-97172665D01*
G37*
G36*
X162407192Y-94787249D02*
G01*
X163910373Y-94787249D01*
X163910373Y-94932771D01*
X163479607Y-94932771D01*
X163470497Y-94932952D01*
X163461637Y-94933483D01*
X163453019Y-94934358D01*
X163444654Y-94935576D01*
X163436546Y-94937107D01*
X163428689Y-94938975D01*
X163421099Y-94941161D01*
X163413762Y-94943645D01*
X163406697Y-94946433D01*
X163399900Y-94949517D01*
X163393380Y-94952885D01*
X163387131Y-94956530D01*
X163381156Y-94960456D01*
X163375461Y-94964640D01*
X163370044Y-94969076D01*
X163364924Y-94973762D01*
X163360087Y-94978701D01*
X163355539Y-94983872D01*
X163351289Y-94989264D01*
X163347337Y-94994879D01*
X163343682Y-95000710D01*
X163340330Y-95006747D01*
X163337288Y-95012976D01*
X163334550Y-95019401D01*
X163332127Y-95026009D01*
X163330015Y-95032796D01*
X163328211Y-95039748D01*
X163326739Y-95046867D01*
X163325589Y-95054137D01*
X163324766Y-95061556D01*
X163324262Y-95069114D01*
X163324096Y-95076808D01*
X163324262Y-95084370D01*
X163324766Y-95091809D01*
X163325589Y-95099116D01*
X163326739Y-95106281D01*
X163328211Y-95113300D01*
X163330015Y-95120169D01*
X163332127Y-95126871D01*
X163334550Y-95133403D01*
X163337288Y-95139759D01*
X163340330Y-95145933D01*
X163343682Y-95151906D01*
X163347337Y-95157676D01*
X163351289Y-95163247D01*
X163355539Y-95168605D01*
X163360087Y-95173732D01*
X163364924Y-95178629D01*
X163370044Y-95183293D01*
X163375461Y-95187702D01*
X163381156Y-95191867D01*
X163387131Y-95195768D01*
X163393378Y-95199404D01*
X163399898Y-95202758D01*
X163406697Y-95205836D01*
X163413762Y-95208613D01*
X163421098Y-95211091D01*
X163428689Y-95213270D01*
X163436546Y-95215127D01*
X163444652Y-95216672D01*
X163453019Y-95217888D01*
X163461637Y-95218759D01*
X163470497Y-95219292D01*
X163479607Y-95219465D01*
X163910373Y-95219465D01*
X163910373Y-95364948D01*
X163429621Y-95364948D01*
X163414474Y-95364574D01*
X163399775Y-95363479D01*
X163385536Y-95361682D01*
X163371748Y-95359208D01*
X163358426Y-95356092D01*
X163345555Y-95352362D01*
X163333149Y-95348029D01*
X163321207Y-95343132D01*
X163309742Y-95337693D01*
X163298729Y-95331740D01*
X163288198Y-95325289D01*
X163278133Y-95318388D01*
X163268535Y-95311048D01*
X163259416Y-95303304D01*
X163250780Y-95295168D01*
X163242618Y-95286675D01*
X163234933Y-95277858D01*
X163227738Y-95268737D01*
X163221026Y-95259337D01*
X163214793Y-95249690D01*
X163209051Y-95239814D01*
X163203800Y-95229737D01*
X163199039Y-95219488D01*
X163194774Y-95209103D01*
X163191002Y-95198589D01*
X163187725Y-95187984D01*
X163184944Y-95177314D01*
X163182674Y-95166599D01*
X163180906Y-95155880D01*
X163179634Y-95145166D01*
X163178873Y-95134500D01*
X163178615Y-95123891D01*
X163178952Y-95109586D01*
X163179957Y-95095553D01*
X163181631Y-95081815D01*
X163183968Y-95068358D01*
X163186979Y-95055208D01*
X163190667Y-95042364D01*
X163195008Y-95029835D01*
X163200023Y-95017636D01*
X163205703Y-95005774D01*
X163212062Y-94994253D01*
X163219082Y-94983076D01*
X163226772Y-94972264D01*
X163235130Y-94961817D01*
X163244155Y-94951749D01*
X163253848Y-94942069D01*
X163264204Y-94932771D01*
X162691068Y-94933298D01*
X162700486Y-94943519D01*
X162709488Y-94953849D01*
X162718034Y-94964318D01*
X162726095Y-94974937D01*
X162733669Y-94985726D01*
X162740716Y-94996692D01*
X162747200Y-95007864D01*
X162753116Y-95019249D01*
X162758429Y-95030871D01*
X162763112Y-95042742D01*
X162767143Y-95054883D01*
X162770500Y-95067308D01*
X162773152Y-95080032D01*
X162775080Y-95093076D01*
X162776254Y-95106458D01*
X162776650Y-95120182D01*
X162776538Y-95128401D01*
X162776190Y-95136477D01*
X162775623Y-95144412D01*
X162774831Y-95152206D01*
X162773827Y-95159861D01*
X162772607Y-95167370D01*
X162771188Y-95174745D01*
X162769562Y-95181978D01*
X162767745Y-95189070D01*
X162765734Y-95196030D01*
X162763530Y-95202840D01*
X162761147Y-95209519D01*
X162758592Y-95216052D01*
X162755862Y-95222446D01*
X162749895Y-95234842D01*
X162743302Y-95246661D01*
X162736108Y-95257944D01*
X162728348Y-95268682D01*
X162720068Y-95278869D01*
X162711306Y-95288505D01*
X162702097Y-95297613D01*
X162692478Y-95306173D01*
X162682488Y-95314200D01*
X162672886Y-95321354D01*
X162663192Y-95327861D01*
X162653203Y-95333755D01*
X162642718Y-95339060D01*
X162631549Y-95343785D01*
X162619496Y-95347976D01*
X162606364Y-95351641D01*
X162591957Y-95354816D01*
X162576072Y-95357533D01*
X162558527Y-95359801D01*
X162539110Y-95361649D01*
X162517639Y-95363109D01*
X162467729Y-95364943D01*
X162407231Y-95365510D01*
X162375299Y-95365374D01*
X162346239Y-95364943D01*
X162319867Y-95364199D01*
X162295976Y-95363109D01*
X162274362Y-95361649D01*
X162254834Y-95359801D01*
X162237190Y-95357533D01*
X162221234Y-95354816D01*
X162206767Y-95351641D01*
X162200031Y-95349871D01*
X162193596Y-95347976D01*
X162187428Y-95345950D01*
X162181510Y-95343785D01*
X162175810Y-95341488D01*
X162170314Y-95339061D01*
X162159813Y-95333757D01*
X162149806Y-95327861D01*
X162140099Y-95321354D01*
X162130489Y-95314200D01*
X162120495Y-95306173D01*
X162110881Y-95297613D01*
X162101671Y-95288505D01*
X162092903Y-95278869D01*
X162084626Y-95268682D01*
X162076866Y-95257944D01*
X162069678Y-95246661D01*
X162063072Y-95234842D01*
X162057112Y-95222446D01*
X162051823Y-95209519D01*
X162047239Y-95196033D01*
X162043409Y-95181978D01*
X162040370Y-95167370D01*
X162038142Y-95152206D01*
X162036783Y-95136477D01*
X162036320Y-95120182D01*
X162036719Y-95106355D01*
X162037897Y-95092724D01*
X162039812Y-95079300D01*
X162040480Y-95075959D01*
X162181806Y-95075959D01*
X162182128Y-95088421D01*
X162183094Y-95100141D01*
X162184682Y-95111149D01*
X162186864Y-95121469D01*
X162189620Y-95131110D01*
X162192944Y-95140108D01*
X162196796Y-95148473D01*
X162201166Y-95156246D01*
X162206025Y-95163432D01*
X162211371Y-95170056D01*
X162217162Y-95176147D01*
X162223393Y-95181732D01*
X162230029Y-95186810D01*
X162237062Y-95191429D01*
X162244468Y-95195597D01*
X162252223Y-95199347D01*
X162260303Y-95202701D01*
X162268697Y-95205665D01*
X162286344Y-95210552D01*
X162304960Y-95214195D01*
X162324418Y-95216773D01*
X162344531Y-95218471D01*
X162365139Y-95219457D01*
X162407192Y-95220028D01*
X162428042Y-95219918D01*
X162448752Y-95219457D01*
X162469171Y-95218471D01*
X162489120Y-95216773D01*
X162508434Y-95214195D01*
X162517806Y-95212518D01*
X162526945Y-95210552D01*
X162535854Y-95208271D01*
X162544491Y-95205665D01*
X162552847Y-95202701D01*
X162560901Y-95199347D01*
X162568623Y-95195597D01*
X162576004Y-95191429D01*
X162583008Y-95186810D01*
X162589635Y-95181732D01*
X162595844Y-95176147D01*
X162601627Y-95170056D01*
X162606958Y-95163432D01*
X162611821Y-95156246D01*
X162616182Y-95148473D01*
X162620038Y-95140108D01*
X162623351Y-95131110D01*
X162626111Y-95121469D01*
X162628292Y-95111149D01*
X162629877Y-95100141D01*
X162630846Y-95088421D01*
X162631179Y-95075959D01*
X162630827Y-95063627D01*
X162629801Y-95052025D01*
X162628122Y-95041126D01*
X162625819Y-95030913D01*
X162622912Y-95021367D01*
X162619431Y-95012469D01*
X162615390Y-95004177D01*
X162610821Y-94996493D01*
X162605751Y-94989380D01*
X162600204Y-94982817D01*
X162594201Y-94976783D01*
X162587770Y-94971262D01*
X162580933Y-94966225D01*
X162573713Y-94961649D01*
X162566143Y-94957516D01*
X162558244Y-94953808D01*
X162550038Y-94950486D01*
X162541554Y-94947550D01*
X162523833Y-94942701D01*
X162505291Y-94939089D01*
X162486129Y-94936534D01*
X162466537Y-94934853D01*
X162446718Y-94933869D01*
X162407192Y-94933298D01*
X162387266Y-94933413D01*
X162367200Y-94933871D01*
X162347194Y-94934854D01*
X162327438Y-94936541D01*
X162308132Y-94939096D01*
X162298719Y-94940766D01*
X162289480Y-94942709D01*
X162280470Y-94944973D01*
X162271678Y-94947563D01*
X162263150Y-94950502D01*
X162254920Y-94953821D01*
X162246979Y-94957533D01*
X162239379Y-94961665D01*
X162232144Y-94966240D01*
X162225283Y-94971280D01*
X162218829Y-94976800D01*
X162212815Y-94982834D01*
X162207253Y-94989399D01*
X162202170Y-94996509D01*
X162197597Y-95004197D01*
X162193556Y-95012477D01*
X162190068Y-95021382D01*
X162187155Y-95030924D01*
X162184853Y-95041135D01*
X162183172Y-95052032D01*
X162182148Y-95063631D01*
X162181806Y-95075959D01*
X162040480Y-95075959D01*
X162042451Y-95066104D01*
X162045786Y-95053164D01*
X162049791Y-95040491D01*
X162054427Y-95028113D01*
X162059683Y-95016051D01*
X162065521Y-95004310D01*
X162071917Y-94992939D01*
X162078846Y-94981940D01*
X162086277Y-94971329D01*
X162094188Y-94961149D01*
X162102545Y-94951398D01*
X162111323Y-94942111D01*
X162120505Y-94933298D01*
X162044898Y-94933298D01*
X162044898Y-94787249D01*
X162407192Y-94787249D01*
G37*
G36*
X159665980Y-94839734D02*
G01*
X159667516Y-94839775D01*
X159669049Y-94839887D01*
X159670578Y-94840075D01*
X159672096Y-94840336D01*
X159673601Y-94840663D01*
X159675091Y-94841060D01*
X159676571Y-94841526D01*
X159678018Y-94842052D01*
X159680872Y-94843298D01*
X159683609Y-94844767D01*
X159686232Y-94846463D01*
X159688719Y-94848361D01*
X159691044Y-94850448D01*
X159693194Y-94852711D01*
X159695145Y-94855128D01*
X159696046Y-94856398D01*
X159696888Y-94857698D01*
X159697669Y-94859020D01*
X159698391Y-94860389D01*
X159699055Y-94861784D01*
X159699652Y-94863196D01*
X159700179Y-94864643D01*
X159700641Y-94866105D01*
X159701028Y-94867596D01*
X159701342Y-94869096D01*
X159821532Y-95514937D01*
X159821843Y-95516457D01*
X159822221Y-95517978D01*
X159823186Y-95521024D01*
X159824407Y-95524049D01*
X159825867Y-95527056D01*
X159827548Y-95530000D01*
X159829434Y-95532871D01*
X159831501Y-95535653D01*
X159833730Y-95538327D01*
X159836115Y-95540863D01*
X159838628Y-95543247D01*
X159841256Y-95545465D01*
X159843975Y-95547493D01*
X159846783Y-95549304D01*
X159849643Y-95550888D01*
X159852553Y-95552220D01*
X159854014Y-95552788D01*
X159855480Y-95553287D01*
X160359146Y-95754913D01*
X160362013Y-95756161D01*
X160365048Y-95757198D01*
X160368217Y-95758036D01*
X160371513Y-95758668D01*
X160374903Y-95759099D01*
X160378347Y-95759327D01*
X160381833Y-95759366D01*
X160385332Y-95759202D01*
X160388814Y-95758850D01*
X160392252Y-95758300D01*
X160395629Y-95757563D01*
X160398917Y-95756637D01*
X160402073Y-95755521D01*
X160405091Y-95754228D01*
X160407932Y-95752740D01*
X160410579Y-95751083D01*
X160945177Y-95384240D01*
X160946464Y-95383403D01*
X160947794Y-95382633D01*
X160949158Y-95381929D01*
X160950550Y-95381288D01*
X160951980Y-95380706D01*
X160953434Y-95380198D01*
X160956407Y-95379362D01*
X160959447Y-95378775D01*
X160962538Y-95378447D01*
X160965664Y-95378367D01*
X160968786Y-95378531D01*
X160971879Y-95378940D01*
X160974936Y-95379591D01*
X160977922Y-95380483D01*
X160980805Y-95381612D01*
X160983581Y-95382978D01*
X160984916Y-95383750D01*
X160986217Y-95384573D01*
X160987472Y-95385469D01*
X160988690Y-95386413D01*
X160989851Y-95387403D01*
X160990971Y-95388469D01*
X161472807Y-95870384D01*
X161473860Y-95871499D01*
X161474856Y-95872661D01*
X161475802Y-95873873D01*
X161476685Y-95875121D01*
X161477511Y-95876416D01*
X161478281Y-95877749D01*
X161478991Y-95879120D01*
X161479635Y-95880516D01*
X161480239Y-95881946D01*
X161480763Y-95883403D01*
X161481654Y-95886378D01*
X161482306Y-95889424D01*
X161482711Y-95892519D01*
X161482878Y-95895635D01*
X161482797Y-95898753D01*
X161482470Y-95901851D01*
X161482213Y-95903379D01*
X161481890Y-95904897D01*
X161481510Y-95906393D01*
X161481058Y-95907867D01*
X161480547Y-95909321D01*
X161479977Y-95910750D01*
X161479336Y-95912147D01*
X161478636Y-95913510D01*
X161477862Y-95914844D01*
X161477038Y-95916139D01*
X161116597Y-96441269D01*
X161114960Y-96443906D01*
X161113524Y-96446741D01*
X161112288Y-96449731D01*
X161111254Y-96452855D01*
X161110422Y-96456097D01*
X161109798Y-96459419D01*
X161109375Y-96462802D01*
X161109162Y-96466218D01*
X161109148Y-96469642D01*
X161109339Y-96473040D01*
X161109740Y-96476405D01*
X161110351Y-96479687D01*
X161111162Y-96482880D01*
X161112189Y-96485947D01*
X161113421Y-96488872D01*
X161114864Y-96491618D01*
X161238513Y-96723210D01*
X161239180Y-96724591D01*
X161239755Y-96725987D01*
X161240259Y-96727385D01*
X161240686Y-96728795D01*
X161241036Y-96730208D01*
X161241301Y-96731627D01*
X161241502Y-96733047D01*
X161241617Y-96734458D01*
X161241669Y-96735864D01*
X161241645Y-96737271D01*
X161241545Y-96738660D01*
X161241375Y-96740041D01*
X161241136Y-96741403D01*
X161240832Y-96742750D01*
X161240452Y-96744077D01*
X161240004Y-96745381D01*
X161239503Y-96746663D01*
X161238922Y-96747920D01*
X161238283Y-96749138D01*
X161237582Y-96750332D01*
X161236817Y-96751489D01*
X161235989Y-96752608D01*
X161235095Y-96753698D01*
X161234148Y-96754739D01*
X161233138Y-96755729D01*
X161232068Y-96756680D01*
X161230947Y-96757583D01*
X161229764Y-96758432D01*
X161228531Y-96759233D01*
X161227238Y-96759969D01*
X161225893Y-96760651D01*
X161224495Y-96761271D01*
X160070678Y-97238795D01*
X160069248Y-97239351D01*
X160067787Y-97239835D01*
X160066314Y-97240241D01*
X160064823Y-97240578D01*
X160063317Y-97240852D01*
X160061797Y-97241050D01*
X160058746Y-97241244D01*
X160055675Y-97241172D01*
X160052621Y-97240833D01*
X160049601Y-97240250D01*
X160046639Y-97239415D01*
X160043752Y-97238339D01*
X160040961Y-97237038D01*
X160038290Y-97235515D01*
X160035771Y-97233770D01*
X160033411Y-97231820D01*
X160032294Y-97230768D01*
X160031240Y-97229665D01*
X160030227Y-97228514D01*
X160029270Y-97227315D01*
X160028382Y-97226072D01*
X160027545Y-97224780D01*
X159992063Y-97166818D01*
X159989405Y-97162633D01*
X159986372Y-97158177D01*
X159983032Y-97153522D01*
X159979444Y-97148750D01*
X159975677Y-97143948D01*
X159971809Y-97139193D01*
X159967885Y-97134576D01*
X159963990Y-97130167D01*
X159937725Y-97091807D01*
X159909209Y-97055200D01*
X159878542Y-97020434D01*
X159845826Y-96987616D01*
X159811152Y-96956856D01*
X159774620Y-96928243D01*
X159736337Y-96901882D01*
X159696398Y-96877872D01*
X159654898Y-96856303D01*
X159633596Y-96846472D01*
X159611947Y-96837286D01*
X159589953Y-96828770D01*
X159567635Y-96820928D01*
X159545001Y-96813772D01*
X159522064Y-96807319D01*
X159498836Y-96801575D01*
X159475336Y-96796555D01*
X159451565Y-96792271D01*
X159427545Y-96788750D01*
X159403280Y-96785976D01*
X159378788Y-96783983D01*
X159354086Y-96782784D01*
X159329180Y-96782375D01*
X159290400Y-96783355D01*
X159252128Y-96786268D01*
X159214411Y-96791062D01*
X159177297Y-96797687D01*
X159140833Y-96806104D01*
X159105073Y-96816263D01*
X159070059Y-96828111D01*
X159035836Y-96841602D01*
X159002451Y-96856696D01*
X158969954Y-96873340D01*
X158938395Y-96891483D01*
X158907818Y-96911093D01*
X158878273Y-96932104D01*
X158849800Y-96954479D01*
X158822464Y-96978163D01*
X158796285Y-97003123D01*
X158771336Y-97029293D01*
X158747642Y-97056636D01*
X158725277Y-97085111D01*
X158704263Y-97114659D01*
X158684659Y-97145237D01*
X158666513Y-97176791D01*
X158649871Y-97209284D01*
X158634776Y-97242666D01*
X158621288Y-97276891D01*
X158609439Y-97311907D01*
X158599282Y-97347665D01*
X158590870Y-97384124D01*
X158584243Y-97421235D01*
X158579448Y-97458955D01*
X158576541Y-97497222D01*
X158575560Y-97535998D01*
X158576541Y-97574776D01*
X158579448Y-97613045D01*
X158584243Y-97650763D01*
X158590870Y-97687873D01*
X158599282Y-97724328D01*
X158609439Y-97760088D01*
X158621288Y-97795105D01*
X158634776Y-97829325D01*
X158649871Y-97862707D01*
X158666513Y-97895196D01*
X158684659Y-97926754D01*
X158704263Y-97957329D01*
X158725277Y-97986880D01*
X158747642Y-98015347D01*
X158771336Y-98042690D01*
X158796285Y-98068858D01*
X158822464Y-98093811D01*
X158849800Y-98117501D01*
X158878273Y-98139866D01*
X158907818Y-98160875D01*
X158938395Y-98180482D01*
X158969954Y-98198627D01*
X159002451Y-98215264D01*
X159035836Y-98230364D01*
X159070059Y-98243854D01*
X159105073Y-98255701D01*
X159140833Y-98265860D01*
X159177297Y-98274269D01*
X159214411Y-98280900D01*
X159252128Y-98285690D01*
X159290400Y-98288606D01*
X159329180Y-98289578D01*
X159378788Y-98287976D01*
X159427545Y-98283216D01*
X159475336Y-98275412D01*
X159522064Y-98264643D01*
X159567635Y-98251036D01*
X159611947Y-98234680D01*
X159654898Y-98215666D01*
X159696398Y-98194108D01*
X159736337Y-98170098D01*
X159774620Y-98143728D01*
X159811152Y-98115119D01*
X159845826Y-98084354D01*
X159878542Y-98051543D01*
X159909209Y-98016774D01*
X159937725Y-97980157D01*
X159963990Y-97941787D01*
X159967885Y-97937408D01*
X159971810Y-97932807D01*
X159975679Y-97928064D01*
X159979445Y-97923258D01*
X159983032Y-97918495D01*
X159986372Y-97913843D01*
X159989405Y-97909391D01*
X159992063Y-97905217D01*
X160027545Y-97847264D01*
X160028382Y-97845974D01*
X160029270Y-97844735D01*
X160030227Y-97843545D01*
X160031240Y-97842402D01*
X160032294Y-97841300D01*
X160033411Y-97840254D01*
X160034570Y-97839256D01*
X160035771Y-97838306D01*
X160037008Y-97837407D01*
X160038290Y-97836570D01*
X160039608Y-97835777D01*
X160040961Y-97835049D01*
X160042342Y-97834366D01*
X160043752Y-97833743D01*
X160045182Y-97833173D01*
X160046639Y-97832671D01*
X160048114Y-97832221D01*
X160049601Y-97831835D01*
X160051108Y-97831506D01*
X160052621Y-97831240D01*
X160054149Y-97831044D01*
X160055675Y-97830903D01*
X160057211Y-97830828D01*
X160058746Y-97830823D01*
X160060270Y-97830884D01*
X160061797Y-97831008D01*
X160063317Y-97831205D01*
X160064823Y-97831468D01*
X160066314Y-97831802D01*
X160067787Y-97832214D01*
X160069248Y-97832692D01*
X160070678Y-97833237D01*
X161224537Y-98310729D01*
X161225933Y-98311348D01*
X161227279Y-98312030D01*
X161228570Y-98312767D01*
X161229805Y-98313563D01*
X161230986Y-98314414D01*
X161232112Y-98315314D01*
X161233172Y-98316261D01*
X161234181Y-98317253D01*
X161235125Y-98318295D01*
X161236015Y-98319374D01*
X161236845Y-98320500D01*
X161237612Y-98321657D01*
X161238316Y-98322845D01*
X161238950Y-98324068D01*
X161239522Y-98325322D01*
X161240031Y-98326602D01*
X161240475Y-98327907D01*
X161240849Y-98329231D01*
X161241158Y-98330581D01*
X161241395Y-98331941D01*
X161241567Y-98333322D01*
X161241667Y-98334712D01*
X161241684Y-98336117D01*
X161241645Y-98337522D01*
X161241520Y-98338941D01*
X161241330Y-98340353D01*
X161241059Y-98341775D01*
X161240719Y-98343193D01*
X161240294Y-98344603D01*
X161239791Y-98346011D01*
X161239215Y-98347405D01*
X161238555Y-98348787D01*
X161114903Y-98580381D01*
X161113464Y-98583136D01*
X161112224Y-98586060D01*
X161111200Y-98589134D01*
X161110383Y-98592325D01*
X161109774Y-98595616D01*
X161109367Y-98598974D01*
X161109175Y-98602376D01*
X161109184Y-98605795D01*
X161109403Y-98609210D01*
X161109820Y-98612589D01*
X161110449Y-98615909D01*
X161111278Y-98619148D01*
X161112317Y-98622275D01*
X161113552Y-98625262D01*
X161114989Y-98628094D01*
X161116635Y-98630727D01*
X161477077Y-99155898D01*
X161477903Y-99157187D01*
X161478677Y-99158518D01*
X161479377Y-99159885D01*
X161480013Y-99161274D01*
X161480590Y-99162704D01*
X161481098Y-99164152D01*
X161481933Y-99167125D01*
X161482512Y-99170174D01*
X161482836Y-99173265D01*
X161482920Y-99176378D01*
X161482753Y-99179498D01*
X161482346Y-99182592D01*
X161481696Y-99185641D01*
X161480807Y-99188612D01*
X161479673Y-99191499D01*
X161478321Y-99194263D01*
X161477553Y-99195598D01*
X161476726Y-99196883D01*
X161475841Y-99198135D01*
X161474897Y-99199349D01*
X161473902Y-99200503D01*
X161472842Y-99201615D01*
X160991014Y-99683531D01*
X160989892Y-99684597D01*
X160988726Y-99685594D01*
X160987517Y-99686543D01*
X160986256Y-99687436D01*
X160984956Y-99688269D01*
X160983623Y-99689041D01*
X160982252Y-99689756D01*
X160980848Y-99690409D01*
X160979414Y-99691007D01*
X160977959Y-99691542D01*
X160974975Y-99692439D01*
X160971919Y-99693090D01*
X160968827Y-99693499D01*
X160965706Y-99693662D01*
X160962586Y-99693580D01*
X160959487Y-99693249D01*
X160957963Y-99692979D01*
X160956443Y-99692659D01*
X160954944Y-99692271D01*
X160953469Y-99691823D01*
X160952017Y-99691307D01*
X160950590Y-99690724D01*
X160949194Y-99690079D01*
X160947835Y-99689375D01*
X160946506Y-99688600D01*
X160945220Y-99687760D01*
X160410620Y-99320879D01*
X160407973Y-99319230D01*
X160405130Y-99317756D01*
X160402113Y-99316470D01*
X160398948Y-99315358D01*
X160395668Y-99314441D01*
X160392294Y-99313711D01*
X160388852Y-99313161D01*
X160385369Y-99312807D01*
X160381876Y-99312646D01*
X160378386Y-99312677D01*
X160374942Y-99312905D01*
X160371557Y-99313335D01*
X160368259Y-99313969D01*
X160365085Y-99314804D01*
X160362048Y-99315839D01*
X160359184Y-99317087D01*
X159855519Y-99518713D01*
X159854055Y-99519215D01*
X159852591Y-99519784D01*
X159849683Y-99521129D01*
X159846821Y-99522703D01*
X159844018Y-99524511D01*
X159841293Y-99526535D01*
X159838670Y-99528751D01*
X159836151Y-99531124D01*
X159833773Y-99533654D01*
X159831537Y-99536312D01*
X159829474Y-99539088D01*
X159827591Y-99541960D01*
X159825908Y-99544899D01*
X159824449Y-99547895D01*
X159823228Y-99550928D01*
X159822712Y-99552452D01*
X159822266Y-99553976D01*
X159821876Y-99555498D01*
X159821566Y-99557021D01*
X159701380Y-100202860D01*
X159701067Y-100204366D01*
X159700680Y-100205849D01*
X159700221Y-100207313D01*
X159699690Y-100208752D01*
X159699095Y-100210165D01*
X159698434Y-100211559D01*
X159697712Y-100212913D01*
X159696926Y-100214253D01*
X159696083Y-100215548D01*
X159695190Y-100216812D01*
X159694235Y-100218045D01*
X159693235Y-100219229D01*
X159692179Y-100220384D01*
X159691087Y-100221495D01*
X159689943Y-100222563D01*
X159688755Y-100223587D01*
X159687539Y-100224560D01*
X159686278Y-100225489D01*
X159684982Y-100226361D01*
X159683653Y-100227180D01*
X159682297Y-100227946D01*
X159680910Y-100228658D01*
X159679498Y-100229311D01*
X159678064Y-100229904D01*
X159676612Y-100230429D01*
X159675129Y-100230899D01*
X159673643Y-100231299D01*
X159672133Y-100231620D01*
X159670616Y-100231887D01*
X159669093Y-100232072D01*
X159667556Y-100232186D01*
X159666015Y-100232225D01*
X158984567Y-100232308D01*
X158983029Y-100232269D01*
X158981491Y-100232166D01*
X158979966Y-100231972D01*
X158978440Y-100231723D01*
X158976938Y-100231394D01*
X158975448Y-100231000D01*
X158973972Y-100230537D01*
X158972519Y-100230014D01*
X158971086Y-100229423D01*
X158969676Y-100228776D01*
X158966941Y-100227305D01*
X158964317Y-100225615D01*
X158961834Y-100223726D01*
X158959514Y-100221632D01*
X158957372Y-100219380D01*
X158955413Y-100216967D01*
X158953672Y-100214402D01*
X158952889Y-100213076D01*
X158952160Y-100211709D01*
X158951500Y-100210324D01*
X158950892Y-100208909D01*
X158950358Y-100207471D01*
X158949888Y-100206009D01*
X158949487Y-100204527D01*
X158949167Y-100203024D01*
X158826039Y-99540908D01*
X158825335Y-99537875D01*
X158824364Y-99534824D01*
X158823139Y-99531779D01*
X158821685Y-99528755D01*
X158820019Y-99525775D01*
X158818146Y-99522862D01*
X158816096Y-99520037D01*
X158813880Y-99517315D01*
X158811521Y-99514719D01*
X158809028Y-99512261D01*
X158806435Y-99509966D01*
X158803733Y-99507874D01*
X158800954Y-99505980D01*
X158798117Y-99504301D01*
X158795238Y-99502878D01*
X158792331Y-99501719D01*
X158318834Y-99298760D01*
X158315998Y-99297446D01*
X158312999Y-99296345D01*
X158309845Y-99295448D01*
X158306580Y-99294759D01*
X158303224Y-99294277D01*
X158299797Y-99293994D01*
X158296340Y-99293909D01*
X158292860Y-99294033D01*
X158289394Y-99294349D01*
X158285968Y-99294866D01*
X158282605Y-99295568D01*
X158279329Y-99296472D01*
X158276163Y-99297570D01*
X158273150Y-99298856D01*
X158270297Y-99300324D01*
X158267638Y-99301990D01*
X157705370Y-99687760D01*
X157704077Y-99688590D01*
X157702765Y-99689362D01*
X157701396Y-99690061D01*
X157700002Y-99690704D01*
X157698575Y-99691281D01*
X157697122Y-99691794D01*
X157694147Y-99692629D01*
X157691107Y-99693212D01*
X157688016Y-99693539D01*
X157684900Y-99693632D01*
X157681788Y-99693470D01*
X157678692Y-99693066D01*
X157675643Y-99692414D01*
X157672665Y-99691525D01*
X157669773Y-99690398D01*
X157667001Y-99689035D01*
X157665672Y-99688263D01*
X157664371Y-99687435D01*
X157663112Y-99686542D01*
X157661906Y-99685594D01*
X157660731Y-99684598D01*
X157659621Y-99683531D01*
X157177781Y-99201697D01*
X157176721Y-99200578D01*
X157175719Y-99199415D01*
X157174765Y-99198200D01*
X157173881Y-99196947D01*
X157173045Y-99195650D01*
X157172275Y-99194317D01*
X157171560Y-99192943D01*
X157170900Y-99191547D01*
X157170308Y-99190119D01*
X157169775Y-99188661D01*
X157168884Y-99185685D01*
X157168222Y-99182635D01*
X157167816Y-99179549D01*
X157167648Y-99176441D01*
X157167736Y-99173327D01*
X157168073Y-99170240D01*
X157168333Y-99168706D01*
X157168658Y-99167197D01*
X157169045Y-99165705D01*
X157169499Y-99164225D01*
X157170007Y-99162781D01*
X157170592Y-99161350D01*
X157171230Y-99159959D01*
X157171945Y-99158598D01*
X157172719Y-99157273D01*
X157173562Y-99155981D01*
X157566181Y-98583845D01*
X157567830Y-98581200D01*
X157569303Y-98578350D01*
X157570594Y-98575336D01*
X157571700Y-98572168D01*
X157572622Y-98568884D01*
X157573347Y-98565498D01*
X157573894Y-98562057D01*
X157574237Y-98558567D01*
X157574388Y-98555068D01*
X157574345Y-98551580D01*
X157574112Y-98548135D01*
X157573669Y-98544747D01*
X157573031Y-98541457D01*
X157572189Y-98538289D01*
X157571144Y-98535267D01*
X157569881Y-98532413D01*
X157381987Y-98073416D01*
X157381465Y-98071955D01*
X157380883Y-98070502D01*
X157380223Y-98069054D01*
X157379506Y-98067618D01*
X157377885Y-98064770D01*
X157376033Y-98061986D01*
X157373964Y-98059282D01*
X157371720Y-98056666D01*
X157369302Y-98054168D01*
X157366739Y-98051801D01*
X157364041Y-98049581D01*
X157361242Y-98047519D01*
X157358340Y-98045647D01*
X157355382Y-98043971D01*
X157352373Y-98042506D01*
X157349328Y-98041277D01*
X157346283Y-98040295D01*
X157344760Y-98039907D01*
X157343238Y-98039584D01*
X156658415Y-97912103D01*
X156656908Y-97911789D01*
X156655418Y-97911400D01*
X156653951Y-97910933D01*
X156652508Y-97910409D01*
X156651099Y-97909810D01*
X156649708Y-97909147D01*
X156648344Y-97908426D01*
X156647007Y-97907643D01*
X156645710Y-97906798D01*
X156644444Y-97905904D01*
X156643216Y-97904955D01*
X156642017Y-97903957D01*
X156640873Y-97902906D01*
X156639762Y-97901809D01*
X156638698Y-97900671D01*
X156637670Y-97899488D01*
X156636701Y-97898273D01*
X156635779Y-97897011D01*
X156634901Y-97895723D01*
X156634082Y-97894393D01*
X156633318Y-97893039D01*
X156632606Y-97891659D01*
X156631960Y-97890247D01*
X156631367Y-97888812D01*
X156630839Y-97887362D01*
X156630378Y-97885892D01*
X156629982Y-97884399D01*
X156629650Y-97882895D01*
X156629390Y-97881382D01*
X156629206Y-97879855D01*
X156629095Y-97878322D01*
X156629050Y-97876784D01*
X156629050Y-97195298D01*
X156629095Y-97193765D01*
X156629206Y-97192234D01*
X156629390Y-97190711D01*
X156629650Y-97189197D01*
X156629982Y-97187697D01*
X156630378Y-97186209D01*
X156630839Y-97184744D01*
X156631367Y-97183288D01*
X156631960Y-97181855D01*
X156632606Y-97180444D01*
X156634082Y-97177716D01*
X156635779Y-97175100D01*
X156637670Y-97172627D01*
X156639762Y-97170304D01*
X156642017Y-97168167D01*
X156644444Y-97166213D01*
X156645710Y-97165324D01*
X156647007Y-97164478D01*
X156648344Y-97163697D01*
X156649708Y-97162973D01*
X156651099Y-97162311D01*
X156652508Y-97161711D01*
X156653951Y-97161186D01*
X156655418Y-97160721D01*
X156656908Y-97160327D01*
X156658415Y-97160012D01*
X157343238Y-97032572D01*
X157346283Y-97031857D01*
X157349328Y-97030887D01*
X157352373Y-97029657D01*
X157355382Y-97028200D01*
X157358340Y-97026523D01*
X157361242Y-97024648D01*
X157364041Y-97022592D01*
X157366739Y-97020375D01*
X157369302Y-97018007D01*
X157371720Y-97015509D01*
X157373964Y-97012898D01*
X157376033Y-97010196D01*
X157377885Y-97007407D01*
X157379506Y-97004555D01*
X157380883Y-97001663D01*
X157381987Y-96998744D01*
X157569881Y-96539709D01*
X157571144Y-96536851D01*
X157572189Y-96533822D01*
X157573031Y-96530647D01*
X157573670Y-96527346D01*
X157574112Y-96523961D01*
X157574345Y-96520514D01*
X157574388Y-96517030D01*
X157574237Y-96513522D01*
X157573894Y-96510036D01*
X157573347Y-96506589D01*
X157572622Y-96503211D01*
X157571700Y-96499928D01*
X157570594Y-96496767D01*
X157569303Y-96493753D01*
X157567833Y-96490916D01*
X157566181Y-96488275D01*
X157173562Y-95916178D01*
X157172719Y-95914887D01*
X157171945Y-95913556D01*
X157171230Y-95912187D01*
X157170592Y-95910788D01*
X157170007Y-95909364D01*
X157169499Y-95907910D01*
X157168658Y-95904934D01*
X157168073Y-95901890D01*
X157167736Y-95898790D01*
X157167648Y-95895678D01*
X157167816Y-95892562D01*
X157168222Y-95889471D01*
X157168884Y-95886419D01*
X157169775Y-95883445D01*
X157170900Y-95880558D01*
X157172275Y-95877788D01*
X157173045Y-95876461D01*
X157173881Y-95875163D01*
X157174765Y-95873915D01*
X157175720Y-95872704D01*
X157176721Y-95871534D01*
X157177781Y-95870422D01*
X157659621Y-95388549D01*
X157660731Y-95387488D01*
X157661906Y-95386487D01*
X157663112Y-95385546D01*
X157664371Y-95384654D01*
X157665672Y-95383826D01*
X157667001Y-95383057D01*
X157668375Y-95382342D01*
X157669773Y-95381686D01*
X157671208Y-95381083D01*
X157672665Y-95380555D01*
X157675643Y-95379658D01*
X157678692Y-95379008D01*
X157681788Y-95378599D01*
X157684900Y-95378429D01*
X157688016Y-95378511D01*
X157691107Y-95378845D01*
X157692634Y-95379104D01*
X157694147Y-95379428D01*
X157695651Y-95379816D01*
X157697122Y-95380263D01*
X157698575Y-95380777D01*
X157700002Y-95381356D01*
X157701396Y-95382000D01*
X157702765Y-95382708D01*
X157704077Y-95383481D01*
X157705370Y-95384316D01*
X158267638Y-95770133D01*
X158270297Y-95771779D01*
X158273150Y-95773241D01*
X158276163Y-95774517D01*
X158279329Y-95775600D01*
X158282605Y-95776497D01*
X158285968Y-95777199D01*
X158289394Y-95777706D01*
X158292860Y-95778028D01*
X158296340Y-95778140D01*
X158299797Y-95778066D01*
X158303224Y-95777780D01*
X158306580Y-95777299D01*
X158309845Y-95776615D01*
X158312999Y-95775723D01*
X158315998Y-95774625D01*
X158318834Y-95773316D01*
X158792331Y-95570315D01*
X158793781Y-95569779D01*
X158795238Y-95569168D01*
X158798117Y-95567749D01*
X158800954Y-95566082D01*
X158803733Y-95564195D01*
X158806435Y-95562102D01*
X158809028Y-95559817D01*
X158811521Y-95557372D01*
X158813880Y-95554770D01*
X158816096Y-95552049D01*
X158818146Y-95549226D01*
X158820019Y-95546305D01*
X158821685Y-95543325D01*
X158823139Y-95540301D01*
X158824364Y-95537239D01*
X158825335Y-95534180D01*
X158825722Y-95532652D01*
X158826039Y-95531131D01*
X158949167Y-94869058D01*
X158949487Y-94867549D01*
X158949888Y-94866055D01*
X158950358Y-94864588D01*
X158950892Y-94863145D01*
X158951496Y-94861723D01*
X158952160Y-94860336D01*
X158952889Y-94858971D01*
X158953672Y-94857636D01*
X158954516Y-94856336D01*
X158955413Y-94855076D01*
X158956370Y-94853842D01*
X158957370Y-94852646D01*
X158958418Y-94851502D01*
X158959514Y-94850394D01*
X158960650Y-94849321D01*
X158961831Y-94848298D01*
X158963057Y-94847337D01*
X158964309Y-94846404D01*
X158965598Y-94845535D01*
X158966926Y-94844722D01*
X158968281Y-94843956D01*
X158969665Y-94843247D01*
X158971076Y-94842594D01*
X158972502Y-94842003D01*
X158973957Y-94841481D01*
X158975429Y-94841017D01*
X158976915Y-94840623D01*
X158978419Y-94840291D01*
X158979934Y-94840033D01*
X158981458Y-94839844D01*
X158982992Y-94839733D01*
X158984533Y-94839692D01*
X159665980Y-94839734D01*
G37*
D11*
G36*
X171845732Y-94959471D02*
G01*
X171845732Y-95395661D01*
X171781212Y-95395661D01*
X171781212Y-95056451D01*
X171573944Y-95273236D01*
X171532583Y-95314772D01*
X171495932Y-95346873D01*
X171470915Y-95365097D01*
X171446984Y-95379026D01*
X171426214Y-95388065D01*
X171405358Y-95394293D01*
X171361853Y-95399343D01*
X171358007Y-95399371D01*
X171333502Y-95398099D01*
X171310058Y-95394358D01*
X171287650Y-95388215D01*
X171266527Y-95379801D01*
X171228306Y-95356411D01*
X171196395Y-95324943D01*
X171183129Y-95306426D01*
X171171864Y-95286262D01*
X171162697Y-95264524D01*
X171155766Y-95241373D01*
X171151189Y-95216960D01*
X171149067Y-95191379D01*
X171148924Y-95182667D01*
X171150201Y-95156694D01*
X171153976Y-95131863D01*
X171160112Y-95108463D01*
X171168548Y-95086410D01*
X171179113Y-95065968D01*
X171191784Y-95047068D01*
X171206387Y-95029920D01*
X171222916Y-95014506D01*
X171241233Y-95000973D01*
X171261311Y-94989374D01*
X171282802Y-94979915D01*
X171311204Y-94970994D01*
X171340046Y-94966460D01*
X171384218Y-94965036D01*
X171384218Y-95035079D01*
X171351363Y-95036389D01*
X171324506Y-95040395D01*
X171289334Y-95052540D01*
X171273028Y-95062127D01*
X171258493Y-95073624D01*
X171235038Y-95101896D01*
X171219749Y-95136455D01*
X171215450Y-95155844D01*
X171213566Y-95176355D01*
X171213484Y-95181739D01*
X171214752Y-95203188D01*
X171218472Y-95223423D01*
X171224513Y-95242307D01*
X171232746Y-95259696D01*
X171243004Y-95275404D01*
X171255182Y-95289349D01*
X171269064Y-95301326D01*
X171284588Y-95311287D01*
X171301509Y-95319051D01*
X171319801Y-95324557D01*
X171354297Y-95328359D01*
X171374599Y-95327050D01*
X171394184Y-95323043D01*
X171430701Y-95307453D01*
X171467891Y-95280615D01*
X171498301Y-95253154D01*
X171550879Y-95199321D01*
X171781938Y-94959471D01*
X171845732Y-94959471D01*
G37*
G36*
X171635146Y-95469616D02*
G01*
X171669927Y-95473485D01*
X171698546Y-95479265D01*
X171724268Y-95487190D01*
X171755405Y-95501795D01*
X171774936Y-95514801D01*
X171792471Y-95529588D01*
X171807821Y-95545902D01*
X171821186Y-95563860D01*
X171841978Y-95604764D01*
X171854696Y-95652859D01*
X171858635Y-95703538D01*
X171857347Y-95732855D01*
X171853490Y-95760341D01*
X171847464Y-95784708D01*
X171839145Y-95807360D01*
X171828988Y-95827507D01*
X171816727Y-95846011D01*
X171802654Y-95862552D01*
X171786572Y-95877455D01*
X171773026Y-95887660D01*
X171736564Y-95906698D01*
X171686732Y-95920778D01*
X171621919Y-95928054D01*
X171596687Y-95928589D01*
X171402606Y-95928589D01*
X171359047Y-95927221D01*
X171322656Y-95922801D01*
X171298549Y-95917078D01*
X171276741Y-95909091D01*
X171241025Y-95888587D01*
X171222887Y-95874568D01*
X171206627Y-95858779D01*
X171179759Y-95822017D01*
X171160834Y-95778649D01*
X171150561Y-95729041D01*
X171148973Y-95698901D01*
X171213484Y-95698901D01*
X171214760Y-95721193D01*
X171218530Y-95742329D01*
X171224616Y-95761928D01*
X171232967Y-95780122D01*
X171243341Y-95796558D01*
X171255757Y-95811360D01*
X171273930Y-95827294D01*
X171289939Y-95837396D01*
X171307867Y-95845314D01*
X171350419Y-95855002D01*
X171418292Y-95858505D01*
X171585598Y-95858505D01*
X171626802Y-95857217D01*
X171663048Y-95853357D01*
X171690122Y-95847892D01*
X171712456Y-95840481D01*
X171720887Y-95836488D01*
X171736561Y-95827043D01*
X171750481Y-95815658D01*
X171772786Y-95787488D01*
X171787562Y-95752066D01*
X171793955Y-95709268D01*
X171794116Y-95700756D01*
X171792830Y-95677130D01*
X171788989Y-95655033D01*
X171782967Y-95635451D01*
X171774664Y-95617405D01*
X171764471Y-95601457D01*
X171752181Y-95587080D01*
X171730000Y-95568693D01*
X171698764Y-95552714D01*
X171654492Y-95542439D01*
X171585598Y-95538410D01*
X171418292Y-95538410D01*
X171375747Y-95539726D01*
X171340163Y-95543777D01*
X171316001Y-95549184D01*
X171295746Y-95556577D01*
X171284939Y-95562241D01*
X171255800Y-95585368D01*
X171233442Y-95616084D01*
X171218930Y-95653575D01*
X171213496Y-95696687D01*
X171213484Y-95698901D01*
X171148973Y-95698901D01*
X171148924Y-95697974D01*
X171150207Y-95669511D01*
X171154022Y-95642467D01*
X171160114Y-95617651D01*
X171168511Y-95594396D01*
X171178835Y-95573399D01*
X171191253Y-95554077D01*
X171205365Y-95536920D01*
X171221399Y-95521548D01*
X171226146Y-95517642D01*
X171244876Y-95504252D01*
X171265129Y-95493104D01*
X171309915Y-95477568D01*
X171366209Y-95469473D01*
X171402606Y-95468326D01*
X171596687Y-95468326D01*
X171635146Y-95469616D01*
G37*
G36*
X171845732Y-95982745D02*
G01*
X171845732Y-96418935D01*
X171781212Y-96418935D01*
X171781212Y-96079726D01*
X171573944Y-96296510D01*
X171532583Y-96338047D01*
X171495932Y-96370147D01*
X171470915Y-96388371D01*
X171446984Y-96402300D01*
X171426214Y-96411339D01*
X171405358Y-96417567D01*
X171361853Y-96422617D01*
X171358007Y-96422645D01*
X171333502Y-96421373D01*
X171310058Y-96417632D01*
X171287650Y-96411490D01*
X171266527Y-96403075D01*
X171228306Y-96379685D01*
X171196395Y-96348217D01*
X171183129Y-96329701D01*
X171171864Y-96309536D01*
X171162697Y-96287798D01*
X171155766Y-96264647D01*
X171151189Y-96240235D01*
X171149067Y-96214653D01*
X171148924Y-96205941D01*
X171150201Y-96179968D01*
X171153976Y-96155138D01*
X171160112Y-96131738D01*
X171168548Y-96109685D01*
X171179113Y-96089243D01*
X171191784Y-96070342D01*
X171206387Y-96053194D01*
X171222916Y-96037780D01*
X171241233Y-96024248D01*
X171261311Y-96012648D01*
X171282802Y-96003190D01*
X171311204Y-95994268D01*
X171340046Y-95989734D01*
X171384218Y-95988310D01*
X171384218Y-96058354D01*
X171351363Y-96059663D01*
X171324506Y-96063669D01*
X171289334Y-96075814D01*
X171273028Y-96085402D01*
X171258493Y-96096898D01*
X171235038Y-96125171D01*
X171219749Y-96159729D01*
X171215450Y-96179119D01*
X171213566Y-96199629D01*
X171213484Y-96205014D01*
X171214752Y-96226463D01*
X171218472Y-96246698D01*
X171224513Y-96265581D01*
X171232746Y-96282971D01*
X171243004Y-96298678D01*
X171255182Y-96312623D01*
X171269064Y-96324601D01*
X171284588Y-96334562D01*
X171301509Y-96342325D01*
X171319801Y-96347831D01*
X171354297Y-96351634D01*
X171374599Y-96350324D01*
X171394184Y-96346318D01*
X171430701Y-96330728D01*
X171467891Y-96303889D01*
X171498301Y-96276428D01*
X171550879Y-96222595D01*
X171781938Y-95982745D01*
X171845732Y-95982745D01*
G37*
G36*
X171646526Y-96488275D02*
G01*
X171671615Y-96492015D01*
X171718976Y-96506675D01*
X171761392Y-96530333D01*
X171797585Y-96562156D01*
X171812941Y-96580793D01*
X171826293Y-96601079D01*
X171837464Y-96622775D01*
X171846407Y-96645862D01*
X171852945Y-96669981D01*
X171857057Y-96695230D01*
X171858635Y-96724030D01*
X171857362Y-96749547D01*
X171853613Y-96774058D01*
X171847443Y-96797611D01*
X171838975Y-96819942D01*
X171815356Y-96860815D01*
X171783427Y-96895697D01*
X171743978Y-96923528D01*
X171721712Y-96934468D01*
X171697939Y-96943247D01*
X171672790Y-96949750D01*
X171646363Y-96953875D01*
X171614954Y-96955533D01*
X171563837Y-96950542D01*
X171515830Y-96935864D01*
X171472566Y-96912159D01*
X171453275Y-96897238D01*
X171435846Y-96880506D01*
X171420517Y-96862218D01*
X171407333Y-96842426D01*
X171396609Y-96821640D01*
X171388250Y-96799672D01*
X171382507Y-96777213D01*
X171379290Y-96753884D01*
X171378613Y-96736975D01*
X171379443Y-96722175D01*
X171443132Y-96722175D01*
X171444403Y-96743572D01*
X171448137Y-96763895D01*
X171454242Y-96783092D01*
X171462591Y-96800983D01*
X171485729Y-96832581D01*
X171516818Y-96857687D01*
X171535129Y-96867467D01*
X171555040Y-96875160D01*
X171576546Y-96880668D01*
X171599412Y-96883819D01*
X171617737Y-96884562D01*
X171641972Y-96883292D01*
X171664916Y-96879565D01*
X171686414Y-96873512D01*
X171706355Y-96865253D01*
X171724500Y-96854980D01*
X171740845Y-96842771D01*
X171755118Y-96828901D01*
X171767371Y-96813370D01*
X171777370Y-96796508D01*
X171785150Y-96778252D01*
X171790546Y-96758917D01*
X171793528Y-96738436D01*
X171794116Y-96724030D01*
X171792846Y-96702607D01*
X171789118Y-96682219D01*
X171774639Y-96644740D01*
X171751392Y-96612513D01*
X171720123Y-96586654D01*
X171701729Y-96576485D01*
X171681760Y-96568409D01*
X171660266Y-96562533D01*
X171637463Y-96559016D01*
X171615882Y-96557974D01*
X171593264Y-96559242D01*
X171571677Y-96562955D01*
X171551014Y-96569070D01*
X171531704Y-96577414D01*
X171513766Y-96587934D01*
X171497504Y-96600431D01*
X171483077Y-96614753D01*
X171470628Y-96630763D01*
X171460394Y-96648148D01*
X171452397Y-96666911D01*
X171446852Y-96686600D01*
X171443760Y-96707357D01*
X171443132Y-96722175D01*
X171379443Y-96722175D01*
X171379997Y-96712305D01*
X171384529Y-96690203D01*
X171396194Y-96660237D01*
X171159247Y-96819841D01*
X171159247Y-96738144D01*
X171412485Y-96568539D01*
X171468908Y-96532569D01*
X171514366Y-96508527D01*
X171539446Y-96498679D01*
X171563612Y-96492147D01*
X171611808Y-96487090D01*
X171620479Y-96487003D01*
X171646526Y-96488275D01*
G37*
G36*
X171569589Y-97004165D02*
G01*
X171630439Y-97004165D01*
X171630439Y-97257322D01*
X171569589Y-97257322D01*
X171569589Y-97004165D01*
G37*
G36*
X171635146Y-97310993D02*
G01*
X171669927Y-97314862D01*
X171698546Y-97320643D01*
X171724268Y-97328568D01*
X171755405Y-97343173D01*
X171774936Y-97356178D01*
X171792471Y-97370965D01*
X171807821Y-97387280D01*
X171821186Y-97405237D01*
X171841978Y-97446142D01*
X171854696Y-97494237D01*
X171858635Y-97544916D01*
X171857347Y-97574232D01*
X171853490Y-97601719D01*
X171847464Y-97626085D01*
X171839145Y-97648738D01*
X171828988Y-97668885D01*
X171816727Y-97687389D01*
X171802654Y-97703929D01*
X171786572Y-97718833D01*
X171773026Y-97729038D01*
X171736564Y-97748076D01*
X171686732Y-97762156D01*
X171621919Y-97769432D01*
X171596687Y-97769967D01*
X171402606Y-97769967D01*
X171359047Y-97768598D01*
X171322656Y-97764179D01*
X171298549Y-97758456D01*
X171276741Y-97750468D01*
X171241025Y-97729965D01*
X171222887Y-97715946D01*
X171206627Y-97700157D01*
X171179759Y-97663394D01*
X171160834Y-97620027D01*
X171150561Y-97570419D01*
X171148973Y-97540279D01*
X171213484Y-97540279D01*
X171214760Y-97562571D01*
X171218530Y-97583707D01*
X171224616Y-97603305D01*
X171232967Y-97621500D01*
X171243341Y-97637935D01*
X171255757Y-97652738D01*
X171273930Y-97668672D01*
X171289939Y-97678774D01*
X171307867Y-97686691D01*
X171350419Y-97696379D01*
X171418292Y-97699883D01*
X171585598Y-97699883D01*
X171626802Y-97698594D01*
X171663048Y-97694735D01*
X171690122Y-97689270D01*
X171712456Y-97681858D01*
X171720887Y-97677866D01*
X171736561Y-97668421D01*
X171750481Y-97657036D01*
X171772786Y-97628865D01*
X171787562Y-97593444D01*
X171793955Y-97550646D01*
X171794116Y-97542134D01*
X171792830Y-97518507D01*
X171788989Y-97496411D01*
X171782967Y-97476828D01*
X171774664Y-97458782D01*
X171764471Y-97442835D01*
X171752181Y-97428458D01*
X171730000Y-97410071D01*
X171698764Y-97394092D01*
X171654492Y-97383817D01*
X171585598Y-97379787D01*
X171418292Y-97379787D01*
X171375747Y-97381103D01*
X171340163Y-97385155D01*
X171316001Y-97390561D01*
X171295746Y-97397955D01*
X171284939Y-97403619D01*
X171255800Y-97426746D01*
X171233442Y-97457462D01*
X171218930Y-97494953D01*
X171213496Y-97538065D01*
X171213484Y-97540279D01*
X171148973Y-97540279D01*
X171148924Y-97539351D01*
X171150207Y-97510889D01*
X171154022Y-97483844D01*
X171160114Y-97459029D01*
X171168511Y-97435773D01*
X171178835Y-97414776D01*
X171191253Y-97395455D01*
X171205365Y-97378298D01*
X171221399Y-97362926D01*
X171226146Y-97359020D01*
X171244876Y-97345629D01*
X171265129Y-97334482D01*
X171309915Y-97318946D01*
X171366209Y-97310851D01*
X171402606Y-97309703D01*
X171596687Y-97309703D01*
X171635146Y-97310993D01*
G37*
G36*
X171670519Y-97833701D02*
G01*
X171693555Y-97837436D01*
X171736987Y-97852086D01*
X171775758Y-97875794D01*
X171808575Y-97907802D01*
X171822328Y-97926618D01*
X171834074Y-97947078D01*
X171843669Y-97969017D01*
X171851007Y-97992330D01*
X171855929Y-98016693D01*
X171858375Y-98042149D01*
X171858635Y-98053771D01*
X171857363Y-98079319D01*
X171853617Y-98103750D01*
X171847485Y-98127016D01*
X171839081Y-98148933D01*
X171828492Y-98169431D01*
X171815840Y-98188351D01*
X171801224Y-98205591D01*
X171784762Y-98221026D01*
X171766581Y-98234530D01*
X171746775Y-98246007D01*
X171725506Y-98255326D01*
X171702835Y-98262405D01*
X171678950Y-98267121D01*
X171653886Y-98269390D01*
X171643786Y-98269588D01*
X171618799Y-98268308D01*
X171595165Y-98264514D01*
X171573409Y-98258430D01*
X171553068Y-98250063D01*
X171534411Y-98239610D01*
X171517252Y-98227046D01*
X171487606Y-98195759D01*
X171464364Y-98156058D01*
X171463455Y-98154018D01*
X171453480Y-98172311D01*
X171441733Y-98188202D01*
X171429083Y-98200909D01*
X171414796Y-98211520D01*
X171381728Y-98226310D01*
X171340379Y-98233125D01*
X171326755Y-98233497D01*
X171303763Y-98232226D01*
X171281912Y-98228491D01*
X171261273Y-98222394D01*
X171242006Y-98214056D01*
X171224171Y-98203561D01*
X171207944Y-98191048D01*
X171180693Y-98160329D01*
X171169929Y-98142349D01*
X171161258Y-98122807D01*
X171154788Y-98101794D01*
X171150649Y-98079458D01*
X171148924Y-98051916D01*
X171149027Y-98050988D01*
X171213484Y-98050988D01*
X171214751Y-98069854D01*
X171218457Y-98087385D01*
X171224409Y-98103327D01*
X171232488Y-98117674D01*
X171242476Y-98130204D01*
X171254289Y-98140887D01*
X171267735Y-98149558D01*
X171282723Y-98156127D01*
X171299137Y-98160462D01*
X171316827Y-98162422D01*
X171322118Y-98162526D01*
X171340149Y-98161264D01*
X171357079Y-98157589D01*
X171372951Y-98151572D01*
X171387354Y-98143424D01*
X171400218Y-98133227D01*
X171411242Y-98121220D01*
X171420238Y-98107609D01*
X171427056Y-98092553D01*
X171431484Y-98076427D01*
X171433448Y-98059235D01*
X171433535Y-98054698D01*
X171433283Y-98050988D01*
X171499909Y-98050988D01*
X171501178Y-98072325D01*
X171504901Y-98092450D01*
X171510946Y-98111225D01*
X171519189Y-98128531D01*
X171529486Y-98144217D01*
X171541722Y-98158180D01*
X171555740Y-98170270D01*
X171571437Y-98180386D01*
X171588655Y-98188388D01*
X171607296Y-98194169D01*
X171645641Y-98198576D01*
X171667191Y-98197307D01*
X171687494Y-98193584D01*
X171706389Y-98187547D01*
X171723790Y-98179318D01*
X171739532Y-98169051D01*
X171753538Y-98156854D01*
X171765655Y-98142887D01*
X171775795Y-98127247D01*
X171783823Y-98110086D01*
X171789632Y-98091504D01*
X171794116Y-98052843D01*
X171792846Y-98031239D01*
X171789120Y-98010897D01*
X171783085Y-97992000D01*
X171774856Y-97974596D01*
X171764586Y-97958845D01*
X171752377Y-97944816D01*
X171738368Y-97932639D01*
X171722666Y-97922418D01*
X171705375Y-97914261D01*
X171686632Y-97908301D01*
X171645641Y-97903441D01*
X171624698Y-97904710D01*
X171604940Y-97908433D01*
X171586485Y-97914485D01*
X171569466Y-97922737D01*
X171553989Y-97933077D01*
X171540199Y-97945367D01*
X171528203Y-97959509D01*
X171518152Y-97975352D01*
X171510160Y-97992802D01*
X171504373Y-98011702D01*
X171499909Y-98050988D01*
X171433283Y-98050988D01*
X171432270Y-98036066D01*
X171428577Y-98018612D01*
X171422574Y-98002408D01*
X171414429Y-97987706D01*
X171404275Y-97974635D01*
X171392284Y-97963385D01*
X171378649Y-97954135D01*
X171363497Y-97947007D01*
X171347091Y-97942180D01*
X171329494Y-97939757D01*
X171321190Y-97939491D01*
X171303484Y-97940757D01*
X171286954Y-97944455D01*
X171271704Y-97950453D01*
X171257914Y-97958597D01*
X171235170Y-97980862D01*
X171226527Y-97994737D01*
X171219956Y-98010194D01*
X171215583Y-98027163D01*
X171213594Y-98045415D01*
X171213484Y-98050988D01*
X171149027Y-98050988D01*
X171153911Y-98006969D01*
X171168444Y-97965907D01*
X171191710Y-97930230D01*
X171206270Y-97914913D01*
X171222574Y-97901513D01*
X171240361Y-97890246D01*
X171259591Y-97881167D01*
X171279837Y-97874498D01*
X171301217Y-97870244D01*
X171326755Y-97868520D01*
X171368054Y-97873496D01*
X171387749Y-97879654D01*
X171406017Y-97888063D01*
X171429179Y-97903925D01*
X171442283Y-97916188D01*
X171453610Y-97931006D01*
X171463375Y-97946588D01*
X171475103Y-97925173D01*
X171488647Y-97905825D01*
X171503632Y-97888893D01*
X171520210Y-97874067D01*
X171538110Y-97861518D01*
X171557417Y-97851141D01*
X171599963Y-97837116D01*
X171646569Y-97832430D01*
X171670519Y-97833701D01*
G37*
G36*
X171569589Y-98333905D02*
G01*
X171630439Y-98333905D01*
X171630439Y-98587062D01*
X171569589Y-98587062D01*
X171569589Y-98333905D01*
G37*
G36*
X171845732Y-98642226D02*
G01*
X171845732Y-99078416D01*
X171781212Y-99078416D01*
X171781212Y-98739207D01*
X171573944Y-98955991D01*
X171532583Y-98997528D01*
X171495932Y-99029628D01*
X171470915Y-99047852D01*
X171446984Y-99061781D01*
X171426214Y-99070821D01*
X171405358Y-99077049D01*
X171361853Y-99082098D01*
X171358007Y-99082126D01*
X171333502Y-99080854D01*
X171310058Y-99077113D01*
X171287650Y-99070971D01*
X171266527Y-99062556D01*
X171228306Y-99039166D01*
X171196395Y-99007698D01*
X171183129Y-98989182D01*
X171171864Y-98969017D01*
X171162697Y-98947279D01*
X171155766Y-98924128D01*
X171151189Y-98899716D01*
X171149067Y-98874134D01*
X171148924Y-98865422D01*
X171150201Y-98839449D01*
X171153976Y-98814619D01*
X171160112Y-98791219D01*
X171168548Y-98769166D01*
X171179113Y-98748724D01*
X171191784Y-98729823D01*
X171206387Y-98712675D01*
X171222916Y-98697261D01*
X171241233Y-98683729D01*
X171261311Y-98672129D01*
X171282802Y-98662671D01*
X171311204Y-98653749D01*
X171340046Y-98649215D01*
X171384218Y-98647791D01*
X171384218Y-98717835D01*
X171351363Y-98719144D01*
X171324506Y-98723150D01*
X171289334Y-98735295D01*
X171273028Y-98744883D01*
X171258493Y-98756379D01*
X171235038Y-98784652D01*
X171219749Y-98819210D01*
X171215450Y-98838600D01*
X171213566Y-98859110D01*
X171213484Y-98864495D01*
X171214752Y-98885944D01*
X171218472Y-98906179D01*
X171224513Y-98925062D01*
X171232746Y-98942452D01*
X171243004Y-98958160D01*
X171255182Y-98972104D01*
X171269064Y-98984082D01*
X171284588Y-98994043D01*
X171301509Y-99001806D01*
X171319801Y-99007312D01*
X171354297Y-99011115D01*
X171374599Y-99009805D01*
X171394184Y-99005799D01*
X171430701Y-98990209D01*
X171467891Y-98963370D01*
X171498301Y-98935910D01*
X171550879Y-98882076D01*
X171781938Y-98642226D01*
X171845732Y-98642226D01*
G37*
G36*
X171845732Y-99153863D02*
G01*
X171845732Y-99590053D01*
X171781212Y-99590053D01*
X171781212Y-99250844D01*
X171573944Y-99467628D01*
X171532583Y-99509165D01*
X171495932Y-99541266D01*
X171470915Y-99559489D01*
X171446984Y-99573419D01*
X171426214Y-99582458D01*
X171405358Y-99588686D01*
X171361853Y-99593735D01*
X171358007Y-99593763D01*
X171333502Y-99592491D01*
X171310058Y-99588750D01*
X171287650Y-99582608D01*
X171266527Y-99574193D01*
X171228306Y-99550804D01*
X171196395Y-99519335D01*
X171183129Y-99500819D01*
X171171864Y-99480654D01*
X171162697Y-99458917D01*
X171155766Y-99435765D01*
X171151189Y-99411353D01*
X171149067Y-99385771D01*
X171148924Y-99377059D01*
X171150201Y-99351086D01*
X171153976Y-99326256D01*
X171160112Y-99302856D01*
X171168548Y-99280803D01*
X171179113Y-99260361D01*
X171191784Y-99241461D01*
X171206387Y-99224312D01*
X171222916Y-99208898D01*
X171241233Y-99195366D01*
X171261311Y-99183767D01*
X171282802Y-99174308D01*
X171311204Y-99165387D01*
X171340046Y-99160852D01*
X171384218Y-99159428D01*
X171384218Y-99229472D01*
X171351363Y-99230781D01*
X171324506Y-99234788D01*
X171289334Y-99246932D01*
X171273028Y-99256520D01*
X171258493Y-99268016D01*
X171235038Y-99296289D01*
X171219749Y-99330848D01*
X171215450Y-99350237D01*
X171213566Y-99370747D01*
X171213484Y-99376132D01*
X171214752Y-99397581D01*
X171218472Y-99417816D01*
X171224513Y-99436700D01*
X171232746Y-99454089D01*
X171243004Y-99469797D01*
X171255182Y-99483741D01*
X171269064Y-99495719D01*
X171284588Y-99505680D01*
X171301509Y-99513443D01*
X171319801Y-99518949D01*
X171354297Y-99522752D01*
X171374599Y-99521442D01*
X171394184Y-99517436D01*
X171430701Y-99501846D01*
X171467891Y-99475008D01*
X171498301Y-99447547D01*
X171550879Y-99393713D01*
X171781938Y-99153863D01*
X171845732Y-99153863D01*
G37*
G36*
X170121961Y-95290962D02*
G01*
X170115031Y-95337747D01*
X170104529Y-95380900D01*
X170091342Y-95418330D01*
X170075031Y-95452403D01*
X170056565Y-95481769D01*
X170035312Y-95507977D01*
X170011996Y-95530398D01*
X169986101Y-95549746D01*
X169926953Y-95578963D01*
X169856479Y-95595681D01*
X169798558Y-95599351D01*
X169756786Y-95597378D01*
X169717308Y-95591504D01*
X169681362Y-95582164D01*
X169647770Y-95569294D01*
X169617344Y-95553389D01*
X169589347Y-95534243D01*
X169564138Y-95512178D01*
X169541484Y-95487057D01*
X169510641Y-95440411D01*
X169483682Y-95373751D01*
X169466405Y-95285753D01*
X169459221Y-95161062D01*
X169459150Y-95145049D01*
X169459150Y-94882754D01*
X170515280Y-94882754D01*
X170515280Y-94992003D01*
X169558472Y-94992003D01*
X169558472Y-95137915D01*
X169560519Y-95212154D01*
X169566906Y-95274997D01*
X169575480Y-95318599D01*
X169587316Y-95356822D01*
X169596688Y-95378869D01*
X169610374Y-95402812D01*
X169627058Y-95423991D01*
X169668507Y-95457478D01*
X169721123Y-95479370D01*
X169785610Y-95488526D01*
X169795704Y-95488676D01*
X169833836Y-95486694D01*
X169868612Y-95480756D01*
X169897844Y-95471729D01*
X169924151Y-95459326D01*
X169946472Y-95444387D01*
X169966108Y-95426407D01*
X169997030Y-95381826D01*
X170015876Y-95330852D01*
X170029551Y-95242820D01*
X170034363Y-95092690D01*
X170515280Y-95449841D01*
X170515280Y-95585703D01*
X170121961Y-95290962D01*
G37*
G36*
X170515280Y-95765178D02*
G01*
X170515280Y-96343804D01*
X170416019Y-96343804D01*
X170416019Y-95874427D01*
X170030951Y-95874427D01*
X170030951Y-96328170D01*
X169931629Y-96328170D01*
X169931629Y-95874427D01*
X169558472Y-95874427D01*
X169558472Y-96343804D01*
X169459150Y-96343804D01*
X169459150Y-95765178D01*
X170515280Y-95765178D01*
G37*
G36*
X170515280Y-96878630D02*
G01*
X170515280Y-96983660D01*
X169459150Y-97420530D01*
X169459150Y-97302410D01*
X170376998Y-96932541D01*
X169459150Y-96564099D01*
X169459150Y-96444553D01*
X170515280Y-96878630D01*
G37*
G36*
X170515280Y-97868876D02*
G01*
X170515280Y-98539938D01*
X170416019Y-98539938D01*
X170416019Y-98018077D01*
X170097146Y-98351591D01*
X170033512Y-98415494D01*
X169977126Y-98464879D01*
X169938638Y-98492916D01*
X169901822Y-98514345D01*
X169869869Y-98528252D01*
X169837782Y-98537833D01*
X169770850Y-98545602D01*
X169764934Y-98545645D01*
X169727235Y-98543688D01*
X169691166Y-98537932D01*
X169656693Y-98528483D01*
X169624195Y-98515537D01*
X169565394Y-98479553D01*
X169516301Y-98431140D01*
X169495890Y-98402654D01*
X169478560Y-98371631D01*
X169464457Y-98338189D01*
X169453794Y-98302571D01*
X169446752Y-98265014D01*
X169443487Y-98225657D01*
X169443268Y-98212255D01*
X169445233Y-98172296D01*
X169451041Y-98134095D01*
X169460481Y-98098095D01*
X169473459Y-98064168D01*
X169489712Y-98032718D01*
X169509207Y-98003641D01*
X169531673Y-97977259D01*
X169557103Y-97953545D01*
X169585282Y-97932726D01*
X169616171Y-97914881D01*
X169649233Y-97900329D01*
X169692929Y-97886604D01*
X169737301Y-97879628D01*
X169805258Y-97877437D01*
X169805258Y-97985197D01*
X169754712Y-97987211D01*
X169713394Y-97993375D01*
X169659284Y-98012059D01*
X169634197Y-98026809D01*
X169611835Y-98044496D01*
X169575752Y-98087992D01*
X169552230Y-98141159D01*
X169545615Y-98170989D01*
X169542717Y-98202543D01*
X169542591Y-98210828D01*
X169544543Y-98243826D01*
X169550265Y-98274957D01*
X169559559Y-98304009D01*
X169572224Y-98330761D01*
X169588007Y-98354927D01*
X169606742Y-98376381D01*
X169628098Y-98394807D01*
X169651982Y-98410132D01*
X169678014Y-98422076D01*
X169706156Y-98430546D01*
X169759226Y-98436397D01*
X169790460Y-98434382D01*
X169820591Y-98428218D01*
X169876771Y-98404233D01*
X169933986Y-98362944D01*
X169980771Y-98320696D01*
X170061660Y-98237876D01*
X170417136Y-97868876D01*
X170515280Y-97868876D01*
G37*
G36*
X170515280Y-98752727D02*
G01*
X170515280Y-98861975D01*
X170332144Y-98861975D01*
X170332144Y-98752727D01*
X170515280Y-98752727D01*
G37*
G36*
X170191302Y-99046785D02*
G01*
X170244810Y-99052737D01*
X170288841Y-99061630D01*
X170328413Y-99073823D01*
X170376315Y-99096292D01*
X170406363Y-99116300D01*
X170433341Y-99139050D01*
X170456956Y-99164148D01*
X170477517Y-99191776D01*
X170509504Y-99254705D01*
X170529072Y-99328698D01*
X170535132Y-99406666D01*
X170533150Y-99451768D01*
X170527216Y-99494055D01*
X170517945Y-99531542D01*
X170505146Y-99566392D01*
X170489520Y-99597387D01*
X170470658Y-99625854D01*
X170449006Y-99651302D01*
X170424264Y-99674230D01*
X170403426Y-99689930D01*
X170347329Y-99719220D01*
X170270665Y-99740881D01*
X170170952Y-99752075D01*
X170132135Y-99752898D01*
X169833547Y-99752898D01*
X169766535Y-99750793D01*
X169710549Y-99743994D01*
X169673460Y-99735189D01*
X169639909Y-99722900D01*
X169584962Y-99691357D01*
X169557057Y-99669788D01*
X169532043Y-99645498D01*
X169490706Y-99588940D01*
X169461591Y-99522221D01*
X169445786Y-99445901D01*
X169443343Y-99399532D01*
X169542591Y-99399532D01*
X169544554Y-99433827D01*
X169550354Y-99466344D01*
X169559717Y-99496496D01*
X169572565Y-99524487D01*
X169588525Y-99549773D01*
X169607627Y-99572546D01*
X169635585Y-99597060D01*
X169660214Y-99612601D01*
X169687795Y-99624782D01*
X169753260Y-99639686D01*
X169857680Y-99645077D01*
X170115074Y-99645077D01*
X170178465Y-99643094D01*
X170234228Y-99637157D01*
X170275880Y-99628749D01*
X170310241Y-99617347D01*
X170323211Y-99611204D01*
X170347325Y-99596674D01*
X170368740Y-99579158D01*
X170403056Y-99535819D01*
X170425788Y-99481325D01*
X170435623Y-99415481D01*
X170435871Y-99402385D01*
X170433893Y-99366037D01*
X170427984Y-99332043D01*
X170418718Y-99301916D01*
X170405945Y-99274152D01*
X170390264Y-99249618D01*
X170371356Y-99227499D01*
X170337231Y-99199212D01*
X170289176Y-99174628D01*
X170221064Y-99158821D01*
X170115074Y-99152622D01*
X169857680Y-99152622D01*
X169792227Y-99154647D01*
X169737481Y-99160879D01*
X169700310Y-99169197D01*
X169669148Y-99180572D01*
X169652521Y-99189286D01*
X169607693Y-99224866D01*
X169573295Y-99272121D01*
X169550970Y-99329799D01*
X169542609Y-99396126D01*
X169542591Y-99399532D01*
X169443343Y-99399532D01*
X169443268Y-99398105D01*
X169445241Y-99354316D01*
X169451112Y-99312709D01*
X169460483Y-99274531D01*
X169473401Y-99238754D01*
X169489284Y-99206451D01*
X169508390Y-99176726D01*
X169530100Y-99150330D01*
X169554768Y-99126682D01*
X169562070Y-99120672D01*
X169590887Y-99100071D01*
X169622045Y-99082921D01*
X169690946Y-99059020D01*
X169777553Y-99046566D01*
X169833547Y-99044800D01*
X170132135Y-99044800D01*
X170191302Y-99046785D01*
G37*
D12*
G36*
X161099500Y-69418152D02*
G01*
X161099500Y-70141433D01*
X160975424Y-70141433D01*
X160975424Y-69554712D01*
X160494089Y-69554712D01*
X160494089Y-70121892D01*
X160369936Y-70121892D01*
X160369936Y-69554712D01*
X159903491Y-69554712D01*
X159903491Y-70141433D01*
X159779338Y-70141433D01*
X159779338Y-69418152D01*
X161099500Y-69418152D01*
G37*
G36*
X160728282Y-70250077D02*
G01*
X160779539Y-70255233D01*
X160827936Y-70265038D01*
X160872777Y-70279117D01*
X160914498Y-70297386D01*
X160952551Y-70319421D01*
X160987231Y-70345223D01*
X161018191Y-70374426D01*
X161045511Y-70407018D01*
X161088584Y-70481656D01*
X161115356Y-70568338D01*
X161124315Y-70663403D01*
X161121871Y-70710793D01*
X161114692Y-70756216D01*
X161102871Y-70799842D01*
X161086689Y-70840981D01*
X161066212Y-70879669D01*
X161041786Y-70915339D01*
X161013555Y-70947841D01*
X160981834Y-70976807D01*
X160946949Y-71001934D01*
X160909071Y-71023045D01*
X160868747Y-71039786D01*
X160825944Y-71052084D01*
X160781370Y-71059643D01*
X160734826Y-71062377D01*
X160732547Y-71062383D01*
X160687727Y-71059934D01*
X160644527Y-71052717D01*
X160603103Y-71040843D01*
X160564123Y-71024541D01*
X160528294Y-71004207D01*
X160495653Y-70979909D01*
X160449732Y-70931561D01*
X160420903Y-70886043D01*
X160394718Y-70831525D01*
X160344423Y-70685426D01*
X160305896Y-70567882D01*
X160272900Y-70504813D01*
X160263232Y-70492567D01*
X160219451Y-70458548D01*
X160158414Y-70436052D01*
X160112170Y-70431227D01*
X160076084Y-70433661D01*
X160042262Y-70440770D01*
X160010852Y-70452328D01*
X159982290Y-70468022D01*
X159956777Y-70487632D01*
X159934698Y-70510820D01*
X159916326Y-70537309D01*
X159901963Y-70566790D01*
X159891912Y-70598893D01*
X159886417Y-70633389D01*
X159885422Y-70656346D01*
X159887874Y-70693325D01*
X159895111Y-70727721D01*
X159906636Y-70758656D01*
X159922396Y-70786767D01*
X159965508Y-70833452D01*
X160023963Y-70867221D01*
X160098021Y-70886395D01*
X160120002Y-70888677D01*
X160120002Y-71030433D01*
X160072228Y-71026804D01*
X160027130Y-71018469D01*
X159985270Y-71005764D01*
X159946392Y-70988826D01*
X159910918Y-70968010D01*
X159878730Y-70943396D01*
X159825043Y-70883729D01*
X159786409Y-70811021D01*
X159764251Y-70726270D01*
X159759486Y-70659836D01*
X159761930Y-70613328D01*
X159769112Y-70568996D01*
X159780859Y-70526927D01*
X159796925Y-70487534D01*
X159817113Y-70451010D01*
X159841176Y-70417654D01*
X159868831Y-70387758D01*
X159899891Y-70361502D01*
X159933960Y-70339222D01*
X159970953Y-70321024D01*
X160010383Y-70307220D01*
X160052260Y-70297913D01*
X160115737Y-70292883D01*
X160198993Y-70302527D01*
X160238830Y-70314460D01*
X160276143Y-70330842D01*
X160309387Y-70350857D01*
X160338933Y-70374676D01*
X160350394Y-70386095D01*
X160381587Y-70422798D01*
X160407040Y-70465663D01*
X160448680Y-70572601D01*
X160468344Y-70632462D01*
X160496373Y-70719243D01*
X160523167Y-70783671D01*
X160553258Y-70836255D01*
X160597141Y-70880679D01*
X160654093Y-70910384D01*
X160722936Y-70923642D01*
X160739681Y-70924116D01*
X160778254Y-70921678D01*
X160814635Y-70914538D01*
X160848665Y-70902907D01*
X160879933Y-70887066D01*
X160908203Y-70867244D01*
X160933146Y-70843729D01*
X160954456Y-70816821D01*
X160971891Y-70786756D01*
X160985131Y-70753929D01*
X160993975Y-70718491D01*
X160998456Y-70666970D01*
X160988899Y-70594136D01*
X160960673Y-70526126D01*
X160940388Y-70496343D01*
X160916365Y-70470081D01*
X160901677Y-70457360D01*
X160869447Y-70434719D01*
X160834732Y-70417918D01*
X160758178Y-70399186D01*
X160728282Y-70395400D01*
X160728282Y-70250077D01*
G37*
G36*
X161099500Y-71367453D02*
G01*
X160568457Y-71367453D01*
X160568457Y-71617387D01*
X160565892Y-71709909D01*
X160557865Y-71787691D01*
X160547155Y-71841143D01*
X160532360Y-71888153D01*
X160514940Y-71926833D01*
X160493653Y-71962252D01*
X160486257Y-71972708D01*
X160435164Y-72026179D01*
X160368640Y-72067292D01*
X160286713Y-72094460D01*
X160190094Y-72105241D01*
X160181032Y-72105314D01*
X160127677Y-72102858D01*
X160077349Y-72095590D01*
X160031483Y-72084014D01*
X159989086Y-72068148D01*
X159951692Y-72048876D01*
X159918072Y-72025857D01*
X159889475Y-72000235D01*
X159864865Y-71971363D01*
X159849130Y-71947583D01*
X159828240Y-71908394D01*
X159811381Y-71865559D01*
X159789065Y-71766133D01*
X159779566Y-71626589D01*
X159779338Y-71596062D01*
X159779338Y-71551627D01*
X159903491Y-71551627D01*
X159906003Y-71657392D01*
X159913662Y-71741941D01*
X159923478Y-71794892D01*
X159936714Y-71836537D01*
X159942497Y-71849253D01*
X159958627Y-71875908D01*
X159978549Y-71899215D01*
X160029149Y-71935534D01*
X160096190Y-71958727D01*
X160181032Y-71966970D01*
X160223205Y-71964528D01*
X160262465Y-71957362D01*
X160297734Y-71945977D01*
X160329408Y-71930503D01*
X160356150Y-71911944D01*
X160378842Y-71890001D01*
X160400102Y-71859722D01*
X160426545Y-71794173D01*
X160441271Y-71700371D01*
X160444382Y-71608547D01*
X160444382Y-71367453D01*
X159903491Y-71367453D01*
X159903491Y-71551627D01*
X159779338Y-71551627D01*
X159779338Y-71230893D01*
X161099500Y-71230893D01*
X161099500Y-71367453D01*
G37*
G36*
X161099500Y-72280570D02*
G01*
X161099500Y-72417131D01*
X160484086Y-72417131D01*
X160484086Y-73093109D01*
X161099500Y-73093109D01*
X161099500Y-73229669D01*
X159779338Y-73229669D01*
X159779338Y-73093109D01*
X160360010Y-73093109D01*
X160360010Y-72417131D01*
X159779338Y-72417131D01*
X159779338Y-72280570D01*
X161099500Y-72280570D01*
G37*
G36*
X160659130Y-73435991D02*
G01*
X160711704Y-73443214D01*
X160762163Y-73455073D01*
X160810123Y-73471359D01*
X160855576Y-73491970D01*
X160898140Y-73516655D01*
X160974109Y-73577712D01*
X161007057Y-73613702D01*
X161036330Y-73653028D01*
X161061759Y-73695524D01*
X161083130Y-73740966D01*
X161100239Y-73789106D01*
X161112921Y-73839791D01*
X161120974Y-73892693D01*
X161124247Y-73947735D01*
X161124315Y-73956984D01*
X161121866Y-74009003D01*
X161114652Y-74059126D01*
X161102755Y-74107548D01*
X161086416Y-74153649D01*
X161040769Y-74238774D01*
X160979032Y-74312514D01*
X160942591Y-74344483D01*
X160902804Y-74372782D01*
X160859852Y-74397217D01*
X160813981Y-74417554D01*
X160765556Y-74433541D01*
X160714659Y-74445035D01*
X160613357Y-74453750D01*
X160558390Y-74451301D01*
X160505536Y-74444079D01*
X160454793Y-74432221D01*
X160406574Y-74415938D01*
X160360946Y-74395357D01*
X160318257Y-74370716D01*
X160278659Y-74342170D01*
X160242408Y-74309945D01*
X160209731Y-74274268D01*
X160180797Y-74235310D01*
X160155871Y-74193391D01*
X160135063Y-74148597D01*
X160118633Y-74101335D01*
X160106677Y-74051605D01*
X160099429Y-74000009D01*
X160096971Y-73946360D01*
X160222907Y-73946360D01*
X160225352Y-73990950D01*
X160232543Y-74033558D01*
X160244349Y-74074222D01*
X160260519Y-74112462D01*
X160305504Y-74181359D01*
X160366115Y-74238264D01*
X160401835Y-74261570D01*
X160440723Y-74280998D01*
X160482691Y-74296368D01*
X160527370Y-74307377D01*
X160615140Y-74315484D01*
X160663699Y-74313040D01*
X160709909Y-74305856D01*
X160753596Y-74294139D01*
X160794467Y-74278120D01*
X160832247Y-74258053D01*
X160866761Y-74234143D01*
X160897661Y-74206734D01*
X160924870Y-74175956D01*
X160948032Y-74142248D01*
X160967103Y-74105649D01*
X160981779Y-74066640D01*
X160991981Y-74025204D01*
X160998456Y-73953416D01*
X160996008Y-73906511D01*
X160988803Y-73861797D01*
X160977040Y-73819473D01*
X160960927Y-73779758D01*
X160940647Y-73742825D01*
X160916419Y-73708924D01*
X160856836Y-73650970D01*
X160821862Y-73627353D01*
X160783743Y-73607631D01*
X160742615Y-73591991D01*
X160698748Y-73580682D01*
X160608006Y-73571885D01*
X160561409Y-73574327D01*
X160516782Y-73581495D01*
X160473915Y-73593304D01*
X160433557Y-73609456D01*
X160395660Y-73629891D01*
X160360825Y-73654242D01*
X160329217Y-73682349D01*
X160301206Y-73713890D01*
X160277127Y-73748488D01*
X160257133Y-73785993D01*
X160241603Y-73825781D01*
X160230584Y-73867933D01*
X160222907Y-73946360D01*
X160096971Y-73946360D01*
X160106613Y-73842899D01*
X160134920Y-73746033D01*
X160180802Y-73657981D01*
X160242786Y-73581254D01*
X160279208Y-73547949D01*
X160318879Y-73518411D01*
X160361385Y-73492972D01*
X160406641Y-73471740D01*
X160453926Y-73455095D01*
X160503446Y-73443030D01*
X160604439Y-73433541D01*
X160659130Y-73435991D01*
G37*
G36*
X161099500Y-74634745D02*
G01*
X161099500Y-74771306D01*
X160528675Y-74771306D01*
X160477076Y-74773763D01*
X160429788Y-74781038D01*
X160389003Y-74792276D01*
X160352371Y-74807604D01*
X160321448Y-74825902D01*
X160294526Y-74847692D01*
X160272357Y-74872041D01*
X160254151Y-74899470D01*
X160230101Y-74962895D01*
X160222907Y-75030158D01*
X160225361Y-75068219D01*
X160232615Y-75104852D01*
X160244479Y-75139486D01*
X160260800Y-75171675D01*
X160280887Y-75200266D01*
X160304917Y-75225561D01*
X160311156Y-75231005D01*
X160337220Y-75250005D01*
X160366620Y-75265129D01*
X160438023Y-75284650D01*
X160528675Y-75290794D01*
X161099500Y-75290794D01*
X161099500Y-75427354D01*
X160532242Y-75427354D01*
X160469688Y-75429889D01*
X160417673Y-75437706D01*
X160381097Y-75448371D01*
X160348956Y-75463036D01*
X160332248Y-75473185D01*
X160282633Y-75517769D01*
X160246342Y-75576575D01*
X160226162Y-75647062D01*
X160222907Y-75691557D01*
X160225356Y-75730734D01*
X160232571Y-75767808D01*
X160244213Y-75802009D01*
X160260140Y-75833313D01*
X160279618Y-75860656D01*
X160302815Y-75884463D01*
X160314568Y-75894033D01*
X160371682Y-75923827D01*
X160452008Y-75942260D01*
X160532242Y-75946920D01*
X161099500Y-75946920D01*
X161099500Y-76083403D01*
X160517974Y-76083403D01*
X160449996Y-76080863D01*
X160390358Y-76073009D01*
X160345168Y-76061887D01*
X160304153Y-76046454D01*
X160234849Y-76004615D01*
X160178245Y-75948422D01*
X160134875Y-75877710D01*
X160107001Y-75794245D01*
X160099611Y-75748423D01*
X160096975Y-75700713D01*
X160096971Y-75698692D01*
X160099473Y-75646041D01*
X160107061Y-75597128D01*
X160118670Y-75555173D01*
X160134804Y-75516066D01*
X160154746Y-75480895D01*
X160179074Y-75448085D01*
X160242028Y-75388381D01*
X160281533Y-75360974D01*
X160237222Y-75332330D01*
X160199365Y-75301444D01*
X160170735Y-75271527D01*
X160147006Y-75239251D01*
X160114769Y-75169990D01*
X160098852Y-75087734D01*
X160096971Y-75042565D01*
X160099506Y-74990907D01*
X160107326Y-74944626D01*
X160118728Y-74907947D01*
X160134619Y-74874147D01*
X160179268Y-74814429D01*
X160227405Y-74771306D01*
X160121786Y-74771306D01*
X160121786Y-74634745D01*
X161099500Y-74634745D01*
G37*
G36*
X160709114Y-76274576D02*
G01*
X160805425Y-76302992D01*
X160893870Y-76349272D01*
X160971658Y-76412007D01*
X161005640Y-76448923D01*
X161035875Y-76489109D01*
X161062006Y-76532123D01*
X161083916Y-76577875D01*
X161101169Y-76625513D01*
X161113815Y-76675334D01*
X161121519Y-76726191D01*
X161124308Y-76778692D01*
X161124315Y-76781327D01*
X161114630Y-76878165D01*
X161085788Y-76971617D01*
X161038460Y-77058611D01*
X161008243Y-77098640D01*
X160974028Y-77135713D01*
X160936123Y-77169437D01*
X160894651Y-77199600D01*
X160850356Y-77225608D01*
X160802973Y-77247537D01*
X160775818Y-77257698D01*
X160775818Y-77115710D01*
X160847168Y-77075862D01*
X160908453Y-77019565D01*
X160956221Y-76949230D01*
X160973916Y-76910003D01*
X160987022Y-76868773D01*
X160995208Y-76826498D01*
X160998417Y-76783091D01*
X160998456Y-76777759D01*
X160988899Y-76691826D01*
X160960636Y-76610459D01*
X160914817Y-76537290D01*
X160885992Y-76505096D01*
X160853805Y-76476576D01*
X160818863Y-76452252D01*
X160781268Y-76432242D01*
X160742309Y-76417197D01*
X160701439Y-76406916D01*
X160657791Y-76401656D01*
X160657791Y-77281583D01*
X160576794Y-77278979D01*
X160507131Y-77270678D01*
X160457163Y-77259403D01*
X160410591Y-77243608D01*
X160351945Y-77215513D01*
X160272722Y-77160675D01*
X160205416Y-77090460D01*
X160152420Y-77006850D01*
X160132034Y-76960827D01*
X160116132Y-76912651D01*
X160104906Y-76862733D01*
X160098503Y-76811326D01*
X160096971Y-76770625D01*
X160222907Y-76770625D01*
X160225364Y-76816844D01*
X160232638Y-76860921D01*
X160244440Y-76902273D01*
X160260676Y-76941185D01*
X160281116Y-76977349D01*
X160305675Y-77010758D01*
X160366833Y-77068827D01*
X160443760Y-77114169D01*
X160533716Y-77144480D01*
X160533716Y-76405611D01*
X160489048Y-76416528D01*
X160447018Y-76431790D01*
X160407580Y-76451302D01*
X160371293Y-76474708D01*
X160338306Y-76501833D01*
X160308965Y-76532356D01*
X160283579Y-76565912D01*
X160262295Y-76602329D01*
X160245470Y-76641016D01*
X160233143Y-76682012D01*
X160225603Y-76724569D01*
X160222911Y-76768895D01*
X160222907Y-76770625D01*
X160096971Y-76770625D01*
X160106604Y-76670376D01*
X160135008Y-76575642D01*
X160181277Y-76488733D01*
X160244039Y-76412398D01*
X160281003Y-76379099D01*
X160321236Y-76349543D01*
X160364339Y-76324058D01*
X160410177Y-76302797D01*
X160457934Y-76286174D01*
X160507865Y-76274167D01*
X160607308Y-76264940D01*
X160709114Y-76274576D01*
G37*
G36*
X161099500Y-77971907D02*
G01*
X161099500Y-78652538D01*
X160975424Y-78652538D01*
X160975424Y-78108468D01*
X159779338Y-78108468D01*
X159779338Y-77971907D01*
X161099500Y-77971907D01*
G37*
G36*
X160489049Y-79164970D02*
G01*
X160613202Y-79164970D01*
X160613202Y-79898643D01*
X160655589Y-79886399D01*
X160696570Y-79869312D01*
X160775970Y-79819880D01*
X160842353Y-79761307D01*
X160906434Y-79683591D01*
X160954545Y-79594373D01*
X160985553Y-79495117D01*
X160998215Y-79387540D01*
X160998456Y-79370082D01*
X160988808Y-79261200D01*
X160960346Y-79157889D01*
X160914010Y-79062583D01*
X160851232Y-78978061D01*
X160814312Y-78940752D01*
X160774071Y-78907157D01*
X160731005Y-78877683D01*
X160685129Y-78852374D01*
X160637317Y-78831715D01*
X160587222Y-78815590D01*
X160535994Y-78804390D01*
X160482994Y-78798018D01*
X160441900Y-78796543D01*
X160335879Y-78806206D01*
X160236007Y-78834638D01*
X160144238Y-78880927D01*
X160062852Y-78943876D01*
X159994287Y-79021840D01*
X159965572Y-79065776D01*
X159940881Y-79112701D01*
X159920536Y-79162110D01*
X159904613Y-79214028D01*
X159893422Y-79267675D01*
X159886993Y-79323345D01*
X159885422Y-79368376D01*
X159887884Y-79425027D01*
X159895190Y-79479683D01*
X159907101Y-79531673D01*
X159923544Y-79581238D01*
X159944144Y-79627636D01*
X159968949Y-79671215D01*
X159997467Y-79711270D01*
X160029871Y-79748143D01*
X160065624Y-79781260D01*
X160104966Y-79810848D01*
X160137373Y-79830944D01*
X160137373Y-79983634D01*
X160048876Y-79938723D01*
X159968012Y-79875801D01*
X159896787Y-79795474D01*
X159837761Y-79699066D01*
X159793691Y-79588911D01*
X159778063Y-79529678D01*
X159767058Y-79468308D01*
X159759486Y-79357674D01*
X159769160Y-79236798D01*
X159797736Y-79121468D01*
X159844385Y-79013809D01*
X159907914Y-78916246D01*
X159945519Y-78872030D01*
X159986644Y-78831320D01*
X160030991Y-78794398D01*
X160078415Y-78761413D01*
X160128284Y-78732803D01*
X160180761Y-78708498D01*
X160234906Y-78688945D01*
X160291186Y-78674005D01*
X160348469Y-78664007D01*
X160407434Y-78658877D01*
X160438333Y-78658199D01*
X160554807Y-78667885D01*
X160665733Y-78696487D01*
X160769451Y-78743294D01*
X160863974Y-78807401D01*
X160947064Y-78887542D01*
X160983624Y-78933133D01*
X161016433Y-78981993D01*
X161045277Y-79033885D01*
X161069967Y-79088618D01*
X161090196Y-79145636D01*
X161105920Y-79205040D01*
X161116855Y-79265997D01*
X161122984Y-79328885D01*
X161124315Y-79375432D01*
X161121841Y-79439369D01*
X161114454Y-79501228D01*
X161102481Y-79559740D01*
X161085873Y-79615969D01*
X161065056Y-79668920D01*
X161039842Y-79719389D01*
X161010630Y-79766719D01*
X160977205Y-79811362D01*
X160901056Y-79889337D01*
X160851349Y-79929201D01*
X160800123Y-79963858D01*
X160748616Y-79992721D01*
X160695714Y-80016650D01*
X160642025Y-80035490D01*
X160587024Y-80049539D01*
X160489049Y-80062577D01*
X160489049Y-79164970D01*
G37*
G36*
X160750770Y-81845618D02*
G01*
X160834259Y-81775292D01*
X160890355Y-81713633D01*
X160941723Y-81632145D01*
X160978187Y-81537499D01*
X160989817Y-81486688D01*
X160996611Y-81434640D01*
X160998456Y-81389796D01*
X160988820Y-81287136D01*
X160960235Y-81188633D01*
X160913368Y-81096693D01*
X160849439Y-81014290D01*
X160811653Y-80977654D01*
X160770498Y-80944662D01*
X160726357Y-80915651D01*
X160679399Y-80890800D01*
X160630528Y-80870603D01*
X160579428Y-80854978D01*
X160527419Y-80844346D01*
X160473756Y-80838593D01*
X160439651Y-80837583D01*
X160384452Y-80840031D01*
X160331084Y-80847245D01*
X160229597Y-80875574D01*
X160137194Y-80921466D01*
X160056090Y-80983541D01*
X160020483Y-81020115D01*
X159988546Y-81060038D01*
X159960555Y-81102994D01*
X159936649Y-81148854D01*
X159917164Y-81197059D01*
X159902134Y-81247703D01*
X159891850Y-81300039D01*
X159886345Y-81354353D01*
X159885422Y-81388012D01*
X159887897Y-81444157D01*
X159895296Y-81498706D01*
X159907312Y-81550400D01*
X159923999Y-81599957D01*
X159944769Y-81646008D01*
X159969926Y-81689461D01*
X159973128Y-81694323D01*
X160001151Y-81733761D01*
X160033168Y-81768212D01*
X160111028Y-81828065D01*
X160126749Y-81838328D01*
X160126749Y-81991096D01*
X160032422Y-81937655D01*
X159949461Y-81868258D01*
X159879334Y-81784006D01*
X159823741Y-81686301D01*
X159784454Y-81576961D01*
X159771441Y-81518580D01*
X159763108Y-81458208D01*
X159759486Y-81382739D01*
X159761938Y-81320964D01*
X159769183Y-81261078D01*
X159781151Y-81202838D01*
X159797631Y-81146866D01*
X159843807Y-81041739D01*
X159906541Y-80947475D01*
X159984448Y-80865915D01*
X160028584Y-80830473D01*
X160075918Y-80798852D01*
X160126135Y-80771301D01*
X160179169Y-80747920D01*
X160234548Y-80728978D01*
X160292354Y-80714527D01*
X160351998Y-80704798D01*
X160413682Y-80699858D01*
X160445002Y-80699239D01*
X160505405Y-80701691D01*
X160564041Y-80708928D01*
X160676416Y-80737426D01*
X160780482Y-80783834D01*
X160874367Y-80847087D01*
X160956049Y-80925837D01*
X160991684Y-80970518D01*
X161023513Y-81018407D01*
X161051302Y-81069223D01*
X161074913Y-81122838D01*
X161094062Y-81178745D01*
X161108699Y-81237028D01*
X161118574Y-81296989D01*
X161123641Y-81358905D01*
X161124315Y-81391580D01*
X161121834Y-81455527D01*
X161114397Y-81516936D01*
X161102488Y-81573918D01*
X161085950Y-81628484D01*
X161065263Y-81679585D01*
X161040143Y-81728331D01*
X160977043Y-81818197D01*
X160895641Y-81899251D01*
X160793991Y-81971992D01*
X160750770Y-81996757D01*
X160750770Y-81845618D01*
G37*
G36*
X160659130Y-82136155D02*
G01*
X160711704Y-82143379D01*
X160762163Y-82155238D01*
X160810123Y-82171524D01*
X160855576Y-82192134D01*
X160898140Y-82216819D01*
X160974109Y-82277876D01*
X161007057Y-82313867D01*
X161036330Y-82353192D01*
X161061759Y-82395689D01*
X161083130Y-82441131D01*
X161100239Y-82489271D01*
X161112921Y-82539956D01*
X161120974Y-82592858D01*
X161124247Y-82647899D01*
X161124315Y-82657148D01*
X161121866Y-82709167D01*
X161114652Y-82759291D01*
X161102755Y-82807713D01*
X161086416Y-82853814D01*
X161040769Y-82938939D01*
X160979032Y-83012679D01*
X160942591Y-83044648D01*
X160902804Y-83072946D01*
X160859852Y-83097382D01*
X160813981Y-83117719D01*
X160765556Y-83133705D01*
X160714659Y-83145200D01*
X160613357Y-83153915D01*
X160558390Y-83151465D01*
X160505536Y-83144244D01*
X160454793Y-83132385D01*
X160406574Y-83116103D01*
X160360946Y-83095522D01*
X160318257Y-83070881D01*
X160278659Y-83042335D01*
X160242408Y-83010110D01*
X160209731Y-82974433D01*
X160180797Y-82935474D01*
X160155871Y-82893556D01*
X160135063Y-82848762D01*
X160118633Y-82801499D01*
X160106677Y-82751770D01*
X160099429Y-82700174D01*
X160096971Y-82646524D01*
X160222907Y-82646524D01*
X160225352Y-82691115D01*
X160232543Y-82733723D01*
X160244349Y-82774387D01*
X160260519Y-82812627D01*
X160305504Y-82881523D01*
X160366115Y-82938428D01*
X160401835Y-82961735D01*
X160440723Y-82981163D01*
X160482691Y-82996533D01*
X160527370Y-83007542D01*
X160615140Y-83015649D01*
X160663699Y-83013204D01*
X160709909Y-83006021D01*
X160753596Y-82994304D01*
X160794467Y-82978285D01*
X160832247Y-82958218D01*
X160866761Y-82934307D01*
X160897661Y-82906898D01*
X160924870Y-82876121D01*
X160948032Y-82842413D01*
X160967103Y-82805813D01*
X160981779Y-82766804D01*
X160991981Y-82725369D01*
X160998456Y-82653581D01*
X160996008Y-82606676D01*
X160988803Y-82561962D01*
X160977040Y-82519638D01*
X160960927Y-82479923D01*
X160940647Y-82442990D01*
X160916419Y-82409089D01*
X160856836Y-82351135D01*
X160821862Y-82327518D01*
X160783743Y-82307795D01*
X160742615Y-82292156D01*
X160698748Y-82280847D01*
X160608006Y-82272049D01*
X160561409Y-82274491D01*
X160516782Y-82281659D01*
X160473915Y-82293468D01*
X160433557Y-82309620D01*
X160395660Y-82330056D01*
X160360825Y-82354406D01*
X160329217Y-82382514D01*
X160301206Y-82414055D01*
X160277127Y-82448652D01*
X160257133Y-82486158D01*
X160241603Y-82525945D01*
X160230584Y-82568098D01*
X160222907Y-82646524D01*
X160096971Y-82646524D01*
X160106613Y-82543063D01*
X160134920Y-82446197D01*
X160180802Y-82358146D01*
X160242786Y-82281419D01*
X160279208Y-82248113D01*
X160318879Y-82218576D01*
X160361385Y-82193137D01*
X160406641Y-82171905D01*
X160453926Y-82155260D01*
X160503446Y-82143195D01*
X160604439Y-82133705D01*
X160659130Y-82136155D01*
G37*
G36*
X161099500Y-83334910D02*
G01*
X161099500Y-83471470D01*
X160560780Y-83471470D01*
X160490314Y-83474081D01*
X160433922Y-83482426D01*
X160397588Y-83493157D01*
X160364992Y-83508038D01*
X160341166Y-83522574D01*
X160289548Y-83569908D01*
X160250917Y-83631888D01*
X160228067Y-83706167D01*
X160222907Y-83765917D01*
X160232534Y-83846658D01*
X160244345Y-83884402D01*
X160260513Y-83919563D01*
X160280557Y-83951338D01*
X160304415Y-83979702D01*
X160327053Y-84000419D01*
X160358754Y-84021360D01*
X160393606Y-84037730D01*
X160472646Y-84057265D01*
X160585672Y-84063853D01*
X161099500Y-84063853D01*
X161099500Y-84200413D01*
X160585672Y-84200413D01*
X160500530Y-84197826D01*
X160428690Y-84189639D01*
X160379246Y-84178740D01*
X160334913Y-84163598D01*
X160260314Y-84122513D01*
X160249196Y-84114491D01*
X160187482Y-84053955D01*
X160140830Y-83980754D01*
X160110282Y-83895926D01*
X160097310Y-83800701D01*
X160096971Y-83781891D01*
X160099450Y-83732795D01*
X160106883Y-83686222D01*
X160118684Y-83643867D01*
X160135040Y-83603891D01*
X160180428Y-83532352D01*
X160241829Y-83471470D01*
X160121786Y-83471470D01*
X160121786Y-83334910D01*
X161099500Y-83334910D01*
G37*
G36*
X161099500Y-84538441D02*
G01*
X161099500Y-84675001D01*
X160245939Y-84675001D01*
X160245939Y-84893684D01*
X160121786Y-84893684D01*
X160121786Y-84675001D01*
X159779338Y-84675001D01*
X159779338Y-84538441D01*
X160121786Y-84538441D01*
X160121786Y-84328676D01*
X160245939Y-84328676D01*
X160245939Y-84538441D01*
X161099500Y-84538441D01*
G37*
G36*
X161099500Y-85028539D02*
G01*
X161099500Y-85165099D01*
X160528830Y-85165099D01*
X160482109Y-85167095D01*
X160438978Y-85174024D01*
X160401656Y-85185035D01*
X160367734Y-85200331D01*
X160338453Y-85218998D01*
X160312481Y-85241515D01*
X160271229Y-85297124D01*
X160243508Y-85368628D01*
X160231825Y-85440624D01*
X160096815Y-85440624D01*
X160102137Y-85385063D01*
X160112208Y-85335754D01*
X160125289Y-85296792D01*
X160142321Y-85262316D01*
X160161974Y-85233831D01*
X160185245Y-85208905D01*
X160242829Y-85169014D01*
X160250669Y-85165099D01*
X160121786Y-85165099D01*
X160121786Y-85028539D01*
X161099500Y-85028539D01*
G37*
G36*
X160659130Y-85472542D02*
G01*
X160711704Y-85479765D01*
X160762163Y-85491625D01*
X160810123Y-85507911D01*
X160855576Y-85528521D01*
X160898140Y-85553206D01*
X160974109Y-85614263D01*
X161007057Y-85650253D01*
X161036330Y-85689579D01*
X161061759Y-85732076D01*
X161083130Y-85777517D01*
X161100239Y-85825658D01*
X161112921Y-85876342D01*
X161120974Y-85929244D01*
X161124247Y-85984286D01*
X161124315Y-85993535D01*
X161121866Y-86045554D01*
X161114652Y-86095677D01*
X161102755Y-86144100D01*
X161086416Y-86190200D01*
X161040769Y-86275325D01*
X160979032Y-86349066D01*
X160942591Y-86381035D01*
X160902804Y-86409333D01*
X160859852Y-86433768D01*
X160813981Y-86454105D01*
X160765556Y-86470092D01*
X160714659Y-86481586D01*
X160613357Y-86490302D01*
X160558390Y-86487852D01*
X160505536Y-86480630D01*
X160454793Y-86468772D01*
X160406574Y-86452489D01*
X160360946Y-86431909D01*
X160318257Y-86407267D01*
X160278659Y-86378721D01*
X160242408Y-86346496D01*
X160209731Y-86310820D01*
X160180797Y-86271861D01*
X160155871Y-86229942D01*
X160135063Y-86185149D01*
X160118633Y-86137886D01*
X160106677Y-86088157D01*
X160099429Y-86036561D01*
X160096971Y-85982911D01*
X160222907Y-85982911D01*
X160225352Y-86027501D01*
X160232543Y-86070110D01*
X160244349Y-86110774D01*
X160260519Y-86149014D01*
X160305504Y-86217910D01*
X160366115Y-86274815D01*
X160401835Y-86298122D01*
X160440723Y-86317550D01*
X160482691Y-86332919D01*
X160527370Y-86343929D01*
X160615140Y-86352035D01*
X160663699Y-86349591D01*
X160709909Y-86342408D01*
X160753596Y-86330691D01*
X160794467Y-86314672D01*
X160832247Y-86294604D01*
X160866761Y-86270694D01*
X160897661Y-86243285D01*
X160924870Y-86212508D01*
X160948032Y-86178800D01*
X160967103Y-86142200D01*
X160981779Y-86103191D01*
X160991981Y-86061755D01*
X160998456Y-85989968D01*
X160996008Y-85943063D01*
X160988803Y-85898349D01*
X160977040Y-85856025D01*
X160960927Y-85816309D01*
X160940647Y-85779377D01*
X160916419Y-85745475D01*
X160856836Y-85687521D01*
X160821862Y-85663904D01*
X160783743Y-85644182D01*
X160742615Y-85628542D01*
X160698748Y-85617233D01*
X160608006Y-85608436D01*
X160561409Y-85610878D01*
X160516782Y-85618046D01*
X160473915Y-85629855D01*
X160433557Y-85646007D01*
X160395660Y-85666442D01*
X160360825Y-85690793D01*
X160329217Y-85718900D01*
X160301206Y-85750441D01*
X160277127Y-85785039D01*
X160257133Y-85822545D01*
X160241603Y-85862332D01*
X160230584Y-85904484D01*
X160222907Y-85982911D01*
X160096971Y-85982911D01*
X160106613Y-85879450D01*
X160134920Y-85782584D01*
X160180802Y-85694532D01*
X160242786Y-85617806D01*
X160279208Y-85584500D01*
X160318879Y-85554962D01*
X160361385Y-85529523D01*
X160406641Y-85508292D01*
X160453926Y-85491646D01*
X160503446Y-85479582D01*
X160604439Y-85470092D01*
X160659130Y-85472542D01*
G37*
G36*
X161099500Y-86671297D02*
G01*
X161099500Y-86807857D01*
X159779338Y-86807857D01*
X159779338Y-86671297D01*
X161099500Y-86671297D01*
G37*
G36*
X161099500Y-87026152D02*
G01*
X161099500Y-87162713D01*
X159779338Y-87162713D01*
X159779338Y-87026152D01*
X161099500Y-87026152D01*
G37*
G36*
X160709114Y-87353265D02*
G01*
X160805425Y-87381682D01*
X160893870Y-87427961D01*
X160971658Y-87490697D01*
X161005640Y-87527612D01*
X161035875Y-87567799D01*
X161062006Y-87610813D01*
X161083916Y-87656565D01*
X161101169Y-87704202D01*
X161113815Y-87754023D01*
X161121519Y-87804881D01*
X161124308Y-87857381D01*
X161124315Y-87860016D01*
X161114630Y-87956854D01*
X161085788Y-88050306D01*
X161038460Y-88137301D01*
X161008243Y-88177330D01*
X160974028Y-88214403D01*
X160936123Y-88248127D01*
X160894651Y-88278289D01*
X160850356Y-88304298D01*
X160802973Y-88326226D01*
X160775818Y-88336388D01*
X160775818Y-88194399D01*
X160847168Y-88154551D01*
X160908453Y-88098254D01*
X160956221Y-88027920D01*
X160973916Y-87988693D01*
X160987022Y-87947462D01*
X160995208Y-87905188D01*
X160998417Y-87861780D01*
X160998456Y-87856449D01*
X160988899Y-87770515D01*
X160960636Y-87689149D01*
X160914817Y-87615980D01*
X160885992Y-87583785D01*
X160853805Y-87555266D01*
X160818863Y-87530942D01*
X160781268Y-87510932D01*
X160742309Y-87495886D01*
X160701439Y-87485606D01*
X160657791Y-87480345D01*
X160657791Y-88360272D01*
X160576794Y-88357669D01*
X160507131Y-88349368D01*
X160457163Y-88338092D01*
X160410591Y-88322297D01*
X160351945Y-88294202D01*
X160272722Y-88239364D01*
X160205416Y-88169149D01*
X160152420Y-88085540D01*
X160132034Y-88039516D01*
X160116132Y-87991340D01*
X160104906Y-87941422D01*
X160098503Y-87890016D01*
X160096971Y-87849315D01*
X160222907Y-87849315D01*
X160225364Y-87895534D01*
X160232638Y-87939610D01*
X160244440Y-87980962D01*
X160260676Y-88019874D01*
X160281116Y-88056038D01*
X160305675Y-88089447D01*
X160366833Y-88147516D01*
X160443760Y-88192859D01*
X160533716Y-88223169D01*
X160533716Y-87484300D01*
X160489048Y-87495218D01*
X160447018Y-87510480D01*
X160407580Y-87529991D01*
X160371293Y-87553397D01*
X160338306Y-87580523D01*
X160308965Y-87611046D01*
X160283579Y-87644601D01*
X160262295Y-87681018D01*
X160245470Y-87719705D01*
X160233143Y-87760701D01*
X160225603Y-87803259D01*
X160222911Y-87847585D01*
X160222907Y-87849315D01*
X160096971Y-87849315D01*
X160106604Y-87749066D01*
X160135008Y-87654332D01*
X160181277Y-87567423D01*
X160244039Y-87491088D01*
X160281003Y-87457788D01*
X160321236Y-87428232D01*
X160364339Y-87402748D01*
X160410177Y-87381487D01*
X160457934Y-87364863D01*
X160507865Y-87352856D01*
X160607308Y-87343630D01*
X160709114Y-87353265D01*
G37*
G36*
X161099500Y-88536149D02*
G01*
X161099500Y-88672710D01*
X160528830Y-88672710D01*
X160482109Y-88674705D01*
X160438978Y-88681635D01*
X160401656Y-88692646D01*
X160367734Y-88707942D01*
X160338453Y-88726609D01*
X160312481Y-88749126D01*
X160271229Y-88804735D01*
X160243508Y-88876238D01*
X160231825Y-88948235D01*
X160096815Y-88948235D01*
X160102137Y-88892673D01*
X160112208Y-88843364D01*
X160125289Y-88804403D01*
X160142321Y-88769927D01*
X160161974Y-88741442D01*
X160185245Y-88716516D01*
X160242829Y-88676625D01*
X160250669Y-88672710D01*
X160121786Y-88672710D01*
X160121786Y-88536149D01*
X161099500Y-88536149D01*
G37*
G36*
X163233100Y-73013622D02*
G01*
X163233100Y-73174300D01*
X162672744Y-73546293D01*
X163233100Y-73916581D01*
X163233100Y-74077258D01*
X162557897Y-73627485D01*
X161912938Y-74050505D01*
X161912938Y-73891688D01*
X162437776Y-73546293D01*
X161912938Y-73199193D01*
X161912938Y-73038592D01*
X162557897Y-73461612D01*
X163233100Y-73013622D01*
G37*
G36*
X163233100Y-74195518D02*
G01*
X163233100Y-74332078D01*
X162255386Y-74332078D01*
X162255386Y-74195518D01*
X163233100Y-74195518D01*
G37*
G36*
X162141934Y-74195518D02*
G01*
X162141934Y-74332078D01*
X161912938Y-74332078D01*
X161912938Y-74195518D01*
X162141934Y-74195518D01*
G37*
G36*
X162799710Y-74515444D02*
G01*
X162850564Y-74522659D01*
X162899731Y-74534562D01*
X162946580Y-74550909D01*
X163033273Y-74596606D01*
X163108691Y-74658460D01*
X163170766Y-74734906D01*
X163196158Y-74778018D01*
X163217478Y-74824070D01*
X163234482Y-74872718D01*
X163247022Y-74923860D01*
X163254863Y-74976973D01*
X163257885Y-75032127D01*
X163257915Y-75038222D01*
X163255380Y-75097205D01*
X163247568Y-75151157D01*
X163236017Y-75195184D01*
X163219879Y-75236266D01*
X163175334Y-75308450D01*
X163109401Y-75376673D01*
X163068855Y-75409130D01*
X163233100Y-75409130D01*
X163233100Y-75545690D01*
X162255386Y-75545690D01*
X162255386Y-75409130D01*
X162422577Y-75409130D01*
X162379606Y-75375340D01*
X162342254Y-75339277D01*
X162312571Y-75303593D01*
X162287578Y-75265542D01*
X162252241Y-75184319D01*
X162233651Y-75090846D01*
X162230745Y-75031165D01*
X162356507Y-75031165D01*
X162366108Y-75118419D01*
X162394213Y-75199019D01*
X162439588Y-75270442D01*
X162500470Y-75329787D01*
X162535951Y-75353993D01*
X162574393Y-75374158D01*
X162615206Y-75389908D01*
X162658391Y-75401141D01*
X162739822Y-75409130D01*
X162831522Y-75399541D01*
X162916063Y-75371526D01*
X162990536Y-75326563D01*
X163023009Y-75298377D01*
X163051814Y-75266812D01*
X163076534Y-75232360D01*
X163097069Y-75195118D01*
X163112939Y-75155959D01*
X163124208Y-75114618D01*
X163132056Y-75038222D01*
X163122454Y-74950162D01*
X163094332Y-74868676D01*
X163048872Y-74796193D01*
X162987762Y-74735559D01*
X162952073Y-74710611D01*
X162913395Y-74689673D01*
X162872261Y-74673096D01*
X162828727Y-74661008D01*
X162784264Y-74653797D01*
X162738039Y-74651340D01*
X162652082Y-74660916D01*
X162571173Y-74689175D01*
X162498389Y-74735053D01*
X162437411Y-74796579D01*
X162412549Y-74832202D01*
X162391838Y-74870662D01*
X162375800Y-74911019D01*
X162364399Y-74953525D01*
X162356507Y-75031165D01*
X162230745Y-75031165D01*
X162230571Y-75027598D01*
X162233018Y-74974890D01*
X162240223Y-74923962D01*
X162268532Y-74827160D01*
X162314403Y-74739283D01*
X162376424Y-74662681D01*
X162412933Y-74629362D01*
X162452747Y-74599759D01*
X162495520Y-74574162D01*
X162541127Y-74552717D01*
X162588956Y-74535766D01*
X162639131Y-74523348D01*
X162690839Y-74515742D01*
X162744411Y-74513001D01*
X162746957Y-74512996D01*
X162799710Y-74515444D01*
G37*
G36*
X162792730Y-75728903D02*
G01*
X162845304Y-75736126D01*
X162895763Y-75747986D01*
X162943723Y-75764272D01*
X162989176Y-75784882D01*
X163031740Y-75809567D01*
X163107709Y-75870624D01*
X163140657Y-75906614D01*
X163169930Y-75945940D01*
X163195359Y-75988436D01*
X163216730Y-76033878D01*
X163233839Y-76082019D01*
X163246521Y-76132703D01*
X163254574Y-76185605D01*
X163257847Y-76240647D01*
X163257915Y-76249896D01*
X163255466Y-76301915D01*
X163248252Y-76352038D01*
X163236355Y-76400460D01*
X163220016Y-76446561D01*
X163174369Y-76531686D01*
X163112632Y-76605427D01*
X163076191Y-76637395D01*
X163036404Y-76665694D01*
X162993452Y-76690129D01*
X162947581Y-76710466D01*
X162899156Y-76726453D01*
X162848259Y-76737947D01*
X162746957Y-76746662D01*
X162691990Y-76744213D01*
X162639136Y-76736991D01*
X162588393Y-76725133D01*
X162540174Y-76708850D01*
X162494546Y-76688269D01*
X162451857Y-76663628D01*
X162412259Y-76635082D01*
X162376008Y-76602857D01*
X162343331Y-76567180D01*
X162314397Y-76528222D01*
X162289471Y-76486303D01*
X162268663Y-76441509D01*
X162252233Y-76394247D01*
X162240277Y-76344518D01*
X162233029Y-76292921D01*
X162230571Y-76239272D01*
X162356507Y-76239272D01*
X162358952Y-76283862D01*
X162366143Y-76326470D01*
X162377949Y-76367134D01*
X162394119Y-76405374D01*
X162439104Y-76474271D01*
X162499715Y-76531176D01*
X162535435Y-76554482D01*
X162574323Y-76573910D01*
X162616291Y-76589280D01*
X162660970Y-76600290D01*
X162748740Y-76608396D01*
X162797299Y-76605952D01*
X162843509Y-76598768D01*
X162887196Y-76587052D01*
X162928067Y-76571032D01*
X162965847Y-76550965D01*
X163000361Y-76527055D01*
X163031261Y-76499646D01*
X163058470Y-76468868D01*
X163081632Y-76435160D01*
X163100703Y-76398561D01*
X163115379Y-76359552D01*
X163125581Y-76318116D01*
X163132056Y-76246328D01*
X163129608Y-76199423D01*
X163122403Y-76154709D01*
X163110640Y-76112385D01*
X163094527Y-76072670D01*
X163074247Y-76035737D01*
X163050019Y-76001836D01*
X162990436Y-75943882D01*
X162955462Y-75920265D01*
X162917343Y-75900543D01*
X162876215Y-75884903D01*
X162832348Y-75873594D01*
X162741606Y-75864797D01*
X162695009Y-75867239D01*
X162650382Y-75874407D01*
X162607515Y-75886216D01*
X162567157Y-75902368D01*
X162529260Y-75922803D01*
X162494425Y-75947154D01*
X162462817Y-75975261D01*
X162434806Y-76006802D01*
X162410727Y-76041400D01*
X162390733Y-76078905D01*
X162375203Y-76118693D01*
X162364184Y-76160845D01*
X162356507Y-76239272D01*
X162230571Y-76239272D01*
X162240213Y-76135811D01*
X162268520Y-76038945D01*
X162314402Y-75950893D01*
X162376386Y-75874167D01*
X162412808Y-75840861D01*
X162452479Y-75811323D01*
X162494985Y-75785884D01*
X162540241Y-75764652D01*
X162587526Y-75748007D01*
X162637046Y-75735942D01*
X162738039Y-75726453D01*
X162792730Y-75728903D01*
G37*
G36*
X163233100Y-77442105D02*
G01*
X163233100Y-78165387D01*
X163109024Y-78165387D01*
X163109024Y-77578665D01*
X162627689Y-77578665D01*
X162627689Y-78145845D01*
X162503536Y-78145845D01*
X162503536Y-77578665D01*
X162037091Y-77578665D01*
X162037091Y-78165387D01*
X161912938Y-78165387D01*
X161912938Y-77442105D01*
X163233100Y-77442105D01*
G37*
G36*
X162861882Y-78274030D02*
G01*
X162913139Y-78279186D01*
X162961536Y-78288991D01*
X163006377Y-78303070D01*
X163048098Y-78321339D01*
X163086151Y-78343374D01*
X163120831Y-78369177D01*
X163151791Y-78398379D01*
X163179111Y-78430971D01*
X163222184Y-78505609D01*
X163248956Y-78592291D01*
X163257915Y-78687356D01*
X163255471Y-78734746D01*
X163248292Y-78780169D01*
X163236471Y-78823795D01*
X163220289Y-78864935D01*
X163199812Y-78903622D01*
X163175386Y-78939292D01*
X163147155Y-78971794D01*
X163115434Y-79000761D01*
X163080549Y-79025887D01*
X163042671Y-79046998D01*
X163002347Y-79063739D01*
X162959544Y-79076037D01*
X162914970Y-79083596D01*
X162868426Y-79086330D01*
X162866147Y-79086336D01*
X162821327Y-79083887D01*
X162778127Y-79076670D01*
X162736703Y-79064797D01*
X162697723Y-79048494D01*
X162661894Y-79028160D01*
X162629253Y-79003863D01*
X162583332Y-78955514D01*
X162554503Y-78909996D01*
X162528318Y-78855478D01*
X162478023Y-78709380D01*
X162439496Y-78591835D01*
X162406500Y-78528766D01*
X162396832Y-78516520D01*
X162353051Y-78482501D01*
X162292014Y-78460005D01*
X162245770Y-78455180D01*
X162209684Y-78457614D01*
X162175862Y-78464723D01*
X162144452Y-78476281D01*
X162115890Y-78491975D01*
X162090377Y-78511586D01*
X162068298Y-78534773D01*
X162049926Y-78561262D01*
X162035563Y-78590744D01*
X162025512Y-78622846D01*
X162020017Y-78657342D01*
X162019022Y-78680299D01*
X162021474Y-78717278D01*
X162028711Y-78751674D01*
X162040236Y-78782609D01*
X162055996Y-78810720D01*
X162099108Y-78857405D01*
X162157563Y-78891174D01*
X162231621Y-78910348D01*
X162253602Y-78912631D01*
X162253602Y-79054387D01*
X162205828Y-79050757D01*
X162160730Y-79042422D01*
X162118870Y-79029718D01*
X162079992Y-79012779D01*
X162044518Y-78991963D01*
X162012330Y-78967349D01*
X161958643Y-78907682D01*
X161920009Y-78834974D01*
X161897851Y-78750223D01*
X161893086Y-78683789D01*
X161895530Y-78637281D01*
X161902712Y-78592949D01*
X161914459Y-78550881D01*
X161930525Y-78511487D01*
X161950713Y-78474963D01*
X161974776Y-78441607D01*
X162002431Y-78411711D01*
X162033491Y-78385455D01*
X162067560Y-78363175D01*
X162104553Y-78344977D01*
X162143983Y-78331173D01*
X162185860Y-78321866D01*
X162249337Y-78316836D01*
X162332593Y-78326480D01*
X162372430Y-78338414D01*
X162409743Y-78354795D01*
X162442987Y-78374810D01*
X162472533Y-78398629D01*
X162483994Y-78410048D01*
X162515187Y-78446751D01*
X162540640Y-78489617D01*
X162582280Y-78596554D01*
X162601944Y-78656415D01*
X162629973Y-78743196D01*
X162656767Y-78807625D01*
X162686858Y-78860209D01*
X162730741Y-78904632D01*
X162787693Y-78934337D01*
X162856536Y-78947595D01*
X162873281Y-78948070D01*
X162911854Y-78945631D01*
X162948235Y-78938491D01*
X162982265Y-78926860D01*
X163013533Y-78911019D01*
X163041803Y-78891197D01*
X163066746Y-78867682D01*
X163088056Y-78840774D01*
X163105491Y-78810710D01*
X163118731Y-78777882D01*
X163127575Y-78742444D01*
X163132056Y-78690923D01*
X163122499Y-78618089D01*
X163094273Y-78550079D01*
X163073988Y-78520296D01*
X163049965Y-78494035D01*
X163035277Y-78481314D01*
X163003047Y-78458672D01*
X162968332Y-78441871D01*
X162891778Y-78423139D01*
X162861882Y-78419353D01*
X162861882Y-78274030D01*
G37*
G36*
X163233100Y-79391406D02*
G01*
X162702057Y-79391406D01*
X162702057Y-79641341D01*
X162699492Y-79733862D01*
X162691465Y-79811644D01*
X162680755Y-79865096D01*
X162665960Y-79912106D01*
X162648540Y-79950786D01*
X162627253Y-79986206D01*
X162619857Y-79996661D01*
X162568764Y-80050132D01*
X162502240Y-80091245D01*
X162420313Y-80118413D01*
X162323694Y-80129194D01*
X162314632Y-80129267D01*
X162261277Y-80126811D01*
X162210949Y-80119543D01*
X162165083Y-80107967D01*
X162122686Y-80092101D01*
X162085292Y-80072829D01*
X162051672Y-80049810D01*
X162023075Y-80024189D01*
X161998465Y-79995316D01*
X161982730Y-79971536D01*
X161961840Y-79932347D01*
X161944981Y-79889512D01*
X161922665Y-79790086D01*
X161913166Y-79650542D01*
X161912938Y-79620015D01*
X161912938Y-79575581D01*
X162037091Y-79575581D01*
X162039603Y-79681345D01*
X162047262Y-79765894D01*
X162057078Y-79818846D01*
X162070314Y-79860491D01*
X162076097Y-79873206D01*
X162092227Y-79899862D01*
X162112149Y-79923168D01*
X162162749Y-79959487D01*
X162229790Y-79982680D01*
X162314632Y-79990923D01*
X162356805Y-79988481D01*
X162396065Y-79981315D01*
X162431334Y-79969930D01*
X162463008Y-79954456D01*
X162489750Y-79935897D01*
X162512442Y-79913955D01*
X162533702Y-79883675D01*
X162560145Y-79818126D01*
X162574871Y-79724324D01*
X162577982Y-79632500D01*
X162577982Y-79391406D01*
X162037091Y-79391406D01*
X162037091Y-79575581D01*
X161912938Y-79575581D01*
X161912938Y-79254846D01*
X163233100Y-79254846D01*
X163233100Y-79391406D01*
G37*
G36*
X162248251Y-80452406D02*
G01*
X162202226Y-80455420D01*
X162161030Y-80463231D01*
X162127287Y-80474645D01*
X162097873Y-80489990D01*
X162074243Y-80507928D01*
X162054594Y-80529191D01*
X162027975Y-80580064D01*
X162017355Y-80644421D01*
X162017238Y-80652632D01*
X162019673Y-80686169D01*
X162026790Y-80717322D01*
X162038270Y-80745754D01*
X162053847Y-80771295D01*
X162096283Y-80812736D01*
X162152228Y-80839551D01*
X162184742Y-80846728D01*
X162219756Y-80849289D01*
X162220955Y-80849292D01*
X162256952Y-80846844D01*
X162289974Y-80839633D01*
X162318987Y-80828282D01*
X162344883Y-80812824D01*
X162386228Y-80770979D01*
X162413841Y-80714544D01*
X162426040Y-80642997D01*
X162426377Y-80627740D01*
X162422732Y-80561282D01*
X162545024Y-80561282D01*
X162548426Y-80659001D01*
X162555726Y-80716066D01*
X162582565Y-80785858D01*
X162626190Y-80845879D01*
X162684480Y-80892974D01*
X162718148Y-80910637D01*
X162754276Y-80923927D01*
X162792126Y-80932501D01*
X162831680Y-80936233D01*
X162841254Y-80936377D01*
X162919926Y-80926820D01*
X162990750Y-80899084D01*
X163022265Y-80878911D01*
X163050517Y-80854994D01*
X163075183Y-80827638D01*
X163095956Y-80797136D01*
X163112365Y-80764157D01*
X163124350Y-80728678D01*
X163133839Y-80654416D01*
X163131382Y-80615272D01*
X163124107Y-80577948D01*
X163112266Y-80542913D01*
X163095965Y-80510096D01*
X163050497Y-80451904D01*
X163006972Y-80416501D01*
X162973255Y-80397219D01*
X162936292Y-80383228D01*
X162848167Y-80367715D01*
X162819231Y-80365165D01*
X162819231Y-80230466D01*
X162886728Y-80235554D01*
X162945324Y-80245971D01*
X162988765Y-80259056D01*
X163029728Y-80276703D01*
X163050476Y-80287773D01*
X163121539Y-80339427D01*
X163180102Y-80406075D01*
X163223783Y-80485629D01*
X163239309Y-80529402D01*
X163250276Y-80575284D01*
X163257915Y-80659767D01*
X163248309Y-80748987D01*
X163219983Y-80832937D01*
X163173892Y-80908977D01*
X163111642Y-80973921D01*
X163075229Y-81001182D01*
X163035741Y-81024498D01*
X162993804Y-81043451D01*
X162949402Y-81057955D01*
X162903609Y-81067608D01*
X162855971Y-81072422D01*
X162834197Y-81072938D01*
X162785513Y-81070464D01*
X162739334Y-81063071D01*
X162697173Y-81051296D01*
X162657504Y-81035011D01*
X162621035Y-81014659D01*
X162587115Y-80990030D01*
X162527081Y-80927927D01*
X162480117Y-80853014D01*
X162452906Y-80887961D01*
X162423291Y-80917499D01*
X162393404Y-80940200D01*
X162361188Y-80958287D01*
X162290922Y-80980498D01*
X162228011Y-80985852D01*
X162183237Y-80983407D01*
X162140799Y-80976215D01*
X162101027Y-80964531D01*
X162064031Y-80948557D01*
X162030131Y-80928572D01*
X161999437Y-80904748D01*
X161972235Y-80877371D01*
X161948668Y-80846599D01*
X161928978Y-80812686D01*
X161913355Y-80775808D01*
X161902018Y-80736163D01*
X161895192Y-80693973D01*
X161893086Y-80652632D01*
X161895541Y-80607591D01*
X161902805Y-80565207D01*
X161914434Y-80526409D01*
X161930384Y-80490447D01*
X161950252Y-80457826D01*
X161974059Y-80428251D01*
X162033013Y-80378731D01*
X162107210Y-80342668D01*
X162196923Y-80321724D01*
X162248251Y-80317629D01*
X162248251Y-80452406D01*
G37*
G36*
X163233100Y-81214461D02*
G01*
X163233100Y-82053288D01*
X163109024Y-82053288D01*
X163109024Y-81400962D01*
X162710432Y-81817855D01*
X162630890Y-81897733D01*
X162560408Y-81959465D01*
X162512298Y-81994511D01*
X162466278Y-82021298D01*
X162426336Y-82038681D01*
X162386227Y-82050658D01*
X162302563Y-82060369D01*
X162295167Y-82060423D01*
X162248044Y-82057977D01*
X162202958Y-82050782D01*
X162159867Y-82038970D01*
X162119244Y-82022788D01*
X162045742Y-81977808D01*
X161984376Y-81917292D01*
X161958863Y-81881683D01*
X161937200Y-81842905D01*
X161919572Y-81801102D01*
X161906243Y-81756580D01*
X161897440Y-81709633D01*
X161893359Y-81660438D01*
X161893086Y-81643684D01*
X161895541Y-81593736D01*
X161902801Y-81545985D01*
X161914601Y-81500986D01*
X161930824Y-81458576D01*
X161951140Y-81419264D01*
X161975509Y-81382917D01*
X162003591Y-81349940D01*
X162035378Y-81320298D01*
X162070602Y-81294274D01*
X162109214Y-81271967D01*
X162150542Y-81253778D01*
X162205162Y-81236621D01*
X162260627Y-81227902D01*
X162345573Y-81225163D01*
X162345573Y-81359862D01*
X162282390Y-81362381D01*
X162230742Y-81370085D01*
X162163105Y-81393440D01*
X162131746Y-81411878D01*
X162103794Y-81433986D01*
X162058690Y-81488356D01*
X162029288Y-81554815D01*
X162021019Y-81592102D01*
X162017396Y-81631545D01*
X162017238Y-81641901D01*
X162019678Y-81683149D01*
X162026831Y-81722062D01*
X162038449Y-81758377D01*
X162054281Y-81791818D01*
X162074009Y-81822025D01*
X162097428Y-81848842D01*
X162124123Y-81871875D01*
X162153978Y-81891032D01*
X162186518Y-81905961D01*
X162221695Y-81916549D01*
X162288033Y-81923862D01*
X162327075Y-81921343D01*
X162364738Y-81913639D01*
X162434964Y-81883658D01*
X162506483Y-81832046D01*
X162564963Y-81779237D01*
X162666075Y-81675711D01*
X163110420Y-81214461D01*
X163233100Y-81214461D01*
G37*
G36*
X162702057Y-82194812D02*
G01*
X162819076Y-82194812D01*
X162819076Y-82681652D01*
X162702057Y-82681652D01*
X162702057Y-82194812D01*
G37*
G36*
X162884370Y-84035547D02*
G01*
X162967859Y-83965222D01*
X163023955Y-83903562D01*
X163075323Y-83822075D01*
X163111787Y-83727428D01*
X163123417Y-83676617D01*
X163130211Y-83624569D01*
X163132056Y-83579725D01*
X163122420Y-83477065D01*
X163093835Y-83378563D01*
X163046968Y-83286622D01*
X162983039Y-83204219D01*
X162945253Y-83167583D01*
X162904098Y-83134592D01*
X162859957Y-83105581D01*
X162812999Y-83080729D01*
X162764128Y-83060533D01*
X162713028Y-83044908D01*
X162661019Y-83034275D01*
X162607356Y-83028522D01*
X162573251Y-83027512D01*
X162518052Y-83029961D01*
X162464684Y-83037174D01*
X162363197Y-83065503D01*
X162270794Y-83111396D01*
X162189690Y-83173470D01*
X162154083Y-83210044D01*
X162122146Y-83249968D01*
X162094155Y-83292924D01*
X162070249Y-83338783D01*
X162050764Y-83386988D01*
X162035734Y-83437632D01*
X162025450Y-83489968D01*
X162019945Y-83544283D01*
X162019022Y-83577942D01*
X162021497Y-83634087D01*
X162028896Y-83688635D01*
X162040912Y-83740329D01*
X162057599Y-83789886D01*
X162078369Y-83835937D01*
X162103526Y-83879390D01*
X162106728Y-83884253D01*
X162134751Y-83923690D01*
X162166768Y-83958141D01*
X162244628Y-84017995D01*
X162260349Y-84028258D01*
X162260349Y-84181026D01*
X162166022Y-84127584D01*
X162083061Y-84058187D01*
X162012934Y-83973935D01*
X161957341Y-83876231D01*
X161918054Y-83766891D01*
X161905041Y-83708509D01*
X161896708Y-83648138D01*
X161893086Y-83572669D01*
X161895538Y-83510894D01*
X161902783Y-83451008D01*
X161914751Y-83392768D01*
X161931231Y-83336796D01*
X161977407Y-83231669D01*
X162040141Y-83137404D01*
X162118048Y-83055844D01*
X162162184Y-83020403D01*
X162209518Y-82988782D01*
X162259735Y-82961231D01*
X162312769Y-82937850D01*
X162368148Y-82918907D01*
X162425954Y-82904456D01*
X162485598Y-82894728D01*
X162547282Y-82889787D01*
X162578602Y-82889168D01*
X162639005Y-82891620D01*
X162697641Y-82898858D01*
X162810016Y-82927356D01*
X162914082Y-82973764D01*
X163007967Y-83037016D01*
X163089649Y-83115766D01*
X163125284Y-83160448D01*
X163157113Y-83208337D01*
X163184902Y-83259152D01*
X163208513Y-83312768D01*
X163227662Y-83368674D01*
X163242299Y-83426958D01*
X163252174Y-83486918D01*
X163257241Y-83548835D01*
X163257915Y-83581509D01*
X163255434Y-83645457D01*
X163247997Y-83706865D01*
X163236088Y-83763847D01*
X163219550Y-83818414D01*
X163198863Y-83869514D01*
X163173743Y-83918260D01*
X163110643Y-84008126D01*
X163029241Y-84089181D01*
X162927591Y-84161922D01*
X162884370Y-84186687D01*
X162884370Y-84035547D01*
G37*
G36*
X162248251Y-84536967D02*
G01*
X162202226Y-84539981D01*
X162161030Y-84547792D01*
X162127287Y-84559206D01*
X162097873Y-84574551D01*
X162074243Y-84592489D01*
X162054594Y-84613752D01*
X162027975Y-84664625D01*
X162017355Y-84728982D01*
X162017238Y-84737193D01*
X162019673Y-84770730D01*
X162026790Y-84801884D01*
X162038270Y-84830315D01*
X162053847Y-84855856D01*
X162096283Y-84897297D01*
X162152228Y-84924113D01*
X162184742Y-84931289D01*
X162219756Y-84933850D01*
X162220955Y-84933853D01*
X162256952Y-84931405D01*
X162289974Y-84924194D01*
X162318987Y-84912843D01*
X162344883Y-84897385D01*
X162386228Y-84855540D01*
X162413841Y-84799105D01*
X162426040Y-84727558D01*
X162426377Y-84712301D01*
X162422732Y-84645843D01*
X162545024Y-84645843D01*
X162548426Y-84743562D01*
X162555726Y-84800627D01*
X162582565Y-84870419D01*
X162626190Y-84930440D01*
X162684480Y-84977535D01*
X162718148Y-84995198D01*
X162754276Y-85008488D01*
X162792126Y-85017062D01*
X162831680Y-85020794D01*
X162841254Y-85020938D01*
X162919926Y-85011381D01*
X162990750Y-84983645D01*
X163022265Y-84963472D01*
X163050517Y-84939555D01*
X163075183Y-84912199D01*
X163095956Y-84881697D01*
X163112365Y-84848718D01*
X163124350Y-84813239D01*
X163133839Y-84738977D01*
X163131382Y-84699833D01*
X163124107Y-84662509D01*
X163112266Y-84627474D01*
X163095965Y-84594657D01*
X163050497Y-84536465D01*
X163006972Y-84501063D01*
X162973255Y-84481780D01*
X162936292Y-84467789D01*
X162848167Y-84452276D01*
X162819231Y-84449726D01*
X162819231Y-84315027D01*
X162886728Y-84320115D01*
X162945324Y-84330532D01*
X162988765Y-84343617D01*
X163029728Y-84361265D01*
X163050476Y-84372334D01*
X163121539Y-84423988D01*
X163180102Y-84490636D01*
X163223783Y-84570190D01*
X163239309Y-84613963D01*
X163250276Y-84659845D01*
X163257915Y-84744328D01*
X163248309Y-84833548D01*
X163219983Y-84917499D01*
X163173892Y-84993538D01*
X163111642Y-85058482D01*
X163075229Y-85085743D01*
X163035741Y-85109059D01*
X162993804Y-85128012D01*
X162949402Y-85142516D01*
X162903609Y-85152169D01*
X162855971Y-85156983D01*
X162834197Y-85157499D01*
X162785513Y-85155025D01*
X162739334Y-85147632D01*
X162697173Y-85135858D01*
X162657504Y-85119572D01*
X162621035Y-85099220D01*
X162587115Y-85074591D01*
X162527081Y-85012488D01*
X162480117Y-84937575D01*
X162452906Y-84972522D01*
X162423291Y-85002060D01*
X162393404Y-85024761D01*
X162361188Y-85042848D01*
X162290922Y-85065059D01*
X162228011Y-85070413D01*
X162183237Y-85067968D01*
X162140799Y-85060776D01*
X162101027Y-85049092D01*
X162064031Y-85033118D01*
X162030131Y-85013133D01*
X161999437Y-84989309D01*
X161972235Y-84961932D01*
X161948668Y-84931160D01*
X161928978Y-84897247D01*
X161913355Y-84860369D01*
X161902018Y-84820724D01*
X161895192Y-84778535D01*
X161893086Y-84737193D01*
X161895541Y-84692152D01*
X161902805Y-84649768D01*
X161914434Y-84610970D01*
X161930384Y-84575008D01*
X161950252Y-84542387D01*
X161974059Y-84512812D01*
X162033013Y-84463292D01*
X162107210Y-84427229D01*
X162196923Y-84406285D01*
X162248251Y-84402190D01*
X162248251Y-84536967D01*
G37*
M02*
